{
.appVersion = "1352";
DisplayStrings = (
"ABCDEFGHIJKLMNOPQRSTUVWXYZ\012HH/Placeholder HO/Placeholder OO\012A/Placeholder A/space B/Placeholder B/space C/Placeholder C/space D/Placeholder D/space E/Placeholder E/space F/Placeholder F/space G/Placeholder G/space H/Placeholder H/space I/Placeholder I/space J/Placeholder J/space K/Placeholder K/space L/Placeholder L/space M/Placeholder M/space N/Placeholder N/space O/Placeholder O/space P/Placeholder P/space Q/Placeholder Q/space R/Placeholder R/space S/Placeholder S/space T/Placeholder T/space U/Placeholder U/space V/Placeholder V/space W/Placeholder W/space X/Placeholder X/space Y/Placeholder Y/space Z/Placeholder Z/space HH/Placeholder HO/Placeholder OO\012HHUYJAUKMHHBCDEFGHIJKLMNOPQRSTUVWXYZ",
abcodefghijklmnopqrstuvwxyz,
"A/Placeholder A/space B/Placeholder B/space C/Placeholder C/space D/Placeholder D/space E/Placeholder E/space F/Placeholder F/space G/Placeholder G/space H/Placeholder H/space I/Placeholder I/space J/Placeholder J/space K/Placeholder K/space L/Placeholder L/space M/Placeholder M/space N/Placeholder N/space O/Placeholder O/space P/Placeholder P/space Q/Placeholder Q/space R/Placeholder R/space S/Placeholder S/space T/Placeholder T/space U/Placeholder U/space V/Placeholder V/space W/Placeholder W/space X/Placeholder X/space Y/Placeholder Y/space Z/Placeholder Z/space HH/Placeholder HO/Placeholder OO\012ABOCDEFGHIJKOLMNOPQRSOTOUOVOWOXOYOZ/space Over/space",

glyphs = (
{
color = 7;
glyphname = A;
lastChange = "2021-09-24 03:41:24 +0000";
layers = (
{
anchors = (
{
name = bottom;
position = "{310, 0}";
},
{
name = ogonek;
position = "{588, 10}";
},
{
name = top;
position = "{375, 460}";
}
);
background = {
anchors = (
{
name = bottom;
position = "{310, 0}";
},
{
name = ogonek;
position = "{588, 10}";
},
{
name = top;
position = "{375, 460}";
}
);
hints = (
{
horizontal = 1;
place = "{64, 151}";
type = Stem;
},
{
horizontal = 1;
place = "{460, -20}";
target = down;
type = TopGhost;
},
{
place = "{26, 685}";
type = Stem;
},
{
horizontal = 1;
place = "{0, 215}";
type = Stem;
}
);
paths = (
{
closed = 1;
nodes = (
"138 0 LINE",
"190 86 LINE",
"368 86 LINE",
"399 0 LINE",
"646 0 LINE",
"522 374 LINE",
"502 434 OFFCURVE",
"452 464 OFFCURVE",
"375 464 CURVE",
"276 464 OFFCURVE",
"230 430 OFFCURVE",
"195 374 CURVE",
"-35 0 LINE"
);
},
{
closed = 1;
nodes = (
"299 265 LINE",
"301 269 OFFCURVE",
"304 274 OFFCURVE",
"304 274 CURVE",
"304 274 OFFCURVE",
"305 269 OFFCURVE",
"306 265 CURVE",
"338 169 LINE",
"237 169 LINE"
);
}
);
};
layerId = "C7668D88-AC50-4107-9C4B-DB5D26A8FA6C";
paths = (
{
closed = 1;
nodes = (
"138 0 LINE",
"190 86 LINE",
"368 86 LINE",
"399 0 LINE",
"646 0 LINE",
"522 374 LINE",
"502 434 OFFCURVE",
"452 464 OFFCURVE",
"375 464 CURVE",
"276 464 OFFCURVE",
"230 430 OFFCURVE",
"195 374 CURVE",
"-35 0 LINE"
);
},
{
closed = 1;
nodes = (
"299 265 LINE",
"301 269 OFFCURVE",
"304 274 OFFCURVE",
"304 274 CURVE",
"304 274 OFFCURVE",
"305 269 OFFCURVE",
"306 265 CURVE",
"338 169 LINE",
"237 169 LINE"
);
}
);
width = 678;
},
{
anchors = (
{
name = bottom;
position = "{198, 0}";
},
{
name = ogonek;
position = "{394, 10}";
},
{
name = top;
position = "{258, 460}";
}
);
layerId = "9C644782-EE44-4C4B-9808-39A279382CB0";
paths = (
{
closed = 1;
nodes = (
"11 0 LINE",
"73 141 LINE",
"348 141 LINE",
"372 0 LINE",
"396 0 LINE",
"331 399 LINE SMOOTH",
"324 445 OFFCURVE",
"313 464 OFFCURVE",
"258 464 CURVE SMOOTH",
"202 464 OFFCURVE",
"183 441 OFFCURVE",
"165 399 CURVE SMOOTH",
"-10 0 LINE"
);
},
{
closed = 1;
nodes = (
"183 397 LINE SMOOTH",
"193 421 OFFCURVE",
"204 445 OFFCURVE",
"253 445 CURVE SMOOTH",
"296 445 OFFCURVE",
"303 422 OFFCURVE",
"307 397 CURVE SMOOTH",
"346 159 LINE",
"81 159 LINE"
);
}
);
width = 445;
}
);
leftKerningGroup = A;
note = A;
rightKerningGroup = A;
unicode = 0041;
},
{
color = 7;
glyphname = AE;
lastChange = "2021-09-24 03:41:24 +0000";
layers = (
{
anchors = (
{
name = bottom;
position = "{456, 0}";
},
{
name = top;
position = "{754, 460}";
}
);
background = {
anchors = (
{
name = bottom;
position = "{456, 0}";
},
{
name = top;
position = "{754, 460}";
}
);
paths = (
{
closed = 1;
nodes = (
"157 0 LINE",
"180 25 OFFCURVE",
"205 49 OFFCURVE",
"228 74 CURVE",
"386 74 LINE",
"376 0 LINE",
"557 0 OFFCURVE",
"737 0 OFFCURVE",
"918 0 CURVE",
"935 123 LINE",
"612 123 LINE",
"618 167 LINE",
"715 167 OFFCURVE",
"811 167 OFFCURVE",
"908 167 CURVE",
"925 290 LINE",
"635 290 LINE",
"642 337 LINE",
"965 337 LINE",
"971 378 OFFCURVE",
"977 419 OFFCURVE",
"982 460 CURVE",
"564 460 LINE SMOOTH",
"506 460 OFFCURVE",
"448 460 OFFCURVE",
"391 402 CURVE SMOOTH",
"203 208 OFFCURVE",
"173 177 OFFCURVE",
"3 0 CURVE"
);
},
{
closed = 1;
nodes = (
"341 191 OFFCURVE",
"366 219 OFFCURVE",
"393 248 CURVE SMOOTH",
"395 250 OFFCURVE",
"397 253 OFFCURVE",
"400 255 CURVE SMOOTH",
"404 260 OFFCURVE",
"409 265 OFFCURVE",
"414 270 CURVE",
"409 234 OFFCURVE",
"404 198 OFFCURVE",
"398 162 CURVE",
"370 162 OFFCURVE",
"342 162 OFFCURVE",
"314 162 CURVE"
);
}
);
};
layerId = "C7668D88-AC50-4107-9C4B-DB5D26A8FA6C";
paths = (
{
closed = 1;
nodes = (
"157 0 LINE",
"180 25 OFFCURVE",
"205 49 OFFCURVE",
"228 74 CURVE",
"386 74 LINE",
"376 0 LINE",
"557 0 OFFCURVE",
"737 0 OFFCURVE",
"918 0 CURVE",
"935 123 LINE",
"612 123 LINE",
"618 167 LINE",
"715 167 OFFCURVE",
"811 167 OFFCURVE",
"908 167 CURVE",
"925 290 LINE",
"635 290 LINE",
"642 337 LINE",
"965 337 LINE",
"971 378 OFFCURVE",
"977 419 OFFCURVE",
"982 460 CURVE",
"564 460 LINE SMOOTH",
"506 460 OFFCURVE",
"448 460 OFFCURVE",
"391 402 CURVE SMOOTH",
"203 208 OFFCURVE",
"173 177 OFFCURVE",
"3 0 CURVE"
);
},
{
closed = 1;
nodes = (
"341 191 OFFCURVE",
"366 219 OFFCURVE",
"393 248 CURVE SMOOTH",
"395 250 OFFCURVE",
"397 253 OFFCURVE",
"400 255 CURVE SMOOTH",
"404 260 OFFCURVE",
"409 265 OFFCURVE",
"414 270 CURVE",
"409 234 OFFCURVE",
"404 198 OFFCURVE",
"398 162 CURVE",
"370 162 OFFCURVE",
"342 162 OFFCURVE",
"314 162 CURVE"
);
}
);
width = 968;
},
{
anchors = (
{
name = bottom;
position = "{327, 0}";
},
{
name = top;
position = "{513, 460}";
}
);
layerId = "9C644782-EE44-4C4B-9808-39A279382CB0";
paths = (
{
closed = 1;
nodes = (
"-10 0 LINE",
"24 47 OFFCURVE",
"59 94 OFFCURVE",
"95 141 CURVE",
"309 141 LINE",
"289 0 LINE",
"411 0 OFFCURVE",
"534 0 OFFCURVE",
"657 0 CURVE",
"659 19 LINE",
"315 19 LINE",
"346 235 LINE",
"452 235 OFFCURVE",
"557 235 OFFCURVE",
"663 235 CURVE",
"666 254 LINE",
"348 254 LINE",
"375 441 LINE",
"718 441 LINE",
"719 448 OFFCURVE",
"720 453 OFFCURVE",
"721 460 CURVE",
"366 460 LINE SMOOTH",
"337 460 OFFCURVE",
"304 454 OFFCURVE",
"262 396 CURVE SMOOTH",
"163 263 OFFCURVE",
"66 133 OFFCURVE",
"-32 0 CURVE"
);
},
{
closed = 1;
nodes = (
"167 238 OFFCURVE",
"226 317 OFFCURVE",
"284 396 CURVE SMOOTH",
"301 420 OFFCURVE",
"321 439 OFFCURVE",
"344 439 CURVE SMOOTH",
"346 439 OFFCURVE",
"348 439 OFFCURVE",
"350 439 CURVE",
"338 346 OFFCURVE",
"324 253 OFFCURVE",
"311 159 CURVE",
"244 159 OFFCURVE",
"176 159 OFFCURVE",
"108 159 CURVE"
);
}
);
width = 710;
}
);
note = AE;
unicode = 00C6;
},
{
color = 7;
glyphname = B;
lastChange = "2021-09-28 15:54:02 +0000";
layers = (
{
background = {
hints = (
{
horizontal = 1;
place = "{0, 103}";
type = Stem;
},
{
horizontal = 1;
place = "{189, 97}";
type = Stem;
},
{
horizontal = 1;
place = "{372, 88}";
type = Stem;
},
{
place = "{40, 228}";
type = Stem;
},
{
place = "{434, 227}";
type = Stem;
}
);
paths = (
{
closed = 1;
nodes = (
"7 0 LINE",
"36 -1 OFFCURVE",
"313 -1 OFFCURVE",
"429 -1 CURVE SMOOTH",
"594 -1 OFFCURVE",
"631 22 OFFCURVE",
"647 137 CURVE SMOOTH",
"658 218 OFFCURVE",
"637 245 OFFCURVE",
"553 245 CURVE",
"580 245 OFFCURVE",
"647 255 OFFCURVE",
"661 348 CURVE SMOOTH",
"670 413 OFFCURVE",
"646 452 OFFCURVE",
"570 459 CURVE SMOOTH",
"513 464 OFFCURVE",
"405 462 OFFCURVE",
"118 460 CURVE SMOOTH",
"88 460 OFFCURVE",
"70 453 OFFCURVE",
"65 414 CURVE SMOOTH"
);
},
{
closed = 1;
nodes = (
"234 286 LINE",
"233 279 OFFCURVE",
"216 189 OFFCURVE",
"230 189 CURVE SMOOTH",
"381 189 LINE SMOOTH",
"421 189 OFFCURVE",
"425 177 OFFCURVE",
"421 147 CURVE SMOOTH",
"415 103 OFFCURVE",
"404 103 OFFCURVE",
"368 103 CURVE SMOOTH",
"254 103 OFFCURVE",
"265 103 OFFCURVE",
"249 103 CURVE",
"283 344 LINE SMOOTH",
"286 369 OFFCURVE",
"308 372 OFFCURVE",
"313 372 CURVE SMOOTH",
"347 372 OFFCURVE",
"381 372 OFFCURVE",
"404 372 CURVE SMOOTH",
"430 372 OFFCURVE",
"434 358 OFFCURVE",
"430 330 CURVE SMOOTH",
"424 286 OFFCURVE",
"412 286 OFFCURVE",
"388 286 CURVE SMOOTH"
);
}
);
};
layerId = "C7668D88-AC50-4107-9C4B-DB5D26A8FA6C";
paths = (
{
closed = 1;
nodes = (
"7 0 LINE",
"36 -1 OFFCURVE",
"313 -1 OFFCURVE",
"429 -1 CURVE SMOOTH",
"594 -1 OFFCURVE",
"631 22 OFFCURVE",
"647 137 CURVE SMOOTH",
"658 218 OFFCURVE",
"637 245 OFFCURVE",
"553 245 CURVE",
"580 245 OFFCURVE",
"647 255 OFFCURVE",
"661 348 CURVE SMOOTH",
"670 413 OFFCURVE",
"646 452 OFFCURVE",
"570 459 CURVE SMOOTH",
"513 464 OFFCURVE",
"405 462 OFFCURVE",
"118 460 CURVE SMOOTH",
"88 460 OFFCURVE",
"70 453 OFFCURVE",
"65 414 CURVE SMOOTH"
);
},
{
closed = 1;
nodes = (
"234 286 LINE",
"233 279 OFFCURVE",
"216 189 OFFCURVE",
"230 189 CURVE SMOOTH",
"381 189 LINE SMOOTH",
"421 189 OFFCURVE",
"425 177 OFFCURVE",
"421 147 CURVE SMOOTH",
"415 103 OFFCURVE",
"404 103 OFFCURVE",
"368 103 CURVE SMOOTH",
"254 103 OFFCURVE",
"265 103 OFFCURVE",
"249 103 CURVE",
"283 344 LINE SMOOTH",
"286 369 OFFCURVE",
"308 372 OFFCURVE",
"313 372 CURVE SMOOTH",
"347 372 OFFCURVE",
"381 372 OFFCURVE",
"404 372 CURVE SMOOTH",
"430 372 OFFCURVE",
"434 358 OFFCURVE",
"430 330 CURVE SMOOTH",
"424 286 OFFCURVE",
"412 286 OFFCURVE",
"388 286 CURVE SMOOTH"
);
}
);
width = 684;
},
{
layerId = "9C644782-EE44-4C4B-9808-39A279382CB0";
paths = (
{
closed = 1;
nodes = (
"67 0 LINE",
"96 -2 OFFCURVE",
"156 -3 OFFCURVE",
"267 -3 CURVE SMOOTH",
"350 -3 OFFCURVE",
"469 -3 OFFCURVE",
"486 123 CURVE SMOOTH",
"501 232 OFFCURVE",
"441 238 OFFCURVE",
"406 238 CURVE",
"439 243 OFFCURVE",
"488 269 OFFCURVE",
"499 348 CURVE SMOOTH",
"508 413 OFFCURVE",
"484 452 OFFCURVE",
"408 459 CURVE SMOOTH",
"351 464 OFFCURVE",
"243 462 OFFCURVE",
"178 460 CURVE SMOOTH",
"148 459 OFFCURVE",
"130 453 OFFCURVE",
"125 414 CURVE SMOOTH"
);
},
{
closed = 1;
nodes = (
"168 245 LINE",
"167 238 OFFCURVE",
"165 226 OFFCURVE",
"177 226 CURVE SMOOTH",
"348 226 LINE SMOOTH",
"447 226 OFFCURVE",
"472 202 OFFCURVE",
"461 124 CURVE SMOOTH",
"446 16 OFFCURVE",
"353 16 OFFCURVE",
"269 16 CURVE SMOOTH",
"155 16 OFFCURVE",
"103 17 OFFCURVE",
"93 18 CURVE",
"149 414 LINE SMOOTH",
"153 439 OFFCURVE",
"175 442 OFFCURVE",
"180 442 CURVE SMOOTH",
"225 443 OFFCURVE",
"336 447 OFFCURVE",
"406 440 CURVE SMOOTH",
"461 434 OFFCURVE",
"481 402 OFFCURVE",
"474 350 CURVE SMOOTH",
"462 263 OFFCURVE",
"405 245 OFFCURVE",
"349 245 CURVE SMOOTH"
);
}
);
width = 564;
}
);
leftKerningGroup = H;
leftMetricsKey = "=H-5";
note = B;
rightKerningGroup = B;
unicode = 0042;
},
{
color = 7;
glyphname = C;
lastChange = "2021-09-24 03:41:24 +0000";
layers = (
{
anchors = (
{
name = bottom;
position = "{313, 0}";
},
{
name = top;
position = "{378, 460}";
}
);
background = {
anchors = (
{
name = bottom;
position = "{313, 0}";
},
{
name = top;
position = "{378, 460}";
}
);
paths = (
{
closed = 1;
nodes = (
"-5 25 OFFCURVE",
"113 -6 OFFCURVE",
"358 -6 CURVE SMOOTH",
"417 -6 OFFCURVE",
"476 -4 OFFCURVE",
"530 4 CURVE SMOOTH",
"601 12 OFFCURVE",
"621 39 OFFCURVE",
"627 82 CURVE SMOOTH",
"636 146 LINE",
"536 127 OFFCURVE",
"471 117 OFFCURVE",
"412 117 CURVE SMOOTH",
"291 117 OFFCURVE",
"243 126 OFFCURVE",
"257 227 CURVE SMOOTH",
"272 334 OFFCURVE",
"322 339 OFFCURVE",
"426 339 CURVE SMOOTH",
"489 339 OFFCURVE",
"589 327 OFFCURVE",
"659 304 CURVE",
"668 373 LINE SMOOTH",
"675 419 OFFCURVE",
"662 444 OFFCURVE",
"597 452 CURVE SMOOTH",
"543 459 OFFCURVE",
"493 462 OFFCURVE",
"433 462 CURVE SMOOTH",
"229 462 OFFCURVE",
"55 451 OFFCURVE",
"24 226 CURVE SMOOTH"
);
}
);
};
layerId = "C7668D88-AC50-4107-9C4B-DB5D26A8FA6C";
paths = (
{
closed = 1;
nodes = (
"-5 25 OFFCURVE",
"113 -6 OFFCURVE",
"358 -6 CURVE SMOOTH",
"417 -6 OFFCURVE",
"476 -4 OFFCURVE",
"530 4 CURVE SMOOTH",
"601 12 OFFCURVE",
"621 39 OFFCURVE",
"627 82 CURVE SMOOTH",
"636 146 LINE",
"536 127 OFFCURVE",
"471 117 OFFCURVE",
"412 117 CURVE SMOOTH",
"291 117 OFFCURVE",
"243 126 OFFCURVE",
"257 227 CURVE SMOOTH",
"272 334 OFFCURVE",
"322 339 OFFCURVE",
"426 339 CURVE SMOOTH",
"489 339 OFFCURVE",
"589 327 OFFCURVE",
"659 304 CURVE",
"668 373 LINE SMOOTH",
"675 419 OFFCURVE",
"662 444 OFFCURVE",
"597 452 CURVE SMOOTH",
"543 459 OFFCURVE",
"493 462 OFFCURVE",
"433 462 CURVE SMOOTH",
"229 462 OFFCURVE",
"55 451 OFFCURVE",
"24 226 CURVE SMOOTH"
);
}
);
width = 663;
},
{
anchors = (
{
name = bottom;
position = "{245, 0}";
},
{
name = top;
position = "{309, 460}";
}
);
layerId = "9C644782-EE44-4C4B-9808-39A279382CB0";
paths = (
{
closed = 1;
nodes = (
"25 33 OFFCURVE",
"84 -8 OFFCURVE",
"248 -8 CURVE SMOOTH",
"295 -8 OFFCURVE",
"339 -5 OFFCURVE",
"385 4 CURVE SMOOTH",
"416 9 OFFCURVE",
"423 16 OFFCURVE",
"424 26 CURVE SMOOTH",
"426 35 LINE",
"394 20 OFFCURVE",
"304 10 OFFCURVE",
"249 10 CURVE SMOOTH",
"89 10 OFFCURVE",
"55 64 OFFCURVE",
"78 230 CURVE SMOOTH",
"101 394 OFFCURVE",
"158 448 OFFCURVE",
"310 448 CURVE SMOOTH",
"365 448 OFFCURVE",
"454 438 OFFCURVE",
"481 422 CURVE",
"482 432 LINE SMOOTH",
"483 442 OFFCURVE",
"478 449 OFFCURVE",
"449 454 CURVE SMOOTH",
"405 463 OFFCURVE",
"361 466 OFFCURVE",
"315 466 CURVE SMOOTH",
"158 466 OFFCURVE",
"80 423 OFFCURVE",
"53 230 CURVE SMOOTH"
);
}
);
width = 480;
}
);
leftKerningGroup = O;
leftMetricsKey = O;
note = C;
rightKerningGroup = C;
unicode = 0043;
},
{
color = 7;
glyphname = D;
lastChange = "2021-09-28 15:45:50 +0000";
layers = (
{
anchors = (
{
name = bottom;
position = "{287, 0}";
},
{
name = center;
position = "{176, 230}";
},
{
name = top;
position = "{365, 460}";
}
);
background = {
anchors = (
{
name = bottom;
position = "{287, 0}";
},
{
name = center;
position = "{363, 230}";
},
{
name = top;
position = "{365, 460}";
}
);
paths = (
{
closed = 1;
nodes = (
"705 450 OFFCURVE",
"583 460 OFFCURVE",
"418 460 CURVE SMOOTH",
"329 460 OFFCURVE",
"241 460 OFFCURVE",
"152 460 CURVE SMOOTH",
"90 460 OFFCURVE",
"73 437 OFFCURVE",
"65 381 CURVE SMOOTH",
"12 0 LINE",
"106 0 OFFCURVE",
"200 0 OFFCURVE",
"294 0 CURVE SMOOTH",
"507 0 OFFCURVE",
"642 4 OFFCURVE",
"673 226 CURVE SMOOTH"
);
},
{
closed = 1;
nodes = (
"284 318 LINE",
"286 328 OFFCURVE",
"287 339 OFFCURVE",
"289 349 CURVE",
"314 349 OFFCURVE",
"340 349 OFFCURVE",
"365 349 CURVE SMOOTH",
"439 349 OFFCURVE",
"464 342 OFFCURVE",
"448 227 CURVE SMOOTH",
"438 158 OFFCURVE",
"412 112 OFFCURVE",
"340 112 CURVE SMOOTH",
"312 112 OFFCURVE",
"283 112 OFFCURVE",
"255 112 CURVE"
);
},
{
closed = 1;
nodes = (
"222 117 OFFCURVE",
"273 168 OFFCURVE",
"273 231 CURVE SMOOTH",
"273 294 OFFCURVE",
"222 345 OFFCURVE",
"159 345 CURVE SMOOTH",
"96 345 OFFCURVE",
"45 294 OFFCURVE",
"45 231 CURVE SMOOTH",
"45 168 OFFCURVE",
"96 117 OFFCURVE",
"159 117 CURVE SMOOTH"
);
}
);
};
layerId = "C7668D88-AC50-4107-9C4B-DB5D26A8FA6C";
paths = (
{
closed = 1;
nodes = (
"565 0 OFFCURVE",
"646 36 OFFCURVE",
"673 226 CURVE SMOOTH",
"699 407 OFFCURVE",
"636 460 OFFCURVE",
"436 460 CURVE SMOOTH",
"329 460 OFFCURVE",
"241 460 OFFCURVE",
"152 460 CURVE SMOOTH",
"90 460 OFFCURVE",
"73 437 OFFCURVE",
"65 381 CURVE SMOOTH",
"12 0 LINE",
"106 0 OFFCURVE",
"200 0 OFFCURVE",
"321 0 CURVE SMOOTH"
);
},
{
closed = 1;
nodes = (
"312 112 OFFCURVE",
"283 112 OFFCURVE",
"255 112 CURVE",
"284 318 LINE",
"286 328 OFFCURVE",
"287 339 OFFCURVE",
"289 349 CURVE",
"314 349 OFFCURVE",
"340 349 OFFCURVE",
"365 349 CURVE SMOOTH",
"439 349 OFFCURVE",
"464 342 OFFCURVE",
"448 227 CURVE SMOOTH",
"438 158 OFFCURVE",
"412 112 OFFCURVE",
"340 112 CURVE SMOOTH"
);
}
);
width = 689;
},
{
anchors = (
{
name = bottom;
position = "{255, 0}";
},
{
name = center;
position = "{172, 230}";
},
{
name = top;
position = "{320, 460}";
}
);
layerId = "9C644782-EE44-4C4B-9808-39A279382CB0";
paths = (
{
closed = 1;
nodes = (
"418 -3 OFFCURVE",
"495 11 OFFCURVE",
"525 225 CURVE SMOOTH",
"554 428 OFFCURVE",
"511 454 OFFCURVE",
"363 462 CURVE SMOOTH",
"322 464 OFFCURVE",
"209 462 OFFCURVE",
"181 460 CURVE SMOOTH",
"135 456 OFFCURVE",
"134 438 OFFCURVE",
"128 398 CURVE SMOOTH",
"72 0 LINE",
"93 0 OFFCURVE",
"195 -3 OFFCURVE",
"244 -3 CURVE SMOOTH"
);
},
{
closed = 1;
nodes = (
"226 16 OFFCURVE",
"115 18 OFFCURVE",
"98 19 CURVE",
"152 402 LINE SMOOTH",
"156 432 OFFCURVE",
"164 436 OFFCURVE",
"178 439 CURVE SMOOTH",
"205 444 OFFCURVE",
"297 444 OFFCURVE",
"326 444 CURVE SMOOTH",
"486 444 OFFCURVE",
"528 416 OFFCURVE",
"501 224 CURVE SMOOTH",
"476 44 OFFCURVE",
"418 16 OFFCURVE",
"259 16 CURVE SMOOTH"
);
}
);
width = 570;
}
);
leftKerningGroup = H;
leftMetricsKey = H;
note = D;
rightKerningGroup = O;
rightMetricsKey = O;
unicode = 0044;
},
{
color = 7;
glyphname = E;
lastChange = "2021-09-28 15:54:02 +0000";
layers = (
{
anchors = (
{
name = bottom;
position = "{308, 0}";
},
{
name = ogonek;
position = "{575, 10}";
},
{
name = top;
position = "{373, 460}";
},
{
name = topleft;
position = "{61, 460}";
}
);
background = {
anchors = (
{
name = bottom;
position = "{308, 0}";
},
{
name = ogonek;
position = "{575, 10}";
},
{
name = top;
position = "{373, 460}";
},
{
name = topleft;
position = "{61, 460}";
}
);
paths = (
{
closed = 1;
nodes = (
"596 0 LINE",
"612 116 LINE",
"257 116 LINE",
"265 174 LINE",
"585 174 LINE",
"601 289 LINE",
"281 289 LINE",
"289 344 LINE",
"644 344 LINE",
"660 460 LINE",
"150 460 LINE SMOOTH",
"76 460 OFFCURVE",
"74 440 OFFCURVE",
"65 380 CURVE SMOOTH",
"12 0 LINE"
);
}
);
};
layerId = "C7668D88-AC50-4107-9C4B-DB5D26A8FA6C";
paths = (
{
closed = 1;
nodes = (
"596 0 LINE",
"612 116 LINE",
"257 116 LINE",
"265 174 LINE",
"585 174 LINE",
"601 289 LINE",
"281 289 LINE",
"289 344 LINE",
"644 344 LINE",
"660 460 LINE",
"150 460 LINE SMOOTH",
"76 460 OFFCURVE",
"74 440 OFFCURVE",
"65 380 CURVE SMOOTH",
"12 0 LINE"
);
}
);
width = 649;
},
{
anchors = (
{
name = bottom;
position = "{254, 0}";
},
{
name = ogonek;
position = "{439, 10}";
},
{
name = top;
position = "{319, 460}";
},
{
name = topleft;
position = "{109, 460}";
}
);
layerId = "9C644782-EE44-4C4B-9808-39A279382CB0";
paths = (
{
closed = 1;
nodes = (
"440 0 LINE",
"443 19 LINE",
"98 19 LINE",
"129 235 LINE",
"447 235 LINE",
"449 254 LINE",
"131 254 LINE",
"158 441 LINE",
"502 441 LINE",
"504 460 LINE",
"147 460 LINE SMOOTH",
"136 460 OFFCURVE",
"135 453 OFFCURVE",
"134 440 CURVE SMOOTH",
"72 0 LINE"
);
}
);
width = 511;
}
);
leftKerningGroup = H;
leftMetricsKey = H;
note = E;
rightKerningGroup = E;
unicode = 0045;
},
{
color = 7;
glyphname = F;
lastChange = "2021-09-28 15:54:02 +0000";
layers = (
{
background = {
paths = (
{
closed = 1;
nodes = (
"241 0 LINE",
"265 174 LINE",
"585 174 LINE",
"601 289 LINE",
"281 289 LINE",
"289 344 LINE",
"644 344 LINE",
"660 460 LINE",
"150 460 LINE SMOOTH",
"76 460 OFFCURVE",
"74 440 OFFCURVE",
"65 380 CURVE SMOOTH",
"12 0 LINE"
);
}
);
};
layerId = "C7668D88-AC50-4107-9C4B-DB5D26A8FA6C";
paths = (
{
closed = 1;
nodes = (
"241 0 LINE",
"265 174 LINE",
"585 174 LINE",
"601 289 LINE",
"281 289 LINE",
"289 344 LINE",
"644 344 LINE",
"660 460 LINE",
"150 460 LINE SMOOTH",
"76 460 OFFCURVE",
"74 440 OFFCURVE",
"65 380 CURVE SMOOTH",
"12 0 LINE"
);
}
);
width = 643;
},
{
layerId = "9C644782-EE44-4C4B-9808-39A279382CB0";
paths = (
{
closed = 1;
nodes = (
"96 0 LINE",
"129 235 LINE",
"447 235 LINE",
"449 254 LINE",
"131 254 LINE",
"158 441 LINE",
"502 441 LINE",
"504 460 LINE",
"147 460 LINE SMOOTH",
"136 460 OFFCURVE",
"135 453 OFFCURVE",
"134 440 CURVE SMOOTH",
"72 0 LINE"
);
}
);
width = 504;
}
);
leftKerningGroup = H;
leftMetricsKey = H;
note = F;
rightKerningGroup = F;
unicode = 0046;
},
{
color = 7;
glyphname = G;
lastChange = "2021-09-24 03:41:24 +0000";
layers = (
{
anchors = (
{
name = bottom;
position = "{335, 0}";
},
{
name = top;
position = "{400, 460}";
}
);
background = {
anchors = (
{
name = bottom;
position = "{335, 0}";
},
{
name = top;
position = "{400, 460}";
}
);
paths = (
{
closed = 1;
nodes = (
"293 -3 OFFCURVE",
"308 -3 OFFCURVE",
"323 -3 CURVE SMOOTH",
"527 -3 OFFCURVE",
"665 -3 OFFCURVE",
"688 158 CURVE SMOOTH",
"707 290 LINE",
"419 290 LINE SMOOTH",
"325 290 OFFCURVE",
"315 263 OFFCURVE",
"303 174 CURVE",
"493 174 LINE",
"492 168 OFFCURVE",
"491 163 OFFCURVE",
"491 157 CURVE SMOOTH",
"487 131 OFFCURVE",
"463 117 OFFCURVE",
"356 117 CURVE SMOOTH",
"276 117 OFFCURVE",
"236 130 OFFCURVE",
"249 227 CURVE SMOOTH",
"265 337 OFFCURVE",
"305 348 OFFCURVE",
"443 348 CURVE SMOOTH",
"470 348 OFFCURVE",
"679 346 OFFCURVE",
"693 316 CURVE",
"701 370 LINE SMOOTH",
"705 402 OFFCURVE",
"709 441 OFFCURVE",
"644 454 CURVE SMOOTH",
"613 462 OFFCURVE",
"524 465 OFFCURVE",
"434 465 CURVE SMOOTH",
"202 465 OFFCURVE",
"55 443 OFFCURVE",
"24 226 CURVE SMOOTH",
"-3 34 OFFCURVE",
"91 2 OFFCURVE",
"278 -3 CURVE SMOOTH"
);
}
);
};
layerId = "C7668D88-AC50-4107-9C4B-DB5D26A8FA6C";
paths = (
{
closed = 1;
nodes = (
"293 -3 OFFCURVE",
"308 -3 OFFCURVE",
"323 -3 CURVE SMOOTH",
"527 -3 OFFCURVE",
"665 -3 OFFCURVE",
"688 158 CURVE SMOOTH",
"707 290 LINE",
"419 290 LINE SMOOTH",
"325 290 OFFCURVE",
"315 263 OFFCURVE",
"303 174 CURVE",
"493 174 LINE",
"492 168 OFFCURVE",
"491 163 OFFCURVE",
"491 157 CURVE SMOOTH",
"487 131 OFFCURVE",
"463 117 OFFCURVE",
"356 117 CURVE SMOOTH",
"276 117 OFFCURVE",
"236 130 OFFCURVE",
"249 227 CURVE SMOOTH",
"265 337 OFFCURVE",
"305 348 OFFCURVE",
"443 348 CURVE SMOOTH",
"470 348 OFFCURVE",
"679 346 OFFCURVE",
"693 316 CURVE",
"701 370 LINE SMOOTH",
"705 402 OFFCURVE",
"709 441 OFFCURVE",
"644 454 CURVE SMOOTH",
"613 462 OFFCURVE",
"524 465 OFFCURVE",
"434 465 CURVE SMOOTH",
"202 465 OFFCURVE",
"55 443 OFFCURVE",
"24 226 CURVE SMOOTH",
"-3 34 OFFCURVE",
"91 2 OFFCURVE",
"278 -3 CURVE SMOOTH"
);
}
);
width = 717;
},
{
anchors = (
{
name = bottom;
position = "{234, 0}";
},
{
name = top;
position = "{299, 460}";
}
);
layerId = "9C644782-EE44-4C4B-9808-39A279382CB0";
paths = (
{
closed = 1;
nodes = (
"232 -9 OFFCURVE",
"234 -9 OFFCURVE",
"236 -9 CURVE SMOOTH",
"371 -9 OFFCURVE",
"446 31 OFFCURVE",
"468 186 CURVE SMOOTH",
"476 247 LINE",
"270 247 LINE SMOOTH",
"254 247 OFFCURVE",
"251 244 OFFCURVE",
"249 228 CURVE",
"450 228 LINE",
"449 221 OFFCURVE",
"448 205 OFFCURVE",
"444 184 CURVE SMOOTH",
"418 41 OFFCURVE",
"366 10 OFFCURVE",
"238 10 CURVE SMOOTH",
"88 10 OFFCURVE",
"55 68 OFFCURVE",
"78 230 CURVE SMOOTH",
"101 394 OFFCURVE",
"157 448 OFFCURVE",
"311 448 CURVE SMOOTH",
"364 448 OFFCURVE",
"456 438 OFFCURVE",
"482 423 CURVE",
"483 432 LINE SMOOTH",
"484 441 OFFCURVE",
"479 449 OFFCURVE",
"450 454 CURVE SMOOTH",
"406 463 OFFCURVE",
"361 466 OFFCURVE",
"315 466 CURVE SMOOTH",
"159 466 OFFCURVE",
"80 422 OFFCURVE",
"53 230 CURVE SMOOTH",
"27 40 OFFCURVE",
"83 -8 OFFCURVE",
"230 -9 CURVE SMOOTH"
);
}
);
width = 511;
}
);
leftKerningGroup = O;
leftMetricsKey = O;
note = G;
rightKerningGroup = G;
unicode = 0047;
},
{
color = 7;
glyphname = H;
lastChange = "2021-09-28 15:45:37 +0000";
layers = (
{
anchors = (
{
name = bottom;
position = "{328, 0}";
},
{
name = center;
position = "{372, 364}";
},
{
name = top;
position = "{393, 460}";
},
{
name = topleft;
position = "{61, 460}";
}
);
background = {
anchors = (
{
name = bottom;
position = "{328, 0}";
},
{
name = center;
position = "{360, 230}";
},
{
name = top;
position = "{393, 460}";
},
{
name = topleft;
position = "{61, 460}";
}
);
paths = (
{
closed = 1;
nodes = (
"240 0 LINE",
"265 182 LINE",
"433 182 LINE",
"408 0 LINE",
"570 0 LINE SMOOTH",
"642 0 OFFCURVE",
"641 36 OFFCURVE",
"646 77 CURVE SMOOTH",
"700 460 LINE",
"472 460 LINE",
"449 297 LINE",
"281 297 LINE",
"304 460 LINE",
"150 460 LINE SMOOTH",
"76 460 OFFCURVE",
"73 435 OFFCURVE",
"67 395 CURVE SMOOTH",
"12 0 LINE"
);
}
);
};
layerId = "C7668D88-AC50-4107-9C4B-DB5D26A8FA6C";
paths = (
{
closed = 1;
nodes = (
"240 0 LINE",
"265 182 LINE",
"433 182 LINE",
"408 0 LINE",
"570 0 LINE SMOOTH",
"642 0 OFFCURVE",
"640 36 OFFCURVE",
"646 77 CURVE SMOOTH",
"700 460 LINE",
"472 460 LINE",
"449 297 LINE",
"281 297 LINE",
"304 460 LINE",
"150 460 LINE SMOOTH",
"76 460 OFFCURVE",
"73 435 OFFCURVE",
"67 395 CURVE SMOOTH",
"12 0 LINE"
);
}
);
width = 703;
},
{
anchors = (
{
name = bottom;
position = "{275, 0}";
},
{
name = center;
position = "{317, 351}";
},
{
name = top;
position = "{336, 460}";
},
{
name = topleft;
position = "{109, 460}";
}
);
layerId = "9C644782-EE44-4C4B-9808-39A279382CB0";
paths = (
{
closed = 1;
nodes = (
"96 0 LINE",
"128 228 LINE",
"478 228 LINE",
"446 0 LINE",
"457 0 LINE SMOOTH",
"469 0 OFFCURVE",
"471 4 OFFCURVE",
"473 19 CURVE SMOOTH",
"535 460 LINE",
"510 460 LINE",
"480 247 LINE",
"130 247 LINE",
"160 460 LINE",
"149 460 LINE SMOOTH",
"138 460 OFFCURVE",
"136 457 OFFCURVE",
"134 441 CURVE SMOOTH",
"72 0 LINE"
);
}
);
width = 598;
}
);
leftKerningGroup = H;
note = H;
rightKerningGroup = H;
unicode = 0048;
},
{
color = 7;
glyphname = I;
lastChange = "2021-09-28 15:54:02 +0000";
layers = (
{
anchors = (
{
name = bottom;
position = "{126, 0}";
},
{
name = ogonek;
position = "{194, 10}";
},
{
name = top;
position = "{198, 460}";
},
{
name = topleft;
position = "{61, 460}";
}
);
background = {
anchors = (
{
name = bottom;
position = "{126, 0}";
},
{
name = ogonek;
position = "{194, 10}";
},
{
name = top;
position = "{198, 460}";
},
{
name = topleft;
position = "{61, 460}";
}
);
paths = (
{
closed = 1;
nodes = (
"240 0 LINE",
"304 460 LINE",
"150 460 LINE",
"77 460 OFFCURVE",
"73 436 OFFCURVE",
"67 394 CURVE SMOOTH",
"49 263 OFFCURVE",
"30 131 OFFCURVE",
"12 0 CURVE"
);
}
);
};
layerId = "C7668D88-AC50-4107-9C4B-DB5D26A8FA6C";
paths = (
{
closed = 1;
nodes = (
"240 0 LINE",
"304 460 LINE",
"150 460 LINE",
"77 460 OFFCURVE",
"73 436 OFFCURVE",
"67 394 CURVE SMOOTH",
"49 263 OFFCURVE",
"30 131 OFFCURVE",
"12 0 CURVE"
);
}
);
width = 308;
},
{
anchors = (
{
name = bottom;
position = "{84, 0}";
},
{
name = ogonek;
position = "{95, 7}";
},
{
name = top;
position = "{151, 460}";
},
{
name = topleft;
position = "{74, 460}";
}
);
layerId = "9C644782-EE44-4C4B-9808-39A279382CB0";
paths = (
{
closed = 1;
nodes = (
"96 0 LINE",
"160 460 LINE",
"147 460 LINE SMOOTH",
"136 460 OFFCURVE",
"135 453 OFFCURVE",
"134 440 CURVE SMOOTH",
"113 293 OFFCURVE",
"92 147 OFFCURVE",
"72 0 CURVE"
);
}
);
width = 224;
}
);
leftKerningGroup = I;
leftMetricsKey = H;
note = I;
rightKerningGroup = I;
rightMetricsKey = H;
unicode = 0049;
},
{
color = 7;
glyphname = J;
lastChange = "2021-09-28 15:54:02 +0000";
layers = (
{
anchors = (
{
name = bottom;
position = "{174, 0}";
},
{
name = top;
position = "{280, 460}";
}
);
background = {
anchors = (
{
name = bottom;
position = "{174, 0}";
},
{
name = top;
position = "{280, 460}";
}
);
paths = (
{
closed = 1;
nodes = (
"386 379 LINE SMOOTH",
"393 433 OFFCURVE",
"402 460 OFFCURVE",
"324 460 CURVE SMOOTH",
"170 460 LINE",
"127 157 LINE SMOOTH",
"124 137 OFFCURVE",
"115 118 OFFCURVE",
"91 118 CURVE SMOOTH",
"68 118 OFFCURVE",
"28 129 OFFCURVE",
"11 136 CURVE",
"-7 6 LINE",
"68 -1 OFFCURVE",
"104 -5 OFFCURVE",
"184 -1 CURVE SMOOTH",
"243 2 OFFCURVE",
"319 15 OFFCURVE",
"343 90 CURVE SMOOTH",
"348 105 OFFCURVE",
"351 126 OFFCURVE",
"354 148 CURVE SMOOTH"
);
}
);
};
layerId = "C7668D88-AC50-4107-9C4B-DB5D26A8FA6C";
paths = (
{
closed = 1;
nodes = (
"386 379 LINE SMOOTH",
"393 433 OFFCURVE",
"402 460 OFFCURVE",
"324 460 CURVE SMOOTH",
"170 460 LINE",
"127 157 LINE SMOOTH",
"124 137 OFFCURVE",
"115 118 OFFCURVE",
"91 118 CURVE SMOOTH",
"68 118 OFFCURVE",
"28 129 OFFCURVE",
"11 136 CURVE",
"-7 6 LINE",
"68 -1 OFFCURVE",
"104 -5 OFFCURVE",
"184 -1 CURVE SMOOTH",
"243 2 OFFCURVE",
"319 15 OFFCURVE",
"343 90 CURVE SMOOTH",
"348 105 OFFCURVE",
"351 126 OFFCURVE",
"354 148 CURVE SMOOTH"
);
}
);
width = 396;
},
{
anchors = (
{
name = bottom;
position = "{94, 0}";
},
{
name = top;
position = "{188, 460}";
}
);
layerId = "9C644782-EE44-4C4B-9808-39A279382CB0";
paths = (
{
closed = 1;
nodes = (
"199 444 LINE SMOOTH",
"200 454 OFFCURVE",
"201 460 OFFCURVE",
"191 460 CURVE SMOOTH",
"178 460 LINE",
"123 71 LINE SMOOTH",
"117 28 OFFCURVE",
"97 15 OFFCURVE",
"54 15 CURVE SMOOTH",
"44 15 OFFCURVE",
"21 18 OFFCURVE",
"15 21 CURVE",
"12 2 LINE",
"31 -3 OFFCURVE",
"57 -3 OFFCURVE",
"68 -3 CURVE SMOOTH",
"113 -3 OFFCURVE",
"134 25 OFFCURVE",
"142 50 CURVE SMOOTH",
"149 74 OFFCURVE",
"154 122 OFFCURVE",
"158 150 CURVE SMOOTH"
);
}
);
width = 260;
}
);
leftKerningGroup = J;
note = J;
rightKerningGroup = J;
rightMetricsKey = "=H-5";
unicode = 004A;
},
{
color = 7;
glyphname = K;
lastChange = "2021-09-28 15:54:02 +0000";
layers = (
{
anchors = (
{
name = bottom;
position = "{328, 0}";
},
{
name = top;
position = "{393, 460}";
}
);
background = {
anchors = (
{
name = bottom;
position = "{328, 0}";
},
{
name = top;
position = "{393, 460}";
}
);
hints = (
{
horizontal = 1;
place = "{0, 21}";
target = up;
type = BottomGhost;
},
{
horizontal = 1;
place = "{446, 22}";
type = Stem;
},
{
place = "{40, 227}";
type = Stem;
}
);
paths = (
{
closed = 1;
nodes = (
"669 417 LINE SMOOTH",
"681 424 OFFCURVE",
"724 453 OFFCURVE",
"729 456 CURVE",
"725 459 OFFCURVE",
"516 482 OFFCURVE",
"451 439 CURVE SMOOTH",
"412 413 OFFCURVE",
"337 364 OFFCURVE",
"325 356 CURVE SMOOTH",
"309 346 OFFCURVE",
"297 338 OFFCURVE",
"293 335 CURVE",
"293 335 OFFCURVE",
"289 333 OFFCURVE",
"289 333 CURVE",
"295 371 OFFCURVE",
"302 422 OFFCURVE",
"307 460 CURVE",
"256 460 OFFCURVE",
"204 460 OFFCURVE",
"153 460 CURVE SMOOTH",
"81 460 OFFCURVE",
"77 436 OFFCURVE",
"71 393 CURVE SMOOTH",
"16 0 LINE",
"92 0 OFFCURVE",
"167 0 OFFCURVE",
"243 0 CURVE",
"248 37 OFFCURVE",
"255 85 OFFCURVE",
"260 122 CURVE",
"262 121 OFFCURVE",
"265 117 OFFCURVE",
"270 112 CURVE",
"283 100 OFFCURVE",
"286 96 OFFCURVE",
"302 81 CURVE SMOOTH",
"420 -31 OFFCURVE",
"468 -18 OFFCURVE",
"518 -18 CURVE SMOOTH",
"619 -18 OFFCURVE",
"679 50 OFFCURVE",
"679 50 CURVE",
"602 126 OFFCURVE",
"527 202 OFFCURVE",
"451 278 CURVE"
);
},
{
closed = 1;
nodes = (
"669 417 LINE SMOOTH",
"681 424 OFFCURVE",
"724 453 OFFCURVE",
"729 456 CURVE",
"725 459 OFFCURVE",
"516 482 OFFCURVE",
"451 439 CURVE SMOOTH",
"412 413 OFFCURVE",
"337 364 OFFCURVE",
"325 356 CURVE SMOOTH",
"309 346 OFFCURVE",
"297 338 OFFCURVE",
"293 335 CURVE",
"293 335 OFFCURVE",
"289 333 OFFCURVE",
"289 333 CURVE",
"295 371 OFFCURVE",
"302 422 OFFCURVE",
"307 460 CURVE",
"256 460 OFFCURVE",
"204 460 OFFCURVE",
"153 460 CURVE SMOOTH",
"81 460 OFFCURVE",
"77 436 OFFCURVE",
"71 393 CURVE SMOOTH",
"16 0 LINE",
"92 0 OFFCURVE",
"167 0 OFFCURVE",
"243 0 CURVE",
"248 37 OFFCURVE",
"255 85 OFFCURVE",
"260 122 CURVE",
"262 121 OFFCURVE",
"265 117 OFFCURVE",
"270 112 CURVE",
"283 100 OFFCURVE",
"286 96 OFFCURVE",
"302 81 CURVE SMOOTH",
"420 -31 OFFCURVE",
"468 -18 OFFCURVE",
"518 -18 CURVE SMOOTH",
"619 -18 OFFCURVE",
"679 50 OFFCURVE",
"679 50 CURVE",
"602 126 OFFCURVE",
"527 202 OFFCURVE",
"451 278 CURVE"
);
}
);
};
layerId = "C7668D88-AC50-4107-9C4B-DB5D26A8FA6C";
paths = (
{
closed = 1;
nodes = (
"599 -18 OFFCURVE",
"658 30 OFFCURVE",
"675 50 CURVE",
"567 131 OFFCURVE",
"464 216 OFFCURVE",
"382 293 CURVE",
"372 225 LINE",
"453 289 OFFCURVE",
"571 360 OFFCURVE",
"664 417 CURVE SMOOTH",
"675 424 OFFCURVE",
"713 453 OFFCURVE",
"718 456 CURVE",
"676 462 OFFCURVE",
"649 467 OFFCURVE",
"597 467 CURVE SMOOTH",
"525 467 OFFCURVE",
"477 458 OFFCURVE",
"432 428 CURVE SMOOTH",
"407 413 OFFCURVE",
"340 365 OFFCURVE",
"327 354 CURVE SMOOTH",
"313 342 OFFCURVE",
"304 335 OFFCURVE",
"296 329 CURVE SMOOTH",
"284 320 LINE",
"290 358 OFFCURVE",
"298 420 OFFCURVE",
"304 460 CURVE",
"253 460 OFFCURVE",
"201 460 OFFCURVE",
"150 460 CURVE SMOOTH",
"78 460 OFFCURVE",
"74 436 OFFCURVE",
"68 393 CURVE SMOOTH",
"12 0 LINE",
"239 0 LINE",
"259 137 LINE",
"267 127 LINE SMOOTH",
"280 112 OFFCURVE",
"288 103 OFFCURVE",
"304 86 CURVE SMOOTH",
"334 53 OFFCURVE",
"362 34 OFFCURVE",
"387 15 CURVE SMOOTH",
"417 -9 OFFCURVE",
"463 -18 OFFCURVE",
"515 -18 CURVE SMOOTH"
);
}
);
width = 701;
},
{
anchors = (
{
name = bottom;
position = "{232, 0}";
},
{
name = top;
position = "{288, 460}";
}
);
layerId = "9C644782-EE44-4C4B-9808-39A279382CB0";
paths = (
{
closed = 1;
nodes = (
"407 -1 OFFCURVE",
"412 0 OFFCURVE",
"415 1 CURVE",
"345 94 OFFCURVE",
"258 228 OFFCURVE",
"241 240 CURVE",
"238 242 LINE",
"279 280 OFFCURVE",
"331 330 OFFCURVE",
"381 377 CURVE SMOOTH",
"411 405 OFFCURVE",
"459 453 OFFCURVE",
"464 456 CURVE",
"462 458 OFFCURVE",
"457 461 OFFCURVE",
"451 461 CURVE SMOOTH",
"445 461 OFFCURVE",
"439 459 OFFCURVE",
"432 452 CURVE SMOOTH",
"368 390 OFFCURVE",
"303 328 OFFCURVE",
"241 269 CURVE SMOOTH",
"227 255 OFFCURVE",
"221 249 OFFCURVE",
"198 249 CURVE SMOOTH",
"131 249 LINE",
"137 287 OFFCURVE",
"156 422 OFFCURVE",
"161 460 CURVE",
"156 460 OFFCURVE",
"153 460 OFFCURVE",
"146 460 CURVE SMOOTH",
"140 460 OFFCURVE",
"136 456 OFFCURVE",
"135 446 CURVE SMOOTH",
"73 0 LINE",
"97 0 LINE",
"129 229 LINE",
"196 229 LINE SMOOTH",
"222 228 OFFCURVE",
"227 224 OFFCURVE",
"238 209 CURVE SMOOTH",
"256 186 OFFCURVE",
"364 31 OFFCURVE",
"378 12 CURVE SMOOTH",
"387 2 OFFCURVE",
"393 -1 OFFCURVE",
"401 -1 CURVE SMOOTH"
);
}
);
width = 470;
}
);
leftKerningGroup = H;
leftMetricsKey = H;
note = K;
rightKerningGroup = K;
unicode = 004B;
},
{
color = 7;
glyphname = L;
lastChange = "2021-09-28 15:54:02 +0000";
layers = (
{
anchors = (
{
name = bottom;
position = "{258, 0}";
},
{
name = center;
position = "{309, 230}";
},
{
name = top;
position = "{214, 460}";
},
{
name = topright;
position = "{409, 460}";
}
);
background = {
anchors = (
{
name = bottom;
position = "{258, 0}";
},
{
name = center;
position = "{309, 230}";
},
{
name = top;
position = "{214, 460}";
},
{
name = topright;
position = "{409, 460}";
}
);
paths = (
{
closed = 1;
nodes = (
"151 460 LINE SMOOTH",
"76 460 OFFCURVE",
"74 437 OFFCURVE",
"67 390 CURVE SMOOTH",
"13 0 LINE",
"539 0 LINE",
"555 116 LINE",
"258 116 LINE",
"306 460 LINE"
);
}
);
};
layerId = "C7668D88-AC50-4107-9C4B-DB5D26A8FA6C";
paths = (
{
closed = 1;
nodes = (
"151 460 LINE SMOOTH",
"76 460 OFFCURVE",
"74 437 OFFCURVE",
"67 390 CURVE SMOOTH",
"13 0 LINE",
"539 0 LINE",
"555 116 LINE",
"258 116 LINE",
"306 460 LINE"
);
}
);
width = 576;
},
{
anchors = (
{
name = bottom;
position = "{239, 0}";
},
{
name = center;
position = "{259, 230}";
},
{
name = top;
position = "{150, 460}";
},
{
name = topright;
position = "{289, 460}";
}
);
layerId = "9C644782-EE44-4C4B-9808-39A279382CB0";
paths = (
{
closed = 1;
nodes = (
"147 460 LINE SMOOTH",
"136 460 OFFCURVE",
"136 453 OFFCURVE",
"134 440 CURVE SMOOTH",
"72 0 LINE",
"410 0 LINE",
"412 19 LINE",
"98 19 LINE",
"160 460 LINE"
);
}
);
width = 450;
}
);
leftKerningGroup = H;
leftMetricsKey = H;
note = L;
rightKerningGroup = L;
unicode = 004C;
},
{
color = 9;
glyphname = Lslash;
lastChange = "2021-09-24 03:41:24 +0000";
layers = (
{
background = {
components = (
{
name = L;
transform = "{1, 0, 0, 1, 29, 0}";
}
);
paths = (
{
closed = 1;
nodes = (
"-20 130 LINE",
"0 79 LINE",
"379 206 LINE",
"363 258 LINE"
);
}
);
};
components = (
{
name = L;
transform = "{1, 0, 0, 1, 29, 0}";
}
);
layerId = "C7668D88-AC50-4107-9C4B-DB5D26A8FA6C";
paths = (
{
closed = 1;
nodes = (
"-20 130 LINE",
"0 79 LINE",
"379 206 LINE",
"363 258 LINE"
);
}
);
width = 599;
},
{
components = (
{
alignment = -1;
name = L;
transform = "{1, 0, 0, 1, 29, 0}";
}
);
layerId = "9C644782-EE44-4C4B-9808-39A279382CB0";
paths = (
{
closed = 1;
nodes = (
"0 137 LINE",
"5 122 LINE",
"188 189 LINE",
"184 203 LINE"
);
}
);
width = 412;
}
);
note = Lslash;
unicode = 0141;
},
{
color = 7;
glyphname = M;
lastChange = "2021-09-28 15:54:02 +0000";
layers = (
{
background = {
paths = (
{
closed = 1;
nodes = (
"171 0 LINE",
"201 218 LINE",
"204 179 LINE",
"253 0 LINE",
"386 0 LINE",
"485 179 LINE",
"498 218 LINE",
"468 0 LINE",
"617 0 LINE SMOOTH",
"682 0 OFFCURVE",
"700 0 OFFCURVE",
"709 66 CURVE SMOOTH",
"755 393 LINE SMOOTH",
"762 446 OFFCURVE",
"753 460 OFFCURVE",
"689 460 CURVE SMOOTH",
"499 460 LINE",
"397 276 LINE",
"394 263 LINE",
"392 263 LINE",
"391 276 LINE",
"335 460 LINE",
"159 460 LINE SMOOTH",
"92 460 OFFCURVE",
"75 453 OFFCURVE",
"68 400 CURVE SMOOTH",
"12 0 LINE"
);
}
);
};
layerId = "C7668D88-AC50-4107-9C4B-DB5D26A8FA6C";
paths = (
{
closed = 1;
nodes = (
"171 0 LINE",
"201 218 LINE",
"204 179 LINE",
"253 0 LINE",
"386 0 LINE",
"485 179 LINE",
"498 218 LINE",
"468 0 LINE",
"617 0 LINE SMOOTH",
"682 0 OFFCURVE",
"700 0 OFFCURVE",
"709 66 CURVE SMOOTH",
"755 393 LINE SMOOTH",
"762 446 OFFCURVE",
"753 460 OFFCURVE",
"689 460 CURVE SMOOTH",
"499 460 LINE",
"397 276 LINE",
"394 263 LINE",
"392 263 LINE",
"391 276 LINE",
"335 460 LINE",
"159 460 LINE SMOOTH",
"92 460 OFFCURVE",
"75 453 OFFCURVE",
"68 400 CURVE SMOOTH",
"12 0 LINE"
);
}
);
width = 768;
},
{
layerId = "9C644782-EE44-4C4B-9808-39A279382CB0";
paths = (
{
closed = 1;
nodes = (
"92 0 LINE",
"150 421 LINE",
"152 416 LINE",
"283 0 LINE",
"307 0 LINE",
"560 425 LINE",
"565 431 LINE",
"504 0 LINE",
"517 0 LINE SMOOTH",
"527 0 OFFCURVE",
"529 5 OFFCURVE",
"531 19 CURVE SMOOTH",
"591 443 LINE SMOOTH",
"594 462 OFFCURVE",
"589 460 OFFCURVE",
"574 460 CURVE SMOOTH",
"560 460 LINE",
"305 33 LINE",
"302 28 LINE",
"300 25 LINE",
"299 30 LINE",
"164 460 LINE",
"151 460 LINE SMOOTH",
"135 460 OFFCURVE",
"136 458 OFFCURVE",
"132 428 CURVE SMOOTH",
"72 0 LINE"
);
}
);
width = 657;
}
);
leftKerningGroup = H;
leftMetricsKey = H;
note = M;
rightKerningGroup = H;
rightMetricsKey = H;
unicode = 004D;
},
{
color = 7;
glyphname = N;
lastChange = "2021-09-28 15:54:02 +0000";
layers = (
{
anchors = (
{
name = bottom;
position = "{330, 0}";
},
{
name = top;
position = "{395, 460}";
}
);
background = {
anchors = (
{
name = bottom;
position = "{330, 0}";
},
{
name = top;
position = "{395, 460}";
}
);
paths = (
{
closed = 1;
nodes = (
"174 0 LINE",
"213 279 LINE",
"214 240 LINE",
"349 0 LINE",
"547 0 LINE SMOOTH",
"612 0 OFFCURVE",
"635 5 OFFCURVE",
"643 56 CURVE SMOOTH",
"689 386 LINE SMOOTH",
"692 409 OFFCURVE",
"698 455 OFFCURVE",
"703 460 CURVE",
"538 460 LINE",
"501 191 LINE",
"499 230 LINE",
"371 460 LINE",
"152 460 LINE SMOOTH",
"86 460 OFFCURVE",
"74 446 OFFCURVE",
"67 393 CURVE SMOOTH",
"12 0 LINE"
);
}
);
};
layerId = "C7668D88-AC50-4107-9C4B-DB5D26A8FA6C";
paths = (
{
closed = 1;
nodes = (
"174 0 LINE",
"213 279 LINE",
"214 240 LINE",
"349 0 LINE",
"547 0 LINE SMOOTH",
"612 0 OFFCURVE",
"635 5 OFFCURVE",
"643 56 CURVE SMOOTH",
"689 386 LINE SMOOTH",
"692 409 OFFCURVE",
"698 455 OFFCURVE",
"703 460 CURVE",
"538 460 LINE",
"501 191 LINE",
"499 230 LINE",
"371 460 LINE",
"152 460 LINE SMOOTH",
"86 460 OFFCURVE",
"74 446 OFFCURVE",
"67 393 CURVE SMOOTH",
"12 0 LINE"
);
}
);
width = 706;
},
{
anchors = (
{
name = bottom;
position = "{275, 0}";
},
{
name = top;
position = "{340, 460}";
}
);
layerId = "9C644782-EE44-4C4B-9808-39A279382CB0";
paths = (
{
closed = 1;
nodes = (
"92 0 LINE",
"151 426 LINE",
"152 434 LINE",
"438 0 LINE",
"453 0 LINE SMOOTH",
"469 0 OFFCURVE",
"469 2 OFFCURVE",
"473 32 CURVE SMOOTH",
"529 437 LINE SMOOTH",
"530 446 OFFCURVE",
"533 457 OFFCURVE",
"535 460 CURVE",
"513 460 LINE",
"453 37 LINE",
"452 26 LINE",
"165 460 LINE",
"151 460 LINE SMOOTH",
"135 460 OFFCURVE",
"136 458 OFFCURVE",
"132 428 CURVE SMOOTH",
"72 0 LINE"
);
}
);
width = 598;
}
);
leftKerningGroup = H;
leftMetricsKey = H;
note = N;
rightKerningGroup = H;
rightMetricsKey = H;
unicode = 004E;
},
{
color = 9;
glyphname = Eng;
lastChange = "2021-09-24 03:41:24 +0000";
layers = (
{
background = {
paths = (
{
closed = 1;
nodes = (
"76 0 OFFCURVE",
"131 0 OFFCURVE",
"187 0 CURVE",
"199 83 OFFCURVE",
"211 167 OFFCURVE",
"222 250 CURVE",
"362 0 LINE",
"381 0 OFFCURVE",
"401 0 OFFCURVE",
"420 0 CURVE",
"418 -16 OFFCURVE",
"416 -31 OFFCURVE",
"414 -47 CURVE SMOOTH",
"411 -67 OFFCURVE",
"402 -86 OFFCURVE",
"378 -86 CURVE SMOOTH",
"355 -86 OFFCURVE",
"315 -75 OFFCURVE",
"298 -68 CURVE",
"292 -111 OFFCURVE",
"285 -155 OFFCURVE",
"279 -198 CURVE",
"354 -205 OFFCURVE",
"391 -209 OFFCURVE",
"470 -205 CURVE SMOOTH",
"530 -202 OFFCURVE",
"606 -189 OFFCURVE",
"629 -114 CURVE SMOOTH",
"634 -99 OFFCURVE",
"637 -78 OFFCURVE",
"640 -56 CURVE SMOOTH",
"661 91 OFFCURVE",
"682 239 OFFCURVE",
"702 386 CURVE SMOOTH",
"706 409 OFFCURVE",
"711 455 OFFCURVE",
"717 460 CURVE",
"662 460 OFFCURVE",
"607 460 OFFCURVE",
"552 460 CURVE",
"541 380 OFFCURVE",
"529 300 OFFCURVE",
"518 220 CURVE",
"473 300 OFFCURVE",
"430 380 OFFCURVE",
"385 460 CURVE",
"316 460 OFFCURVE",
"248 460 OFFCURVE",
"179 460 CURVE SMOOTH",
"113 460 OFFCURVE",
"88 446 OFFCURVE",
"80 393 CURVE SMOOTH",
"65 280 OFFCURVE",
"49 166 OFFCURVE",
"33 53 CURVE SMOOTH",
"29 28 OFFCURVE",
"23 4 OFFCURVE",
"20 0 CURVE"
);
}
);
};
layerId = "C7668D88-AC50-4107-9C4B-DB5D26A8FA6C";
paths = (
{
closed = 1;
nodes = (
"76 0 OFFCURVE",
"131 0 OFFCURVE",
"187 0 CURVE",
"199 83 OFFCURVE",
"211 167 OFFCURVE",
"222 250 CURVE",
"362 0 LINE",
"381 0 OFFCURVE",
"401 0 OFFCURVE",
"420 0 CURVE",
"418 -16 OFFCURVE",
"416 -31 OFFCURVE",
"414 -47 CURVE SMOOTH",
"411 -67 OFFCURVE",
"402 -86 OFFCURVE",
"378 -86 CURVE SMOOTH",
"355 -86 OFFCURVE",
"315 -75 OFFCURVE",
"298 -68 CURVE",
"292 -111 OFFCURVE",
"285 -155 OFFCURVE",
"279 -198 CURVE",
"354 -205 OFFCURVE",
"391 -209 OFFCURVE",
"470 -205 CURVE SMOOTH",
"530 -202 OFFCURVE",
"606 -189 OFFCURVE",
"629 -114 CURVE SMOOTH",
"634 -99 OFFCURVE",
"637 -78 OFFCURVE",
"640 -56 CURVE SMOOTH",
"661 91 OFFCURVE",
"682 239 OFFCURVE",
"702 386 CURVE SMOOTH",
"706 409 OFFCURVE",
"711 455 OFFCURVE",
"717 460 CURVE",
"662 460 OFFCURVE",
"607 460 OFFCURVE",
"552 460 CURVE",
"541 380 OFFCURVE",
"529 300 OFFCURVE",
"518 220 CURVE",
"473 300 OFFCURVE",
"430 380 OFFCURVE",
"385 460 CURVE",
"316 460 OFFCURVE",
"248 460 OFFCURVE",
"179 460 CURVE SMOOTH",
"113 460 OFFCURVE",
"88 446 OFFCURVE",
"80 393 CURVE SMOOTH",
"65 280 OFFCURVE",
"49 166 OFFCURVE",
"33 53 CURVE SMOOTH",
"29 28 OFFCURVE",
"23 4 OFFCURVE",
"20 0 CURVE"
);
}
);
width = 714;
},
{
layerId = "9C644782-EE44-4C4B-9808-39A279382CB0";
paths = (
{
closed = 1;
nodes = (
"40 0 OFFCURVE",
"48 0 OFFCURVE",
"55 0 CURVE",
"75 145 OFFCURVE",
"95 289 OFFCURVE",
"115 434 CURVE",
"404 -6 LINE",
"404 -6 OFFCURVE",
"406 -6 OFFCURVE",
"406 -6 CURVE",
"401 -41 OFFCURVE",
"396 -77 OFFCURVE",
"391 -113 CURVE SMOOTH",
"386 -155 OFFCURVE",
"366 -168 OFFCURVE",
"322 -168 CURVE SMOOTH",
"312 -168 OFFCURVE",
"290 -165 OFFCURVE",
"283 -162 CURVE",
"282 -169 OFFCURVE",
"281 -175 OFFCURVE",
"280 -181 CURVE",
"300 -186 OFFCURVE",
"326 -186 OFFCURVE",
"337 -186 CURVE SMOOTH",
"382 -186 OFFCURVE",
"403 -159 OFFCURVE",
"411 -134 CURVE SMOOTH",
"418 -110 OFFCURVE",
"423 -61 OFFCURVE",
"427 -33 CURVE SMOOTH",
"449 123 OFFCURVE",
"471 280 OFFCURVE",
"493 437 CURVE SMOOTH",
"495 446 OFFCURVE",
"496 457 OFFCURVE",
"498 460 CURVE",
"491 460 OFFCURVE",
"483 460 OFFCURVE",
"476 460 CURVE",
"456 315 OFFCURVE",
"435 171 OFFCURVE",
"415 26 CURVE",
"319 171 OFFCURVE",
"224 315 OFFCURVE",
"129 460 CURVE",
"124 460 OFFCURVE",
"119 460 OFFCURVE",
"114 460 CURVE SMOOTH",
"98 460 OFFCURVE",
"99 458 OFFCURVE",
"95 428 CURVE SMOOTH",
"76 293 OFFCURVE",
"57 158 OFFCURVE",
"38 23 CURVE SMOOTH",
"37 13 OFFCURVE",
"35 3 OFFCURVE",
"33 0 CURVE"
);
}
);
width = 504;
}
);
leftKerningGroup = E;
note = Eng;
rightKerningGroup = H;
unicode = 014A;
},
{
color = 7;
glyphname = O;
lastChange = "2021-09-24 03:41:24 +0000";
layers = (
{
anchors = (
{
name = bottom;
position = "{308, 0}";
},
{
name = center;
position = "{361, 230}";
},
{
name = ogonek;
position = "{374, 10}";
},
{
name = top;
position = "{394, 460}";
},
{
name = topleft;
position = "{65, 460}";
},
{
name = topright;
position = "{517, 460}";
}
);
background = {
anchors = (
{
name = bottom;
position = "{308, 0}";
},
{
name = center;
position = "{361, 230}";
},
{
name = ogonek;
position = "{374, 10}";
},
{
name = top;
position = "{394, 460}";
},
{
name = topleft;
position = "{65, 460}";
},
{
name = topright;
position = "{517, 460}";
}
);
paths = (
{
closed = 1;
nodes = (
"-2 15 OFFCURVE",
"135 -7 OFFCURVE",
"316 -7 CURVE SMOOTH",
"494 -7 OFFCURVE",
"654 9 OFFCURVE",
"685 230 CURVE SMOOTH",
"715 446 OFFCURVE",
"575 467 OFFCURVE",
"397 467 CURVE SMOOTH",
"220 467 OFFCURVE",
"59 451 OFFCURVE",
"28 230 CURVE SMOOTH"
);
},
{
closed = 1;
nodes = (
"445 120 OFFCURVE",
"402 105 OFFCURVE",
"339 105 CURVE SMOOTH",
"273 105 OFFCURVE",
"237 120 OFFCURVE",
"252 228 CURVE SMOOTH",
"267 336 OFFCURVE",
"308 351 OFFCURVE",
"374 351 CURVE SMOOTH",
"437 351 OFFCURVE",
"475 336 OFFCURVE",
"460 228 CURVE SMOOTH"
);
},
{
closed = 1;
nodes = (
"-2 15 OFFCURVE",
"135 -7 OFFCURVE",
"316 -7 CURVE SMOOTH",
"494 -7 OFFCURVE",
"654 9 OFFCURVE",
"685 230 CURVE SMOOTH",
"715 446 OFFCURVE",
"575 467 OFFCURVE",
"397 467 CURVE SMOOTH",
"220 467 OFFCURVE",
"59 451 OFFCURVE",
"28 230 CURVE SMOOTH"
);
},
{
closed = 1;
nodes = (
"445 120 OFFCURVE",
"402 105 OFFCURVE",
"339 105 CURVE SMOOTH",
"273 105 OFFCURVE",
"237 120 OFFCURVE",
"252 228 CURVE SMOOTH",
"267 336 OFFCURVE",
"308 351 OFFCURVE",
"374 351 CURVE SMOOTH",
"437 351 OFFCURVE",
"475 336 OFFCURVE",
"460 228 CURVE SMOOTH"
);
}
);
};
layerId = "C7668D88-AC50-4107-9C4B-DB5D26A8FA6C";
paths = (
{
closed = 1;
nodes = (
"570 -7 OFFCURVE",
"656 55 OFFCURVE",
"681 230 CURVE SMOOTH",
"706 405 OFFCURVE",
"636 467 OFFCURVE",
"386 467 CURVE SMOOTH",
"136 467 OFFCURVE",
"49 405 OFFCURVE",
"24 230 CURVE SMOOTH",
"-1 55 OFFCURVE",
"70 -7 OFFCURVE",
"320 -7 CURVE SMOOTH"
);
},
{
closed = 1;
nodes = (
"264 109 OFFCURVE",
"245 138 OFFCURVE",
"258 230 CURVE SMOOTH",
"271 322 OFFCURVE",
"298 351 OFFCURVE",
"370 351 CURVE SMOOTH",
"442 351 OFFCURVE",
"460 322 OFFCURVE",
"447 230 CURVE SMOOTH",
"434 138 OFFCURVE",
"408 109 OFFCURVE",
"336 109 CURVE SMOOTH"
);
}
);
width = 697;
},
{
anchors = (
{
name = bottom;
position = "{243, 0}";
},
{
name = center;
position = "{286, 230}";
},
{
name = ogonek;
position = "{252, -3}";
},
{
name = top;
position = "{319, 460}";
},
{
name = topleft;
position = "{70, 460}";
},
{
name = topright;
position = "{410, 460}";
}
);
layerId = "9C644782-EE44-4C4B-9808-39A279382CB0";
paths = (
{
closed = 1;
nodes = (
"367 -7 OFFCURVE",
"479 10 OFFCURVE",
"510 231 CURVE SMOOTH",
"540 446 OFFCURVE",
"446 469 OFFCURVE",
"320 469 CURVE SMOOTH",
"196 469 OFFCURVE",
"84 452 OFFCURVE",
"53 231 CURVE SMOOTH",
"23 16 OFFCURVE",
"117 -7 OFFCURVE",
"243 -7 CURVE SMOOTH"
);
},
{
closed = 1;
nodes = (
"123 11 OFFCURVE",
"51 37 OFFCURVE",
"79 230 CURVE SMOOTH",
"106 424 OFFCURVE",
"184 451 OFFCURVE",
"311 451 CURVE SMOOTH",
"439 451 OFFCURVE",
"511 424 OFFCURVE",
"484 230 CURVE SMOOTH",
"457 37 OFFCURVE",
"378 11 OFFCURVE",
"250 11 CURVE SMOOTH"
);
}
);
width = 555;
}
);
leftKerningGroup = O;
note = O;
rightKerningGroup = O;
unicode = 004F;
},
{
color = 7;
glyphname = Oslash;
lastChange = "2021-09-24 03:41:24 +0000";
layers = (
{
anchors = (
{
name = bottom;
position = "{321, 0}";
},
{
name = top;
position = "{386, 460}";
}
);
background = {
anchors = (
{
name = bottom;
position = "{321, 0}";
},
{
name = top;
position = "{386, 460}";
}
);
paths = (
{
closed = 1;
nodes = (
"-9 15 OFFCURVE",
"128 -7 OFFCURVE",
"309 -7 CURVE SMOOTH",
"487 -7 OFFCURVE",
"647 9 OFFCURVE",
"678 230 CURVE SMOOTH",
"709 446 OFFCURVE",
"569 467 OFFCURVE",
"391 467 CURVE SMOOTH",
"214 467 OFFCURVE",
"53 451 OFFCURVE",
"21 230 CURVE SMOOTH"
);
},
{
closed = 1;
nodes = (
"438 120 OFFCURVE",
"396 105 OFFCURVE",
"333 105 CURVE SMOOTH",
"267 105 OFFCURVE",
"230 120 OFFCURVE",
"245 228 CURVE SMOOTH",
"260 336 OFFCURVE",
"301 351 OFFCURVE",
"367 351 CURVE SMOOTH",
"430 351 OFFCURVE",
"468 336 OFFCURVE",
"453 228 CURVE SMOOTH"
);
},
{
closed = 1;
nodes = (
"210 -86 LINE",
"532 525 LINE",
"474 525 LINE",
"153 -86 LINE"
);
}
);
};
layerId = "C7668D88-AC50-4107-9C4B-DB5D26A8FA6C";
paths = (
{
closed = 1;
nodes = (
"-9 15 OFFCURVE",
"128 -7 OFFCURVE",
"309 -7 CURVE SMOOTH",
"487 -7 OFFCURVE",
"647 9 OFFCURVE",
"678 230 CURVE SMOOTH",
"709 446 OFFCURVE",
"569 467 OFFCURVE",
"391 467 CURVE SMOOTH",
"214 467 OFFCURVE",
"53 451 OFFCURVE",
"21 230 CURVE SMOOTH"
);
},
{
closed = 1;
nodes = (
"438 120 OFFCURVE",
"396 105 OFFCURVE",
"333 105 CURVE SMOOTH",
"267 105 OFFCURVE",
"230 120 OFFCURVE",
"245 228 CURVE SMOOTH",
"260 336 OFFCURVE",
"301 351 OFFCURVE",
"367 351 CURVE SMOOTH",
"430 351 OFFCURVE",
"468 336 OFFCURVE",
"453 228 CURVE SMOOTH"
);
},
{
closed = 1;
nodes = (
"210 -86 LINE",
"532 525 LINE",
"474 525 LINE",
"153 -86 LINE"
);
}
);
width = 697;
},
{
anchors = (
{
name = bottom;
position = "{241, 0}";
},
{
name = top;
position = "{306, 460}";
}
);
layerId = "9C644782-EE44-4C4B-9808-39A279382CB0";
paths = (
{
closed = 1;
nodes = (
"12 15 OFFCURVE",
"106 -7 OFFCURVE",
"231 -7 CURVE SMOOTH",
"354 -7 OFFCURVE",
"467 9 OFFCURVE",
"498 231 CURVE SMOOTH",
"529 447 OFFCURVE",
"434 469 OFFCURVE",
"310 469 CURVE SMOOTH",
"187 469 OFFCURVE",
"74 453 OFFCURVE",
"42 231 CURVE SMOOTH"
);
},
{
closed = 1;
nodes = (
"446 37 OFFCURVE",
"366 11 OFFCURVE",
"238 11 CURVE SMOOTH",
"111 11 OFFCURVE",
"40 37 OFFCURVE",
"67 230 CURVE SMOOTH",
"95 424 OFFCURVE",
"174 451 OFFCURVE",
"300 451 CURVE SMOOTH",
"428 451 OFFCURVE",
"500 424 OFFCURVE",
"473 230 CURVE SMOOTH"
);
},
{
closed = 1;
nodes = (
"95 -82 LINE",
"416 525 LINE",
"397 525 LINE",
"78 -82 LINE"
);
}
);
width = 537;
}
);
leftKerningGroup = C;
note = Oslash;
unicode = 00D8;
},
{
color = 7;
glyphname = P;
lastChange = "2021-09-28 15:54:02 +0000";
layers = (
{
background = {
paths = (
{
closed = 1;
nodes = (
"235 0 LINE",
"250 110 OFFCURVE",
"265 219 OFFCURVE",
"281 330 CURVE SMOOTH",
"282 334 OFFCURVE",
"289 344 OFFCURVE",
"299 344 CURVE",
"343 344 OFFCURVE",
"370 344 OFFCURVE",
"414 344 CURVE SMOOTH",
"439 344 OFFCURVE",
"447 331 OFFCURVE",
"442 296 CURVE SMOOTH",
"437 259 OFFCURVE",
"422 239 OFFCURVE",
"399 239 CURVE SMOOTH",
"349 239 OFFCURVE",
"300 239 OFFCURVE",
"250 239 CURVE",
"217 239 OFFCURVE",
"222 229 OFFCURVE",
"208 128 CURVE",
"295 127 OFFCURVE",
"396 127 OFFCURVE",
"482 126 CURVE SMOOTH",
"580 125 OFFCURVE",
"653 169 OFFCURVE",
"672 303 CURVE SMOOTH",
"690 428 OFFCURVE",
"609 460 OFFCURVE",
"512 460 CURVE SMOOTH",
"390 460 OFFCURVE",
"268 460 OFFCURVE",
"146 460 CURVE SMOOTH",
"80 460 OFFCURVE",
"67 432 OFFCURVE",
"60 376 CURVE SMOOTH",
"42 251 OFFCURVE",
"25 125 OFFCURVE",
"8 0 CURVE"
);
}
);
};
layerId = "C7668D88-AC50-4107-9C4B-DB5D26A8FA6C";
paths = (
{
closed = 1;
nodes = (
"235 0 LINE",
"250 110 OFFCURVE",
"265 219 OFFCURVE",
"281 330 CURVE SMOOTH",
"282 334 OFFCURVE",
"289 344 OFFCURVE",
"299 344 CURVE",
"343 344 OFFCURVE",
"370 344 OFFCURVE",
"414 344 CURVE SMOOTH",
"439 344 OFFCURVE",
"447 331 OFFCURVE",
"442 296 CURVE SMOOTH",
"437 259 OFFCURVE",
"422 239 OFFCURVE",
"399 239 CURVE SMOOTH",
"349 239 OFFCURVE",
"300 239 OFFCURVE",
"250 239 CURVE",
"217 239 OFFCURVE",
"222 229 OFFCURVE",
"208 128 CURVE",
"295 127 OFFCURVE",
"396 127 OFFCURVE",
"482 126 CURVE SMOOTH",
"580 125 OFFCURVE",
"653 169 OFFCURVE",
"672 303 CURVE SMOOTH",
"690 428 OFFCURVE",
"609 460 OFFCURVE",
"512 460 CURVE SMOOTH",
"390 460 OFFCURVE",
"268 460 OFFCURVE",
"146 460 CURVE SMOOTH",
"80 460 OFFCURVE",
"67 432 OFFCURVE",
"60 376 CURVE SMOOTH",
"42 251 OFFCURVE",
"25 125 OFFCURVE",
"8 0 CURVE"
);
}
);
width = 679;
},
{
layerId = "9C644782-EE44-4C4B-9808-39A279382CB0";
paths = (
{
closed = 1;
nodes = (
"91 0 LINE",
"110 138 OFFCURVE",
"129 276 OFFCURVE",
"149 414 CURVE SMOOTH",
"153 439 OFFCURVE",
"174 441 OFFCURVE",
"180 441 CURVE SMOOTH",
"225 443 OFFCURVE",
"336 447 OFFCURVE",
"406 439 CURVE SMOOTH",
"462 433 OFFCURVE",
"481 398 OFFCURVE",
"472 339 CURVE SMOOTH",
"460 242 OFFCURVE",
"402 219 OFFCURVE",
"345 219 CURVE SMOOTH",
"293 219 OFFCURVE",
"202 219 OFFCURVE",
"178 219 CURVE SMOOTH",
"164 219 OFFCURVE",
"163 209 OFFCURVE",
"162 200 CURVE",
"224 200 OFFCURVE",
"284 200 OFFCURVE",
"346 200 CURVE",
"429 200 OFFCURVE",
"485 245 OFFCURVE",
"498 336 CURVE SMOOTH",
"508 410 OFFCURVE",
"484 453 OFFCURVE",
"407 459 CURVE SMOOTH",
"353 463 OFFCURVE",
"240 462 OFFCURVE",
"178 460 CURVE SMOOTH",
"148 459 OFFCURVE",
"130 453 OFFCURVE",
"125 413 CURVE SMOOTH",
"105 275 OFFCURVE",
"86 138 OFFCURVE",
"67 0 CURVE"
);
}
);
width = 542;
}
);
leftKerningGroup = H;
leftMetricsKey = B;
note = P;
rightKerningGroup = P;
unicode = 0050;
},
{
glyphname = Thorn;
lastChange = "2021-09-24 03:41:24 +0000";
layers = (
{
background = {
paths = (
{
closed = 1;
nodes = (
"-8 0 LINE",
"176 0 LINE",
"191 108 LINE",
"409 108 LINE SMOOTH",
"563 108 OFFCURVE",
"608 165 OFFCURVE",
"622 264 CURVE SMOOTH",
"637 369 OFFCURVE",
"625 417 OFFCURVE",
"467 417 CURVE SMOOTH",
"234 417 LINE",
"245 495 LINE",
"134 495 LINE SMOOTH",
"76 495 OFFCURVE",
"61 489 OFFCURVE",
"53 436 CURVE SMOOTH"
);
},
{
closed = 1;
nodes = (
"422 306 LINE SMOOTH",
"440 306 OFFCURVE",
"445 301 OFFCURVE",
"439 264 CURVE SMOOTH",
"434 228 OFFCURVE",
"429 220 OFFCURVE",
"413 220 CURVE SMOOTH",
"207 220 LINE",
"219 306 LINE"
);
}
);
};
layerId = "C7668D88-AC50-4107-9C4B-DB5D26A8FA6C";
paths = (
{
closed = 1;
nodes = (
"-8 0 LINE",
"176 0 LINE",
"191 108 LINE",
"409 108 LINE SMOOTH",
"563 108 OFFCURVE",
"608 165 OFFCURVE",
"622 264 CURVE SMOOTH",
"637 369 OFFCURVE",
"625 417 OFFCURVE",
"467 417 CURVE SMOOTH",
"234 417 LINE",
"245 495 LINE",
"134 495 LINE SMOOTH",
"76 495 OFFCURVE",
"61 489 OFFCURVE",
"53 436 CURVE SMOOTH"
);
},
{
closed = 1;
nodes = (
"422 306 LINE SMOOTH",
"440 306 OFFCURVE",
"445 301 OFFCURVE",
"439 264 CURVE SMOOTH",
"434 228 OFFCURVE",
"429 220 OFFCURVE",
"413 220 CURVE SMOOTH",
"207 220 LINE",
"219 306 LINE"
);
}
);
width = 684;
},
{
layerId = "9C644782-EE44-4C4B-9808-39A279382CB0";
paths = (
{
closed = 1;
nodes = (
"6 0 LINE",
"29 0 LINE",
"47 128 LINE",
"255 128 LINE SMOOTH",
"345 128 OFFCURVE",
"388 179 OFFCURVE",
"401 271 CURVE SMOOTH",
"414 366 OFFCURVE",
"392 410 OFFCURVE",
"304 410 CURVE SMOOTH",
"86 410 LINE",
"99 502 LINE",
"89 502 LINE SMOOTH",
"75 502 OFFCURVE",
"75 490 OFFCURVE",
"70 459 CURVE SMOOTH"
);
},
{
closed = 1;
nodes = (
"301 395 LINE SMOOTH",
"349 395 OFFCURVE",
"395 376 OFFCURVE",
"380 272 CURVE SMOOTH",
"365 166 OFFCURVE",
"316 143 OFFCURVE",
"269 143 CURVE SMOOTH",
"49 143 LINE",
"85 395 LINE"
);
}
);
width = 457;
}
);
note = Thorn;
unicode = 00DE;
},
{
color = 7;
glyphname = Q;
lastChange = "2021-09-24 03:41:24 +0000";
layers = (
{
background = {
paths = (
{
closed = 1;
nodes = (
"-6 16 OFFCURVE",
"142 -6 OFFCURVE",
"336 -6 CURVE SMOOTH",
"382 -6 OFFCURVE",
"427 -5 OFFCURVE",
"470 0 CURVE",
"549 -101 OFFCURVE",
"656 -107 OFFCURVE",
"756 -4 CURVE",
"713 -4 OFFCURVE",
"655 23 OFFCURVE",
"618 44 CURVE",
"674 78 OFFCURVE",
"714 135 OFFCURVE",
"727 230 CURVE SMOOTH",
"757 446 OFFCURVE",
"608 467 OFFCURVE",
"416 467 CURVE SMOOTH",
"227 467 OFFCURVE",
"55 451 OFFCURVE",
"24 230 CURVE SMOOTH"
);
},
{
closed = 1;
nodes = (
"485 196 OFFCURVE",
"477 171 OFFCURVE",
"466 154 CURVE",
"445 166 OFFCURVE",
"421 175 OFFCURVE",
"403 175 CURVE SMOOTH",
"370 175 OFFCURVE",
"338 159 OFFCURVE",
"324 136 CURVE",
"359 109 LINE",
"356 109 OFFCURVE",
"352 109 OFFCURVE",
"349 109 CURVE SMOOTH",
"322 109 OFFCURVE",
"309 111 OFFCURVE",
"292 119 CURVE SMOOTH",
"263 132 OFFCURVE",
"249 162 OFFCURVE",
"259 229 CURVE SMOOTH",
"274 337 OFFCURVE",
"320 351 OFFCURVE",
"392 351 CURVE SMOOTH",
"463 351 OFFCURVE",
"505 337 OFFCURVE",
"490 229 CURVE SMOOTH"
);
},
{
closed = 1;
nodes = (
"-6 16 OFFCURVE",
"142 -6 OFFCURVE",
"336 -6 CURVE SMOOTH",
"382 -6 OFFCURVE",
"427 -5 OFFCURVE",
"470 0 CURVE",
"549 -101 OFFCURVE",
"656 -107 OFFCURVE",
"756 -4 CURVE",
"713 -4 OFFCURVE",
"655 23 OFFCURVE",
"618 44 CURVE",
"674 78 OFFCURVE",
"714 135 OFFCURVE",
"727 230 CURVE SMOOTH",
"757 446 OFFCURVE",
"608 467 OFFCURVE",
"416 467 CURVE SMOOTH",
"227 467 OFFCURVE",
"55 451 OFFCURVE",
"24 230 CURVE SMOOTH"
);
},
{
closed = 1;
nodes = (
"485 196 OFFCURVE",
"477 171 OFFCURVE",
"466 154 CURVE",
"445 166 OFFCURVE",
"421 175 OFFCURVE",
"403 175 CURVE SMOOTH",
"370 175 OFFCURVE",
"338 159 OFFCURVE",
"324 136 CURVE",
"359 109 LINE",
"356 109 OFFCURVE",
"352 109 OFFCURVE",
"349 109 CURVE SMOOTH",
"322 109 OFFCURVE",
"309 111 OFFCURVE",
"292 119 CURVE SMOOTH",
"263 132 OFFCURVE",
"249 162 OFFCURVE",
"259 229 CURVE SMOOTH",
"274 337 OFFCURVE",
"320 351 OFFCURVE",
"392 351 CURVE SMOOTH",
"463 351 OFFCURVE",
"505 337 OFFCURVE",
"490 229 CURVE SMOOTH"
);
}
);
};
layerId = "C7668D88-AC50-4107-9C4B-DB5D26A8FA6C";
paths = (
{
closed = 1;
nodes = (
"570 -7 OFFCURVE",
"656 55 OFFCURVE",
"681 230 CURVE SMOOTH",
"706 405 OFFCURVE",
"636 467 OFFCURVE",
"386 467 CURVE SMOOTH",
"136 467 OFFCURVE",
"49 405 OFFCURVE",
"24 230 CURVE SMOOTH",
"-1 55 OFFCURVE",
"70 -7 OFFCURVE",
"320 -7 CURVE SMOOTH"
);
},
{
closed = 1;
nodes = (
"264 109 OFFCURVE",
"245 138 OFFCURVE",
"258 230 CURVE SMOOTH",
"271 322 OFFCURVE",
"298 351 OFFCURVE",
"370 351 CURVE SMOOTH",
"442 351 OFFCURVE",
"460 322 OFFCURVE",
"447 230 CURVE SMOOTH",
"434 138 OFFCURVE",
"408 109 OFFCURVE",
"336 109 CURVE SMOOTH"
);
},
{
closed = 1;
nodes = (
"591 -94 OFFCURVE",
"624 -77 OFFCURVE",
"649 -33 CURVE",
"550 15 OFFCURVE",
"523 69 OFFCURVE",
"437 146 CURVE SMOOTH",
"406 174 OFFCURVE",
"388 180 OFFCURVE",
"359 180 CURVE SMOOTH",
"337 180 OFFCURVE",
"312 168 OFFCURVE",
"301 142 CURVE",
"365 89 OFFCURVE",
"412 2 OFFCURVE",
"450 -42 CURVE SMOOTH",
"483 -80 OFFCURVE",
"517 -94 OFFCURVE",
"551 -94 CURVE SMOOTH"
);
}
);
width = 701;
},
{
layerId = "9C644782-EE44-4C4B-9808-39A279382CB0";
paths = (
{
closed = 1;
nodes = (
"367 -7 OFFCURVE",
"479 10 OFFCURVE",
"510 231 CURVE SMOOTH",
"540 446 OFFCURVE",
"446 469 OFFCURVE",
"320 469 CURVE SMOOTH",
"196 469 OFFCURVE",
"84 452 OFFCURVE",
"53 231 CURVE SMOOTH",
"23 16 OFFCURVE",
"117 -7 OFFCURVE",
"243 -7 CURVE SMOOTH"
);
},
{
closed = 1;
nodes = (
"123 11 OFFCURVE",
"51 37 OFFCURVE",
"79 230 CURVE SMOOTH",
"106 424 OFFCURVE",
"184 451 OFFCURVE",
"311 451 CURVE SMOOTH",
"439 451 OFFCURVE",
"511 424 OFFCURVE",
"484 230 CURVE SMOOTH",
"457 37 OFFCURVE",
"378 11 OFFCURVE",
"250 11 CURVE SMOOTH"
);
},
{
closed = 1;
nodes = (
"420 -75 OFFCURVE",
"424 -73 OFFCURVE",
"428 -70 CURVE",
"396 -40 OFFCURVE",
"293 115 OFFCURVE",
"281 129 CURVE SMOOTH",
"275 140 OFFCURVE",
"270 146 OFFCURVE",
"262 146 CURVE SMOOTH",
"258 146 OFFCURVE",
"253 145 OFFCURVE",
"248 140 CURVE",
"261 120 OFFCURVE",
"370 -32 OFFCURVE",
"388 -58 CURVE SMOOTH",
"397 -69 OFFCURVE",
"405 -75 OFFCURVE",
"414 -75 CURVE SMOOTH"
);
}
);
width = 555;
}
);
leftKerningGroup = O;
leftMetricsKey = O;
note = Q;
rightKerningGroup = Q;
unicode = 0051;
},
{
color = 7;
glyphname = R;
lastChange = "2021-09-28 15:54:02 +0000";
layers = (
{
anchors = (
{
name = bottom;
position = "{337, 0}";
},
{
name = top;
position = "{369, 460}";
}
);
background = {
anchors = (
{
name = bottom;
position = "{337, 0}";
},
{
name = top;
position = "{369, 460}";
}
);
hints = (
{
horizontal = 1;
place = "{0, 190}";
type = Stem;
},
{
horizontal = 1;
place = "{344, 116}";
type = Stem;
},
{
place = "{35, 228}";
type = Stem;
},
{
horizontal = 1;
place = "{130, 106}";
type = Stem;
},
{
place = "{432, 232}";
type = Stem;
}
);
paths = (
{
closed = 1;
nodes = (
"366 130 LINE SMOOTH",
"411 130 OFFCURVE",
"427 129 OFFCURVE",
"421 88 CURVE SMOOTH",
"416 51 LINE SMOOTH",
"410 10 OFFCURVE",
"436 0 OFFCURVE",
"481 0 CURVE SMOOTH",
"654 0 LINE",
"653 1 OFFCURVE",
"643 13 OFFCURVE",
"648 46 CURVE SMOOTH",
"658 116 LINE SMOOTH",
"663 148 OFFCURVE",
"664 179 OFFCURVE",
"615 189 CURVE",
"604 190 OFFCURVE",
"588 190 OFFCURVE",
"576 190 CURVE",
"577 195 LINE",
"604 195 OFFCURVE",
"628 202 OFFCURVE",
"641 211 CURVE SMOOTH",
"664 228 OFFCURVE",
"673 253 OFFCURVE",
"685 337 CURVE SMOOTH",
"697 423 OFFCURVE",
"661 452 OFFCURVE",
"589 459 CURVE SMOOTH",
"539 464 OFFCURVE",
"210 460 OFFCURVE",
"150 460 CURVE SMOOTH",
"86 460 OFFCURVE",
"72 431 OFFCURVE",
"67 392 CURVE SMOOTH",
"12 0 LINE",
"240 0 LINE",
"258 129 LINE",
"284 129 OFFCURVE",
"333 130 OFFCURVE",
"333 130 CURVE"
);
},
{
closed = 1;
nodes = (
"286 330 LINE SMOOTH",
"288 342 OFFCURVE",
"298 343 OFFCURVE",
"300 343 CURVE SMOOTH",
"319 343 OFFCURVE",
"396 346 OFFCURVE",
"424 342 CURVE SMOOTH",
"446 339 OFFCURVE",
"453 321 OFFCURVE",
"448 291 CURVE SMOOTH",
"442 247 OFFCURVE",
"419 234 OFFCURVE",
"397 234 CURVE SMOOTH",
"377 234 OFFCURVE",
"291 234 OFFCURVE",
"273 235 CURVE"
);
}
);
};
layerId = "C7668D88-AC50-4107-9C4B-DB5D26A8FA6C";
paths = (
{
closed = 1;
nodes = (
"366 130 LINE SMOOTH",
"411 130 OFFCURVE",
"427 129 OFFCURVE",
"421 88 CURVE SMOOTH",
"416 51 LINE SMOOTH",
"410 10 OFFCURVE",
"436 0 OFFCURVE",
"481 0 CURVE SMOOTH",
"654 0 LINE",
"653 1 OFFCURVE",
"643 13 OFFCURVE",
"648 46 CURVE SMOOTH",
"658 116 LINE SMOOTH",
"663 148 OFFCURVE",
"664 179 OFFCURVE",
"615 189 CURVE",
"604 190 OFFCURVE",
"588 190 OFFCURVE",
"576 190 CURVE",
"577 195 LINE",
"604 195 OFFCURVE",
"628 202 OFFCURVE",
"641 211 CURVE SMOOTH",
"664 228 OFFCURVE",
"673 253 OFFCURVE",
"685 337 CURVE SMOOTH",
"697 423 OFFCURVE",
"661 452 OFFCURVE",
"589 459 CURVE SMOOTH",
"539 464 OFFCURVE",
"210 460 OFFCURVE",
"150 460 CURVE SMOOTH",
"86 460 OFFCURVE",
"72 431 OFFCURVE",
"67 392 CURVE SMOOTH",
"12 0 LINE",
"240 0 LINE",
"258 129 LINE",
"284 129 OFFCURVE",
"333 130 OFFCURVE",
"333 130 CURVE"
);
},
{
closed = 1;
nodes = (
"286 330 LINE SMOOTH",
"288 342 OFFCURVE",
"298 343 OFFCURVE",
"300 343 CURVE SMOOTH",
"319 343 OFFCURVE",
"396 346 OFFCURVE",
"424 342 CURVE SMOOTH",
"446 339 OFFCURVE",
"453 321 OFFCURVE",
"448 291 CURVE SMOOTH",
"442 247 OFFCURVE",
"419 234 OFFCURVE",
"397 234 CURVE SMOOTH",
"377 234 OFFCURVE",
"291 234 OFFCURVE",
"273 235 CURVE"
);
}
);
width = 716;
},
{
anchors = (
{
name = bottom;
position = "{273, 0}";
},
{
name = top;
position = "{310, 460}";
}
);
layerId = "9C644782-EE44-4C4B-9808-39A279382CB0";
paths = (
{
closed = 1;
nodes = (
"412 210 LINE SMOOTH",
"457 210 OFFCURVE",
"471 192 OFFCURVE",
"465 151 CURVE SMOOTH",
"446 22 LINE SMOOTH",
"443 0 OFFCURVE",
"450 0 OFFCURVE",
"459 0 CURVE SMOOTH",
"471 0 LINE",
"470 1 OFFCURVE",
"470 11 OFFCURVE",
"471 16 CURVE SMOOTH",
"489 146 LINE SMOOTH",
"493 178 OFFCURVE",
"494 215 OFFCURVE",
"445 225 CURVE",
"442 225 OFFCURVE",
"438 225 OFFCURVE",
"436 225 CURVE",
"436 226 LINE",
"439 226 OFFCURVE",
"444 226 OFFCURVE",
"447 228 CURVE SMOOTH",
"486 246 OFFCURVE",
"511 283 OFFCURVE",
"520 337 CURVE SMOOTH",
"530 410 OFFCURVE",
"509 452 OFFCURVE",
"441 459 CURVE SMOOTH",
"391 464 OFFCURVE",
"243 462 OFFCURVE",
"183 460 CURVE SMOOTH",
"153 459 OFFCURVE",
"135 453 OFFCURVE",
"130 414 CURVE SMOOTH",
"72 0 LINE",
"96 0 LINE",
"125 209 LINE",
"269 211 OFFCURVE",
"379 210 OFFCURVE",
"379 210 CURVE"
);
},
{
closed = 1;
nodes = (
"154 414 LINE SMOOTH",
"158 439 OFFCURVE",
"180 441 OFFCURVE",
"185 441 CURVE SMOOTH",
"229 443 OFFCURVE",
"374 447 OFFCURVE",
"437 439 CURVE SMOOTH",
"486 433 OFFCURVE",
"503 397 OFFCURVE",
"494 339 CURVE SMOOTH",
"482 254 OFFCURVE",
"432 228 OFFCURVE",
"380 228 CURVE SMOOTH",
"337 228 OFFCURVE",
"172 229 OFFCURVE",
"128 230 CURVE"
);
}
);
width = 575;
}
);
leftKerningGroup = H;
leftMetricsKey = H;
note = R;
rightKerningGroup = R;
unicode = 0052;
},
{
color = 7;
glyphname = S;
lastChange = "2021-09-24 03:41:24 +0000";
layers = (
{
anchors = (
{
name = bottom;
position = "{277, 0}";
},
{
name = top;
position = "{371, 460}";
}
);
background = {
anchors = (
{
name = bottom;
position = "{277, 0}";
},
{
name = top;
position = "{371, 460}";
}
);
hints = (
{
horizontal = 1;
place = "{-1, 150}";
type = Stem;
},
{
horizontal = 1;
place = "{150, 152}";
type = Stem;
},
{
horizontal = 1;
place = "{308, 152}";
type = Stem;
},
{
place = "{23, 226}";
type = Stem;
},
{
place = "{420, 229}";
type = Stem;
}
);
paths = (
{
closed = 1;
nodes = (
"11 65 LINE SMOOTH",
"3 9 OFFCURVE",
"56 -1 OFFCURVE",
"192 -4 CURVE SMOOTH",
"279 -6 OFFCURVE",
"350 -5 OFFCURVE",
"438 0 CURVE SMOOTH",
"539 6 OFFCURVE",
"610 46 OFFCURVE",
"626 159 CURVE SMOOTH",
"643 281 OFFCURVE",
"580 297 OFFCURVE",
"477 297 CURVE SMOOTH",
"472 297 OFFCURVE",
"415 297 OFFCURVE",
"312 297 CURVE SMOOTH",
"285 297 OFFCURVE",
"287 309 OFFCURVE",
"289 319 CURVE SMOOTH",
"290 330 OFFCURVE",
"292 343 OFFCURVE",
"335 343 CURVE SMOOTH",
"448 343 LINE SMOOTH",
"508 343 OFFCURVE",
"626 342 OFFCURVE",
"639 328 CURVE",
"639 329 OFFCURVE",
"645 373 OFFCURVE",
"646 381 CURVE SMOOTH",
"652 425 OFFCURVE",
"622 457 OFFCURVE",
"559 460 CURVE SMOOTH",
"521 462 OFFCURVE",
"420 464 OFFCURVE",
"344 464 CURVE SMOOTH",
"176 464 OFFCURVE",
"72 452 OFFCURVE",
"51 301 CURVE SMOOTH",
"33 173 OFFCURVE",
"129 168 OFFCURVE",
"225 168 CURVE SMOOTH",
"308 168 OFFCURVE",
"330 168 OFFCURVE",
"349 168 CURVE SMOOTH",
"375 168 OFFCURVE",
"385 160 OFFCURVE",
"383 146 CURVE SMOOTH",
"381 128 OFFCURVE",
"366 118 OFFCURVE",
"331 118 CURVE SMOOTH",
"314 118 OFFCURVE",
"277 117 OFFCURVE",
"259 117 CURVE SMOOTH",
"187 117 OFFCURVE",
"73 118 OFFCURVE",
"21 138 CURVE"
);
}
);
};
layerId = "C7668D88-AC50-4107-9C4B-DB5D26A8FA6C";
paths = (
{
closed = 1;
nodes = (
"11 65 LINE SMOOTH",
"3 9 OFFCURVE",
"56 -1 OFFCURVE",
"192 -4 CURVE SMOOTH",
"279 -6 OFFCURVE",
"350 -5 OFFCURVE",
"438 0 CURVE SMOOTH",
"539 6 OFFCURVE",
"610 46 OFFCURVE",
"626 159 CURVE SMOOTH",
"643 281 OFFCURVE",
"580 297 OFFCURVE",
"477 297 CURVE SMOOTH",
"472 297 OFFCURVE",
"415 297 OFFCURVE",
"312 297 CURVE SMOOTH",
"285 297 OFFCURVE",
"287 309 OFFCURVE",
"289 319 CURVE SMOOTH",
"290 330 OFFCURVE",
"292 343 OFFCURVE",
"335 343 CURVE SMOOTH",
"448 343 LINE SMOOTH",
"508 343 OFFCURVE",
"626 342 OFFCURVE",
"639 328 CURVE",
"639 329 OFFCURVE",
"645 373 OFFCURVE",
"646 381 CURVE SMOOTH",
"652 425 OFFCURVE",
"622 457 OFFCURVE",
"559 460 CURVE SMOOTH",
"521 462 OFFCURVE",
"420 464 OFFCURVE",
"344 464 CURVE SMOOTH",
"176 464 OFFCURVE",
"72 452 OFFCURVE",
"51 301 CURVE SMOOTH",
"33 173 OFFCURVE",
"129 168 OFFCURVE",
"225 168 CURVE SMOOTH",
"308 168 OFFCURVE",
"330 168 OFFCURVE",
"349 168 CURVE SMOOTH",
"375 168 OFFCURVE",
"385 160 OFFCURVE",
"383 146 CURVE SMOOTH",
"381 128 OFFCURVE",
"366 118 OFFCURVE",
"331 118 CURVE SMOOTH",
"314 118 OFFCURVE",
"277 117 OFFCURVE",
"259 117 CURVE SMOOTH",
"187 117 OFFCURVE",
"73 118 OFFCURVE",
"21 138 CURVE"
);
}
);
width = 662;
},
{
anchors = (
{
name = bottom;
position = "{219, 0}";
},
{
name = top;
position = "{303, 460}";
}
);
layerId = "9C644782-EE44-4C4B-9808-39A279382CB0";
paths = (
{
closed = 1;
nodes = (
"44 35 LINE SMOOTH",
"40 -2 OFFCURVE",
"168 -6 OFFCURVE",
"206 -6 CURVE SMOOTH",
"220 -6 OFFCURVE",
"234 -6 OFFCURVE",
"249 -5 CURVE SMOOTH",
"355 0 OFFCURVE",
"439 28 OFFCURVE",
"453 133 CURVE SMOOTH",
"468 237 OFFCURVE",
"408 247 OFFCURVE",
"326 247 CURVE SMOOTH",
"293 247 OFFCURVE",
"259 247 OFFCURVE",
"224 247 CURVE SMOOTH",
"148 247 OFFCURVE",
"95 254 OFFCURVE",
"107 334 CURVE SMOOTH",
"121 435 OFFCURVE",
"205 445 OFFCURVE",
"291 445 CURVE SMOOTH",
"331 445 LINE SMOOTH",
"369 445 OFFCURVE",
"464 440 OFFCURVE",
"486 407 CURVE",
"487 413 OFFCURVE",
"488 419 OFFCURVE",
"489 425 CURVE SMOOTH",
"489 431 OFFCURVE",
"487 435 OFFCURVE",
"481 439 CURVE SMOOTH",
"450 462 OFFCURVE",
"367 464 OFFCURVE",
"317 464 CURVE SMOOTH",
"205 464 OFFCURVE",
"100 455 OFFCURVE",
"83 333 CURVE SMOOTH",
"68 230 OFFCURVE",
"151 227 OFFCURVE",
"221 227 CURVE SMOOTH",
"257 227 OFFCURVE",
"293 227 OFFCURVE",
"327 227 CURVE SMOOTH",
"400 227 OFFCURVE",
"440 214 OFFCURVE",
"429 135 CURVE SMOOTH",
"415 39 OFFCURVE",
"343 17 OFFCURVE",
"248 14 CURVE SMOOTH",
"235 13 OFFCURVE",
"222 13 OFFCURVE",
"210 13 CURVE SMOOTH",
"163 13 OFFCURVE",
"78 16 OFFCURVE",
"45 46 CURVE"
);
}
);
width = 531;
}
);
leftKerningGroup = S;
note = S;
rightKerningGroup = S;
unicode = 0053;
},
{
color = 9;
glyphname = Germandbls;
lastChange = "2021-09-24 03:41:24 +0000";
layers = (
{
layerId = "C7668D88-AC50-4107-9C4B-DB5D26A8FA6C";
paths = (
{
closed = 1;
nodes = (
"318 -24 LINE",
"369 339 LINE SMOOTH",
"380 415 OFFCURVE",
"448 431 OFFCURVE",
"479 431 CURVE SMOOTH",
"516 431 OFFCURVE",
"577 431 OFFCURVE",
"569 375 CURVE",
"504 348 OFFCURVE",
"412 302 OFFCURVE",
"402 233 CURVE SMOOTH",
"393 168 OFFCURVE",
"434 144 OFFCURVE",
"515 144 CURVE SMOOTH",
"556 144 OFFCURVE",
"566 142 OFFCURVE",
"578 142 CURVE SMOOTH",
"607 142 OFFCURVE",
"611 134 OFFCURVE",
"609 117 CURVE SMOOTH",
"606 97 OFFCURVE",
"602 85 OFFCURVE",
"540 85 CURVE SMOOTH",
"485 85 OFFCURVE",
"403 90 OFFCURVE",
"370 107 CURVE",
"370 30 LINE",
"426 -11 OFFCURVE",
"516 -5 OFFCURVE",
"623 -5 CURVE SMOOTH",
"711 -5 OFFCURVE",
"788 14 OFFCURVE",
"805 135 CURVE SMOOTH",
"815 205 OFFCURVE",
"798 257 OFFCURVE",
"721 257 CURVE SMOOTH",
"701 257 OFFCURVE",
"662 257 OFFCURVE",
"653 257 CURVE SMOOTH",
"629 257 OFFCURVE",
"614 255 OFFCURVE",
"617 272 CURVE SMOOTH",
"619 289 OFFCURVE",
"628 289 OFFCURVE",
"664 305 CURVE SMOOTH",
"681 312 OFFCURVE",
"793 323 OFFCURVE",
"804 405 CURVE SMOOTH",
"816 488 OFFCURVE",
"720 506 OFFCURVE",
"511 506 CURVE SMOOTH",
"284 506 OFFCURVE",
"182 484 OFFCURVE",
"168 385 CURVE",
"128 103 OFFCURVE",
"130 120 OFFCURVE",
"110 -24 CURVE"
);
}
);
width = 872;
},
{
layerId = "9C644782-EE44-4C4B-9808-39A279382CB0";
paths = (
{
closed = 1;
nodes = (
"89 -30 LINE",
"150 399 LINE SMOOTH",
"160 475 OFFCURVE",
"252 491 OFFCURVE",
"306 491 CURVE SMOOTH",
"364 491 OFFCURVE",
"466 479 OFFCURVE",
"441 406 CURVE",
"342 382 OFFCURVE",
"188 351 OFFCURVE",
"177 272 CURVE SMOOTH",
"167 200 OFFCURVE",
"236 197 OFFCURVE",
"298 197 CURVE SMOOTH",
"329 197 OFFCURVE",
"345 197 OFFCURVE",
"357 197 CURVE SMOOTH",
"420 197 OFFCURVE",
"455 186 OFFCURVE",
"446 117 CURVE SMOOTH",
"433 24 OFFCURVE",
"356 12 OFFCURVE",
"289 12 CURVE SMOOTH",
"248 12 OFFCURVE",
"174 14 OFFCURVE",
"147 39 CURVE",
"146 30 LINE SMOOTH",
"142 -2 OFFCURVE",
"256 -5 OFFCURVE",
"288 -5 CURVE SMOOTH",
"362 -5 OFFCURVE",
"451 14 OFFCURVE",
"466 115 CURVE SMOOTH",
"478 205 OFFCURVE",
"428 215 OFFCURVE",
"357 215 CURVE SMOOTH",
"347 215 OFFCURVE",
"332 215 OFFCURVE",
"304 215 CURVE SMOOTH",
"237 215 OFFCURVE",
"190 221 OFFCURVE",
"198 273 CURVE SMOOTH",
"207 338 OFFCURVE",
"349 365 OFFCURVE",
"438 389 CURVE SMOOTH",
"444 390 OFFCURVE",
"458 393 OFFCURVE",
"460 405 CURVE SMOOTH",
"486 494 OFFCURVE",
"380 506 OFFCURVE",
"306 506 CURVE SMOOTH",
"246 506 OFFCURVE",
"143 484 OFFCURVE",
"130 411 CURVE",
"100 192 OFFCURVE",
"89 114 OFFCURVE",
"68 -30 CURVE"
);
}
);
width = 589;
}
);
unicode = 1E9E;
},
{
color = 9;
glyphname = Schwa;
lastChange = "2021-09-24 03:41:24 +0000";
layers = (
{
anchors = (
{
name = bottom;
position = "{53, 1095}";
},
{
name = ogonek;
position = "{-49, 1084}";
},
{
name = top;
position = "{-11, 636}";
}
);
layerId = "C7668D88-AC50-4107-9C4B-DB5D26A8FA6C";
paths = (
{
closed = 1;
nodes = (
"205 463 OFFCURVE",
"122 460 OFFCURVE",
"95 432 CURVE SMOOTH",
"78 416 OFFCURVE",
"67 379 OFFCURVE",
"63 353 CURVE SMOOTH",
"59 326 LINE",
"72 327 OFFCURVE",
"248 331 OFFCURVE",
"298 331 CURVE SMOOTH",
"391 331 OFFCURVE",
"403 320 OFFCURVE",
"392 240 CURVE SMOOTH",
"377 135 OFFCURVE",
"365 115 OFFCURVE",
"305 115 CURVE SMOOTH",
"254 115 OFFCURVE",
"248 140 OFFCURVE",
"254 179 CURVE SMOOTH",
"256 194 OFFCURVE",
"265 197 OFFCURVE",
"274 197 CURVE",
"372 197 LINE SMOOTH",
"423 197 OFFCURVE",
"443 229 OFFCURVE",
"449 272 CURVE",
"141 272 LINE",
"61 272 OFFCURVE",
"52 257 OFFCURVE",
"39 166 CURVE SMOOTH",
"22 49 OFFCURVE",
"82 -3 OFFCURVE",
"277 -3 CURVE SMOOTH",
"527 -3 OFFCURVE",
"607 57 OFFCURVE",
"633 244 CURVE SMOOTH",
"658 425 OFFCURVE",
"610 463 OFFCURVE",
"371 463 CURVE SMOOTH"
);
}
);
width = 665;
},
{
anchors = (
{
name = bottom;
position = "{135, 1095}";
},
{
name = ogonek;
position = "{64, 1089}";
},
{
name = top;
position = "{71, 636}";
}
);
layerId = "9C644782-EE44-4C4B-9808-39A279382CB0";
paths = (
{
closed = 1;
nodes = (
"195 469 OFFCURVE",
"145 464 OFFCURVE",
"105 455 CURVE SMOOTH",
"74 449 OFFCURVE",
"66 441 OFFCURVE",
"65 433 CURVE SMOOTH",
"64 425 LINE",
"95 437 OFFCURVE",
"181 450 OFFCURVE",
"241 450 CURVE SMOOTH",
"385 450 OFFCURVE",
"426 411 OFFCURVE",
"401 230 CURVE SMOOTH",
"379 77 OFFCURVE",
"324 12 OFFCURVE",
"179 12 CURVE SMOOTH",
"67 12 OFFCURVE",
"25 64 OFFCURVE",
"41 177 CURVE SMOOTH",
"45 204 OFFCURVE",
"72 218 OFFCURVE",
"89 218 CURVE",
"399 218 LINE SMOOTH",
"415 218 OFFCURVE",
"415 224 OFFCURVE",
"416 235 CURVE",
"90 235 LINE",
"49 235 OFFCURVE",
"27 217 OFFCURVE",
"21 183 CURVE SMOOTH",
"3 52 OFFCURVE",
"48 -6 OFFCURVE",
"178 -6 CURVE SMOOTH",
"351 -6 OFFCURVE",
"398 71 OFFCURVE",
"422 230 CURVE SMOOTH",
"449 427 OFFCURVE",
"401 469 OFFCURVE",
"244 469 CURVE SMOOTH"
);
}
);
width = 475;
}
);
unicode = 018F;
},
{
color = 7;
glyphname = T;
lastChange = "2021-09-24 03:41:24 +0000";
layers = (
{
anchors = (
{
name = bottom;
position = "{303, 0}";
},
{
name = center;
position = "{335, 230}";
},
{
name = top;
position = "{368, 460}";
}
);
background = {
anchors = (
{
name = bottom;
position = "{303, 0}";
},
{
name = center;
position = "{335, 230}";
},
{
name = top;
position = "{368, 460}";
}
);
paths = (
{
closed = 1;
nodes = (
"36 342 LINE",
"234 342 LINE",
"186 0 LINE",
"340 0 LINE SMOOTH",
"403 0 OFFCURVE",
"416 13 OFFCURVE",
"424 70 CURVE SMOOTH",
"462 342 LINE",
"658 342 LINE",
"674 460 LINE",
"52 460 LINE"
);
}
);
};
layerId = "C7668D88-AC50-4107-9C4B-DB5D26A8FA6C";
paths = (
{
closed = 1;
nodes = (
"36 342 LINE",
"234 342 LINE",
"186 0 LINE",
"340 0 LINE SMOOTH",
"403 0 OFFCURVE",
"416 13 OFFCURVE",
"424 70 CURVE SMOOTH",
"462 342 LINE",
"658 342 LINE",
"674 460 LINE",
"52 460 LINE"
);
}
);
width = 653;
},
{
anchors = (
{
name = bottom;
position = "{200, 7}";
},
{
name = center;
position = "{232, 230}";
},
{
name = top;
position = "{260, 460}";
}
);
layerId = "9C644782-EE44-4C4B-9808-39A279382CB0";
paths = (
{
closed = 1;
nodes = (
"59 441 LINE",
"246 441 LINE",
"184 0 LINE",
"197 0 LINE SMOOTH",
"208 0 OFFCURVE",
"208 7 OFFCURVE",
"211 20 CURVE SMOOTH",
"270 441 LINE",
"456 441 LINE",
"459 460 LINE",
"62 460 LINE"
);
}
);
width = 447;
}
);
leftKerningGroup = T;
note = T;
rightKerningGroup = T;
unicode = 0054;
},
{
color = 9;
glyphname = Tbar;
lastChange = "2021-09-24 03:41:24 +0000";
layers = (
{
background = {
paths = (
{
closed = 1;
nodes = (
"96 206 LINE",
"210 206 LINE",
"181 0 LINE",
"335 0 LINE SMOOTH",
"398 0 OFFCURVE",
"411 13 OFFCURVE",
"419 70 CURVE SMOOTH",
"438 206 LINE",
"558 206 LINE",
"566 266 LINE",
"446 266 LINE",
"457 342 LINE",
"653 342 LINE",
"669 460 LINE",
"47 460 LINE",
"31 342 LINE",
"229 342 LINE",
"218 266 LINE",
"104 266 LINE"
);
}
);
};
layerId = "C7668D88-AC50-4107-9C4B-DB5D26A8FA6C";
paths = (
{
closed = 1;
nodes = (
"96 206 LINE",
"210 206 LINE",
"181 0 LINE",
"335 0 LINE SMOOTH",
"398 0 OFFCURVE",
"411 13 OFFCURVE",
"419 70 CURVE SMOOTH",
"438 206 LINE",
"558 206 LINE",
"566 266 LINE",
"446 266 LINE",
"457 342 LINE",
"653 342 LINE",
"669 460 LINE",
"47 460 LINE",
"31 342 LINE",
"229 342 LINE",
"218 266 LINE",
"104 266 LINE"
);
}
);
width = 652;
},
{
layerId = "9C644782-EE44-4C4B-9808-39A279382CB0";
paths = (
{
closed = 1;
nodes = (
"84 298 LINE",
"216 298 LINE",
"174 0 LINE",
"187 0 LINE SMOOTH",
"198 0 OFFCURVE",
"200 7 OFFCURVE",
"201 20 CURVE SMOOTH",
"240 298 LINE",
"374 298 LINE",
"375 307 LINE",
"241 307 LINE",
"260 441 LINE",
"446 441 LINE",
"449 460 LINE",
"52 460 LINE",
"50 441 LINE",
"236 441 LINE",
"217 307 LINE",
"85 307 LINE"
);
}
);
width = 437;
}
);
note = Tbar;
unicode = 0166;
},
{
color = 7;
glyphname = U;
lastChange = "2021-09-28 15:54:02 +0000";
layers = (
{
anchors = (
{
name = bottom;
position = "{318, 0}";
},
{
name = ogonek;
position = "{383, 10}";
},
{
name = top;
position = "{375, 460}";
},
{
name = topright;
position = "{577, 460}";
}
);
background = {
anchors = (
{
name = bottom;
position = "{318, 0}";
},
{
name = ogonek;
position = "{383, 10}";
},
{
name = top;
position = "{375, 460}";
},
{
name = topright;
position = "{577, 460}";
}
);
paths = (
{
closed = 1;
nodes = (
"677 362 LINE SMOOTH",
"689 443 OFFCURVE",
"692 460 OFFCURVE",
"605 460 CURVE SMOOTH",
"462 460 LINE",
"426 203 LINE SMOOTH",
"417 139 OFFCURVE",
"394 120 OFFCURVE",
"330 120 CURVE SMOOTH",
"271 120 OFFCURVE",
"248 125 OFFCURVE",
"259 205 CURVE SMOOTH",
"294 460 LINE",
"149 460 LINE SMOOTH",
"62 460 OFFCURVE",
"65 443 OFFCURVE",
"53 362 CURVE SMOOTH",
"35 236 LINE SMOOTH",
"11 66 OFFCURVE",
"4 -2 OFFCURVE",
"312 -2 CURVE SMOOTH",
"607 -2 OFFCURVE",
"634 63 OFFCURVE",
"661 250 CURVE SMOOTH"
);
}
);
};
layerId = "C7668D88-AC50-4107-9C4B-DB5D26A8FA6C";
paths = (
{
closed = 1;
nodes = (
"677 362 LINE SMOOTH",
"689 443 OFFCURVE",
"692 460 OFFCURVE",
"605 460 CURVE SMOOTH",
"462 460 LINE",
"426 203 LINE SMOOTH",
"417 139 OFFCURVE",
"394 120 OFFCURVE",
"330 120 CURVE SMOOTH",
"271 120 OFFCURVE",
"248 125 OFFCURVE",
"259 205 CURVE SMOOTH",
"294 460 LINE",
"149 460 LINE SMOOTH",
"62 460 OFFCURVE",
"65 443 OFFCURVE",
"53 362 CURVE SMOOTH",
"35 236 LINE SMOOTH",
"11 66 OFFCURVE",
"4 -2 OFFCURVE",
"312 -2 CURVE SMOOTH",
"607 -2 OFFCURVE",
"634 63 OFFCURVE",
"661 250 CURVE SMOOTH"
);
}
);
width = 684;
},
{
anchors = (
{
name = bottom;
position = "{248, 0}";
},
{
name = ogonek;
position = "{267, 10}";
},
{
name = top;
position = "{321, 460}";
},
{
name = topright;
position = "{485, 460}";
}
);
layerId = "9C644782-EE44-4C4B-9808-39A279382CB0";
paths = (
{
closed = 1;
nodes = (
"504 440 LINE SMOOTH",
"506 456 OFFCURVE",
"506 460 OFFCURVE",
"494 460 CURVE SMOOTH",
"483 460 LINE",
"438 141 LINE SMOOTH",
"425 53 OFFCURVE",
"371 16 OFFCURVE",
"253 16 CURVE SMOOTH",
"135 16 OFFCURVE",
"93 48 OFFCURVE",
"106 140 CURVE SMOOTH",
"152 460 LINE",
"140 460 LINE SMOOTH",
"129 460 OFFCURVE",
"127 456 OFFCURVE",
"125 440 CURVE SMOOTH",
"87 176 LINE SMOOTH",
"75 89 OFFCURVE",
"62 -3 OFFCURVE",
"249 -3 CURVE SMOOTH",
"443 -3 OFFCURVE",
"455 89 OFFCURVE",
"467 178 CURVE SMOOTH"
);
}
);
width = 560;
}
);
leftKerningGroup = U;
leftMetricsKey = "=H-10";
note = U;
rightKerningGroup = U;
rightMetricsKey = "=H-10";
unicode = 0055;
},
{
color = 7;
glyphname = V;
lastChange = "2021-09-24 03:41:24 +0000";
layers = (
{
background = {
paths = (
{
closed = 1;
nodes = (
"515 153 OFFCURVE",
"609 307 OFFCURVE",
"703 460 CURVE",
"646 460 OFFCURVE",
"587 460 OFFCURVE",
"530 460 CURVE",
"481 381 OFFCURVE",
"432 302 OFFCURVE",
"383 223 CURVE",
"381 217 OFFCURVE",
"379 211 OFFCURVE",
"377 205 CURVE",
"376 205 OFFCURVE",
"377 205 OFFCURVE",
"376 205 CURVE",
"376 211 OFFCURVE",
"377 217 OFFCURVE",
"377 223 CURVE",
"351 302 OFFCURVE",
"325 381 OFFCURVE",
"299 460 CURVE",
"213 460 OFFCURVE",
"128 460 OFFCURVE",
"42 460 CURVE",
"85 331 OFFCURVE",
"129 203 OFFCURVE",
"172 74 CURVE",
"199 6 OFFCURVE",
"223 0 OFFCURVE",
"285 0 CURVE",
"330 0 OFFCURVE",
"376 0 OFFCURVE",
"421 0 CURVE"
);
},
{
closed = 1;
nodes = (
"515 153 OFFCURVE",
"609 307 OFFCURVE",
"703 460 CURVE",
"646 460 OFFCURVE",
"587 460 OFFCURVE",
"530 460 CURVE",
"481 381 OFFCURVE",
"432 302 OFFCURVE",
"383 223 CURVE",
"381 217 OFFCURVE",
"379 211 OFFCURVE",
"377 205 CURVE",
"376 205 OFFCURVE",
"377 205 OFFCURVE",
"376 205 CURVE",
"376 211 OFFCURVE",
"377 217 OFFCURVE",
"377 223 CURVE",
"351 302 OFFCURVE",
"325 381 OFFCURVE",
"299 460 CURVE",
"213 460 OFFCURVE",
"128 460 OFFCURVE",
"42 460 CURVE",
"85 331 OFFCURVE",
"129 203 OFFCURVE",
"172 74 CURVE",
"199 6 OFFCURVE",
"223 0 OFFCURVE",
"285 0 CURVE",
"330 0 OFFCURVE",
"376 0 OFFCURVE",
"421 0 CURVE"
);
}
);
};
layerId = "C7668D88-AC50-4107-9C4B-DB5D26A8FA6C";
paths = (
{
closed = 1;
nodes = (
"416 0 LINE",
"697 460 LINE",
"529 460 LINE",
"375 195 LINE",
"372 195 LINE SMOOTH",
"368 195 OFFCURVE",
"365 200 OFFCURVE",
"362 210 CURVE SMOOTH",
"290 460 LINE",
"39 460 LINE",
"167 74 LINE SMOOTH",
"187 15 OFFCURVE",
"212 0 OFFCURVE",
"280 0 CURVE SMOOTH"
);
}
);
width = 648;
},
{
layerId = "9C644782-EE44-4C4B-9808-39A279382CB0";
paths = (
{
closed = 1;
nodes = (
"225 0 LINE",
"432 460 LINE",
"411 460 LINE",
"213 20 LINE",
"193 20 LINE SMOOTH",
"169 20 OFFCURVE",
"147 31 OFFCURVE",
"141 71 CURVE SMOOTH",
"82 460 LINE",
"59 460 LINE",
"117 75 LINE SMOOTH",
"124 27 OFFCURVE",
"142 0 OFFCURVE",
"187 0 CURVE SMOOTH"
);
}
);
width = 418;
}
);
leftKerningGroup = V;
note = V;
rightKerningGroup = V;
unicode = 0056;
},
{
color = 7;
glyphname = W;
lastChange = "2021-09-24 03:41:24 +0000";
layers = (
{
anchors = (
{
name = bottom;
position = "{411, 0}";
},
{
name = top;
position = "{490, 460}";
}
);
background = {
anchors = (
{
name = bottom;
position = "{411, 0}";
},
{
name = top;
position = "{490, 460}";
}
);
paths = (
{
closed = 1;
nodes = (
"73 82 LINE SMOOTH",
"79 4 OFFCURVE",
"120 0 OFFCURVE",
"177 0 CURVE SMOOTH",
"361 0 LINE",
"447 179 LINE",
"451 197 LINE",
"454 197 LINE",
"455 179 LINE",
"490 0 LINE",
"630 0 LINE SMOOTH",
"686 0 OFFCURVE",
"732 10 OFFCURVE",
"758 82 CURVE SMOOTH",
"897 460 LINE",
"842 460 OFFCURVE",
"787 460 OFFCURVE",
"732 460 CURVE",
"661 259 LINE",
"659 249 OFFCURVE",
"656 240 OFFCURVE",
"654 230 CURVE",
"655 269 LINE",
"618 460 LINE",
"393 460 LINE",
"303 269 LINE",
"294 230 LINE",
"294 240 OFFCURVE",
"295 249 OFFCURVE",
"295 259 CURVE",
"284 460 LINE",
"45 460 LINE"
);
},
{
closed = 1;
nodes = (
"73 82 LINE SMOOTH",
"79 4 OFFCURVE",
"120 0 OFFCURVE",
"177 0 CURVE SMOOTH",
"361 0 LINE",
"447 179 LINE",
"451 197 LINE",
"454 197 LINE",
"455 179 LINE",
"490 0 LINE",
"630 0 LINE SMOOTH",
"686 0 OFFCURVE",
"732 10 OFFCURVE",
"758 82 CURVE SMOOTH",
"897 460 LINE",
"842 460 OFFCURVE",
"787 460 OFFCURVE",
"732 460 CURVE",
"661 259 LINE",
"659 249 OFFCURVE",
"656 240 OFFCURVE",
"654 230 CURVE",
"655 269 LINE",
"618 460 LINE",
"393 460 LINE",
"303 269 LINE",
"294 230 LINE",
"294 240 OFFCURVE",
"295 249 OFFCURVE",
"295 259 CURVE",
"284 460 LINE",
"45 460 LINE"
);
},
{
closed = 1;
nodes = (
"371 0 LINE",
"432 177 LINE",
"452 250 LINE",
"453 180 LINE",
"480 0 LINE",
"630 0 LINE SMOOTH",
"711 0 OFFCURVE",
"751 32 OFFCURVE",
"766 82 CURVE SMOOTH",
"878 460 LINE",
"725 460 LINE",
"667 196 LINE SMOOTH",
"665 189 OFFCURVE",
"662 184 OFFCURVE",
"653 184 CURVE SMOOTH",
"646 184 LINE",
"606 460 LINE",
"385 460 LINE",
"291 183 LINE",
"285 183 LINE SMOOTH",
"277 183 OFFCURVE",
"274 188 OFFCURVE",
"273 200 CURVE SMOOTH",
"260 459 LINE",
"45 460 LINE",
"63 82 LINE SMOOTH",
"66 21 OFFCURVE",
"92 0 OFFCURVE",
"169 0 CURVE SMOOTH"
);
}
);
};
guideLines = (
{
position = "{350, 183}";
}
);
layerId = "C7668D88-AC50-4107-9C4B-DB5D26A8FA6C";
paths = (
{
closed = 1;
nodes = (
"372 0 LINE",
"437 180 LINE",
"454 240 LINE",
"459 180 LINE",
"483 0 LINE",
"630 0 LINE SMOOTH",
"713 0 OFFCURVE",
"755 32 OFFCURVE",
"770 82 CURVE SMOOTH",
"878 460 LINE",
"725 460 LINE",
"659 195 LINE SMOOTH",
"657 188 OFFCURVE",
"657 183 OFFCURVE",
"653 183 CURVE SMOOTH",
"646 183 LINE",
"603 460 LINE",
"389 460 LINE",
"285 183 LINE",
"280 183 LINE SMOOTH",
"275 183 OFFCURVE",
"274 188 OFFCURVE",
"273 200 CURVE SMOOTH",
"250 459 LINE",
"51 460 LINE",
"69 82 LINE SMOOTH",
"71 48 OFFCURVE",
"100 0 OFFCURVE",
"160 0 CURVE SMOOTH"
);
}
);
width = 847;
},
{
anchors = (
{
name = bottom;
position = "{303, 0}";
},
{
name = top;
position = "{359, 460}";
}
);
layerId = "9C644782-EE44-4C4B-9808-39A279382CB0";
paths = (
{
closed = 1;
nodes = (
"199 0 LINE",
"334 392 LINE",
"347 427 LINE",
"349 393 LINE",
"378 0 LINE",
"430 0 LINE SMOOTH",
"483 0 OFFCURVE",
"500 13 OFFCURVE",
"517 75 CURVE SMOOTH",
"621 460 LINE",
"601 460 LINE",
"495 63 LINE SMOOTH",
"487 30 OFFCURVE",
"471 20 OFFCURVE",
"438 20 CURVE SMOOTH",
"396 20 LINE",
"363 460 LINE",
"340 460 LINE",
"187 20 LINE",
"147 20 LINE SMOOTH",
"106 19 OFFCURVE",
"97 27 OFFCURVE",
"97 75 CURVE SMOOTH",
"99 460 LINE",
"81 460 LINE",
"79 70 LINE SMOOTH",
"78 14 OFFCURVE",
"93 0 OFFCURVE",
"137 0 CURVE SMOOTH"
);
}
);
width = 633;
}
);
leftKerningGroup = W;
note = W;
rightKerningGroup = W;
unicode = 0057;
},
{
color = 7;
glyphname = X;
lastChange = "2021-09-24 03:41:24 +0000";
layers = (
{
background = {
paths = (
{
closed = 1;
nodes = (
"45 460 LINE",
"50 458 OFFCURVE",
"58 448 OFFCURVE",
"61 443 CURVE SMOOTH",
"220 218 LINE",
"65 81 LINE",
"50 65 OFFCURVE",
"-1 21 OFFCURVE",
"-33 1 CURVE",
"99 0 LINE SMOOTH",
"159 0 OFFCURVE",
"191 6 OFFCURVE",
"237 48 CURVE SMOOTH",
"300 104 LINE",
"332 60 LINE SMOOTH",
"371 3 OFFCURVE",
"407 0 OFFCURVE",
"467 0 CURVE SMOOTH",
"684 0 LINE",
"664 5 OFFCURVE",
"629 65 OFFCURVE",
"629 65 CURVE",
"572 143 OFFCURVE",
"523 211 OFFCURVE",
"483 267 CURVE",
"606 377 OFFCURVE",
"653 418 OFFCURVE",
"699 460 CURVE",
"495 460 LINE",
"404 379 LINE",
"373 422 OFFCURVE",
"354 450 OFFCURVE",
"347 460 CURVE"
);
},
{
closed = 1;
nodes = (
"45 460 LINE",
"50 458 OFFCURVE",
"58 448 OFFCURVE",
"61 443 CURVE SMOOTH",
"220 218 LINE",
"65 81 LINE",
"50 65 OFFCURVE",
"-1 21 OFFCURVE",
"-33 1 CURVE",
"99 0 LINE SMOOTH",
"159 0 OFFCURVE",
"190 7 OFFCURVE",
"237 48 CURVE SMOOTH",
"300 104 LINE",
"332 60 LINE SMOOTH",
"373 4 OFFCURVE",
"407 0 OFFCURVE",
"467 0 CURVE SMOOTH",
"684 0 LINE",
"666 5 OFFCURVE",
"645 35 OFFCURVE",
"618 74 CURVE SMOOTH",
"569 143 OFFCURVE",
"523 211 OFFCURVE",
"483 267 CURVE",
"606 377 OFFCURVE",
"653 418 OFFCURVE",
"699 460 CURVE",
"495 460 LINE",
"404 379 LINE",
"373 422 OFFCURVE",
"354 450 OFFCURVE",
"347 460 CURVE"
);
}
);
};
layerId = "C7668D88-AC50-4107-9C4B-DB5D26A8FA6C";
paths = (
{
closed = 1;
nodes = (
"686 0 LINE",
"667 11 OFFCURVE",
"650 34 OFFCURVE",
"628 63 CURVE SMOOTH",
"437 320 LINE",
"349 460 LINE",
"49 460 LINE",
"257 172 LINE",
"334 60 LINE SMOOTH",
"372 4 OFFCURVE",
"409 0 OFFCURVE",
"469 0 CURVE SMOOTH"
);
},
{
closed = 1;
nodes = (
"172 -1 OFFCURVE",
"203 14 OFFCURVE",
"239 48 CURVE SMOOTH",
"392 196 LINE",
"701 460 LINE",
"497 460 LINE",
"287 283 LINE",
"67 81 LINE SMOOTH",
"40 57 OFFCURVE",
"1 21 OFFCURVE",
"-31 1 CURVE",
"101 0 LINE SMOOTH"
);
}
);
width = 699;
},
{
layerId = "9C644782-EE44-4C4B-9808-39A279382CB0";
paths = (
{
closed = 1;
nodes = (
"375 0 LINE",
"368 9 OFFCURVE",
"363 17 OFFCURVE",
"352 36 CURVE SMOOTH",
"219 243 LINE",
"87 461 LINE",
"56 461 LINE",
"202 222 LINE",
"337 11 LINE SMOOTH",
"341 5 OFFCURVE",
"348 0 OFFCURVE",
"356 0 CURVE SMOOTH"
);
},
{
closed = 1;
nodes = (
"10 0 OFFCURVE",
"18 5 OFFCURVE",
"24 11 CURVE SMOOTH",
"219 223 LINE",
"438 461 LINE",
"411 461 LINE",
"206 237 LINE",
"12 27 LINE SMOOTH",
"4 18 OFFCURVE",
"-4 9 OFFCURVE",
"-12 0 CURVE",
"2 0 LINE SMOOTH"
);
}
);
width = 434;
}
);
leftKerningGroup = X;
note = X;
rightKerningGroup = X;
unicode = 0058;
},
{
color = 7;
glyphname = Y;
lastChange = "2021-09-28 21:29:19 +0000";
layers = (
{
anchors = (
{
name = bottom;
position = "{303, 0}";
},
{
name = top;
position = "{433, 460}";
},
{
name = topleft;
position = "{47, 460}";
}
);
background = {
anchors = (
{
name = bottom;
position = "{303, 0}";
},
{
name = top;
position = "{433, 460}";
},
{
name = topleft;
position = "{47, 460}";
}
);
hints = (
{
horizontal = 1;
place = "{0, 21}";
target = up;
type = BottomGhost;
},
{
place = "{245, 228}";
type = Stem;
}
);
paths = (
{
closed = 1;
nodes = (
"332 0 LINE SMOOTH",
"410 0 OFFCURVE",
"433 10 OFFCURVE",
"442 78 CURVE SMOOTH",
"455 180 LINE",
"695 431 LINE",
"729 460 LINE",
"524 460 LINE",
"424 330 LINE",
"347 460 LINE",
"29 460 LINE",
"48 435 LINE",
"228 180 LINE",
"203 0 LINE"
);
}
);
};
layerId = "C7668D88-AC50-4107-9C4B-DB5D26A8FA6C";
paths = (
{
closed = 1;
nodes = (
"332 0 LINE SMOOTH",
"410 0 OFFCURVE",
"433 10 OFFCURVE",
"442 78 CURVE SMOOTH",
"455 180 LINE",
"727 460 LINE",
"524 460 LINE",
"424 330 LINE",
"347 460 LINE",
"29 460 LINE",
"228 180 LINE",
"203 0 LINE"
);
}
);
width = 678;
},
{
anchors = (
{
name = bottom;
position = "{181, 0}";
},
{
name = top;
position = "{263, 460}";
},
{
name = topleft;
position = "{68, 460}";
}
);
background = {
paths = (
{
closed = 1;
nodes = (
"183 0 LINE SMOOTH",
"195 0 OFFCURVE",
"195 7 OFFCURVE",
"197 20 CURVE SMOOTH",
"221 190 LINE",
"433 460 LINE",
"408 460 LINE",
"214 214 LINE",
"93 460 LINE",
"66 460 LINE",
"197 190 LINE",
"171 0 LINE"
);
}
);
};
layerId = "9C644782-EE44-4C4B-9808-39A279382CB0";
paths = (
{
closed = 1;
nodes = (
"173 0 LINE SMOOTH",
"185 0 OFFCURVE",
"186 7 OFFCURVE",
"187 20 CURVE SMOOTH",
"211 190 LINE",
"402 433 LINE",
"424 460 LINE",
"401 460 LINE",
"203 210 LINE",
"83 460 LINE",
"56 460 LINE",
"70 435 LINE",
"187 190 LINE",
"161 0 LINE"
);
}
);
width = 406;
}
);
leftKerningGroup = Y;
note = Y;
rightKerningGroup = Y;
unicode = 0059;
},
{
color = 7;
glyphname = Z;
lastChange = "2021-09-24 03:41:24 +0000";
layers = (
{
anchors = (
{
name = bottom;
position = "{292, 0}";
},
{
name = center;
position = "{324, 230}";
},
{
name = top;
position = "{357, 460}";
}
);
background = {
anchors = (
{
name = bottom;
position = "{292, 0}";
},
{
name = center;
position = "{324, 230}";
},
{
name = top;
position = "{357, 460}";
}
);
hints = (
{
horizontal = 1;
place = "{0, 118}";
type = Stem;
},
{
horizontal = 1;
place = "{342, 118}";
type = Stem;
},
{
place = "{10, 610}";
type = Stem;
}
);
paths = (
{
closed = 1;
nodes = (
"335 122 LINE",
"539 274 LINE SMOOTH",
"636 346 OFFCURVE",
"646 456 OFFCURVE",
"646 460 CURVE",
"130 460 LINE SMOOTH",
"57 460 OFFCURVE",
"57 433 OFFCURVE",
"44 342 CURVE",
"310 342 LINE",
"306 341 OFFCURVE",
"293 339 OFFCURVE",
"290 338 CURVE",
"213 286 OFFCURVE",
"6 125 OFFCURVE",
"-1 118 CURVE",
"-17 0 LINE",
"501 0 LINE SMOOTH",
"593 0 OFFCURVE",
"593 5 OFFCURVE",
"609 118 CURVE",
"315 118 LINE"
);
}
);
};
layerId = "C7668D88-AC50-4107-9C4B-DB5D26A8FA6C";
paths = (
{
closed = 1;
nodes = (
"335 122 LINE",
"539 274 LINE SMOOTH",
"636 346 OFFCURVE",
"646 456 OFFCURVE",
"646 460 CURVE",
"130 460 LINE SMOOTH",
"57 460 OFFCURVE",
"57 433 OFFCURVE",
"44 342 CURVE",
"310 342 LINE",
"306 341 OFFCURVE",
"293 339 OFFCURVE",
"290 338 CURVE",
"213 286 OFFCURVE",
"6 125 OFFCURVE",
"-1 118 CURVE",
"-17 0 LINE",
"501 0 LINE SMOOTH",
"593 0 OFFCURVE",
"593 5 OFFCURVE",
"609 118 CURVE",
"315 118 LINE"
);
}
);
width = 630;
},
{
anchors = (
{
name = bottom;
position = "{188, 0}";
},
{
name = center;
position = "{220, 230}";
},
{
name = top;
position = "{253, 460}";
}
);
layerId = "9C644782-EE44-4C4B-9808-39A279382CB0";
paths = (
{
closed = 1;
nodes = (
"34 27 LINE",
"411 415 LINE SMOOTH",
"430 434 OFFCURVE",
"434 456 OFFCURVE",
"434 460 CURVE",
"95 460 LINE SMOOTH",
"79 460 OFFCURVE",
"78 452 OFFCURVE",
"76 441 CURVE",
"405 441 LINE",
"400 436 OFFCURVE",
"386 420 OFFCURVE",
"365 400 CURVE SMOOTH",
"262 292 OFFCURVE",
"-1 23 OFFCURVE",
"-1 23 CURVE",
"-4 0 LINE",
"348 0 LINE SMOOTH",
"371 0 OFFCURVE",
"374 2 OFFCURVE",
"376 19 CURVE",
"26 19 LINE"
);
}
);
width = 426;
}
);
leftKerningGroup = Z;
note = Z;
rightKerningGroup = Z;
unicode = 005A;
},
{
color = 7;
glyphname = C.ss01;
lastChange = "2021-09-24 03:41:24 +0000";
layers = (
{
background = {
paths = (
{
closed = 1;
nodes = (
"172 465 OFFCURVE",
"49 429 OFFCURVE",
"20 224 CURVE SMOOTH",
"-9 12 OFFCURVE",
"80 -9 OFFCURVE",
"318 -9 CURVE SMOOTH",
"463 -9 OFFCURVE",
"617 -6 OFFCURVE",
"634 114 CURVE SMOOTH",
"637 137 OFFCURVE",
"640 159 OFFCURVE",
"644 182 CURVE",
"446 182 LINE",
"445 177 OFFCURVE",
"444 173 OFFCURVE",
"444 168 CURVE SMOOTH",
"441 154 OFFCURVE",
"438 143 OFFCURVE",
"433 133 CURVE SMOOTH",
"416 97 OFFCURVE",
"372 88 OFFCURVE",
"334 88 CURVE SMOOTH",
"278 88 OFFCURVE",
"250 109 OFFCURVE",
"249 162 CURVE SMOOTH",
"248 185 OFFCURVE",
"249 208 OFFCURVE",
"253 232 CURVE SMOOTH",
"257 264 OFFCURVE",
"265 295 OFFCURVE",
"277 322 CURVE SMOOTH",
"293 360 OFFCURVE",
"338 372 OFFCURVE",
"375 372 CURVE SMOOTH",
"426 372 OFFCURVE",
"457 358 OFFCURVE",
"461 325 CURVE SMOOTH",
"462 313 OFFCURVE",
"462 298 OFFCURVE",
"459 280 CURVE",
"652 281 LINE",
"655 296 OFFCURVE",
"657 311 OFFCURVE",
"659 326 CURVE SMOOTH",
"676 449 OFFCURVE",
"569 465 OFFCURVE",
"397 465 CURVE SMOOTH"
);
}
);
};
layerId = "C7668D88-AC50-4107-9C4B-DB5D26A8FA6C";
paths = (
{
closed = 1;
nodes = (
"172 465 OFFCURVE",
"49 429 OFFCURVE",
"20 224 CURVE SMOOTH",
"-9 12 OFFCURVE",
"80 -9 OFFCURVE",
"318 -9 CURVE SMOOTH",
"463 -9 OFFCURVE",
"617 -6 OFFCURVE",
"634 114 CURVE SMOOTH",
"637 137 OFFCURVE",
"640 159 OFFCURVE",
"644 182 CURVE",
"446 182 LINE",
"445 177 OFFCURVE",
"444 173 OFFCURVE",
"444 168 CURVE SMOOTH",
"441 154 OFFCURVE",
"438 143 OFFCURVE",
"433 133 CURVE SMOOTH",
"416 97 OFFCURVE",
"372 88 OFFCURVE",
"334 88 CURVE SMOOTH",
"278 88 OFFCURVE",
"250 109 OFFCURVE",
"249 162 CURVE SMOOTH",
"248 185 OFFCURVE",
"249 208 OFFCURVE",
"253 232 CURVE SMOOTH",
"257 264 OFFCURVE",
"265 295 OFFCURVE",
"277 322 CURVE SMOOTH",
"293 360 OFFCURVE",
"338 372 OFFCURVE",
"375 372 CURVE SMOOTH",
"426 372 OFFCURVE",
"457 358 OFFCURVE",
"461 325 CURVE SMOOTH",
"462 313 OFFCURVE",
"462 298 OFFCURVE",
"459 280 CURVE",
"652 281 LINE",
"655 296 OFFCURVE",
"657 311 OFFCURVE",
"659 326 CURVE SMOOTH",
"676 449 OFFCURVE",
"569 465 OFFCURVE",
"397 465 CURVE SMOOTH"
);
}
);
width = 674;
},
{
layerId = "9C644782-EE44-4C4B-9808-39A279382CB0";
paths = (
{
closed = 1;
nodes = (
"124 464 OFFCURVE",
"70 362 OFFCURVE",
"49 223 CURVE SMOOTH",
"27 67 OFFCURVE",
"75 -7 OFFCURVE",
"234 -7 CURVE SMOOTH",
"345 -7 OFFCURVE",
"429 12 OFFCURVE",
"451 138 CURVE SMOOTH",
"452 143 OFFCURVE",
"453 147 OFFCURVE",
"453 152 CURVE",
"429 152 LINE",
"428 146 OFFCURVE",
"427 140 OFFCURVE",
"427 134 CURVE SMOOTH",
"418 84 OFFCURVE",
"398 54 OFFCURVE",
"370 36 CURVE SMOOTH",
"338 14 OFFCURVE",
"292 9 OFFCURVE",
"235 9 CURVE SMOOTH",
"172 9 OFFCURVE",
"131 26 OFFCURVE",
"106 55 CURVE SMOOTH",
"72 94 OFFCURVE",
"68 155 OFFCURVE",
"77 224 CURVE SMOOTH",
"87 292 OFFCURVE",
"105 350 OFFCURVE",
"140 389 CURVE SMOOTH",
"174 427 OFFCURVE",
"224 448 OFFCURVE",
"297 448 CURVE SMOOTH",
"351 448 OFFCURVE",
"393 444 OFFCURVE",
"420 425 CURVE SMOOTH",
"448 405 OFFCURVE",
"460 368 OFFCURVE",
"450 302 CURVE",
"474 302 LINE",
"475 308 OFFCURVE",
"476 314 OFFCURVE",
"477 320 CURVE SMOOTH",
"488 449 OFFCURVE",
"409 464 OFFCURVE",
"300 464 CURVE SMOOTH"
);
}
);
width = 495;
}
);
leftKerningGroup = G;
note = C.1;
},
{
color = 7;
glyphname = M.ss01;
lastChange = "2021-09-24 03:41:24 +0000";
layers = (
{
background = {
paths = (
{
closed = 1;
nodes = (
"37 317 OFFCURVE",
"21 200 OFFCURVE",
"4 84 CURVE SMOOTH",
"-4 25 OFFCURVE",
"-7 0 OFFCURVE",
"77 0 CURVE",
"231 0 LINE",
"246 111 OFFCURVE",
"262 221 OFFCURVE",
"277 332 CURVE SMOOTH",
"279 346 OFFCURVE",
"293 348 OFFCURVE",
"309 348 CURVE SMOOTH",
"339 348 OFFCURVE",
"353 345 OFFCURVE",
"345 289 CURVE SMOOTH",
"332 193 OFFCURVE",
"318 96 OFFCURVE",
"305 0 CURVE",
"384 0 OFFCURVE",
"464 0 OFFCURVE",
"543 0 CURVE",
"558 111 OFFCURVE",
"574 223 OFFCURVE",
"590 334 CURVE SMOOTH",
"592 348 OFFCURVE",
"606 350 OFFCURVE",
"621 350 CURVE SMOOTH",
"651 350 OFFCURVE",
"665 345 OFFCURVE",
"657 284 CURVE SMOOTH",
"643 189 OFFCURVE",
"630 95 OFFCURVE",
"617 0 CURVE",
"668 0 OFFCURVE",
"720 0 OFFCURVE",
"771 0 CURVE SMOOTH",
"836 0 OFFCURVE",
"855 8 OFFCURVE",
"864 76 CURVE SMOOTH",
"874 144 OFFCURVE",
"884 213 OFFCURVE",
"893 281 CURVE SMOOTH",
"914 428 OFFCURVE",
"858 460 OFFCURVE",
"676 460 CURVE SMOOTH",
"635 460 OFFCURVE",
"550 455 OFFCURVE",
"500 394 CURVE",
"470 471 OFFCURVE",
"361 460 OFFCURVE",
"302 460 CURVE SMOOTH",
"263 460 OFFCURVE",
"117 450 OFFCURVE",
"53 433 CURVE"
);
}
);
};
layerId = "C7668D88-AC50-4107-9C4B-DB5D26A8FA6C";
paths = (
{
closed = 1;
nodes = (
"37 317 OFFCURVE",
"21 200 OFFCURVE",
"4 84 CURVE SMOOTH",
"-4 25 OFFCURVE",
"-7 0 OFFCURVE",
"77 0 CURVE",
"231 0 LINE",
"246 111 OFFCURVE",
"262 221 OFFCURVE",
"277 332 CURVE SMOOTH",
"279 346 OFFCURVE",
"293 348 OFFCURVE",
"309 348 CURVE SMOOTH",
"339 348 OFFCURVE",
"353 345 OFFCURVE",
"345 289 CURVE SMOOTH",
"332 193 OFFCURVE",
"318 96 OFFCURVE",
"305 0 CURVE",
"384 0 OFFCURVE",
"464 0 OFFCURVE",
"543 0 CURVE",
"558 111 OFFCURVE",
"574 223 OFFCURVE",
"590 334 CURVE SMOOTH",
"592 348 OFFCURVE",
"606 350 OFFCURVE",
"621 350 CURVE SMOOTH",
"651 350 OFFCURVE",
"665 345 OFFCURVE",
"657 284 CURVE SMOOTH",
"643 189 OFFCURVE",
"630 95 OFFCURVE",
"617 0 CURVE",
"668 0 OFFCURVE",
"720 0 OFFCURVE",
"771 0 CURVE SMOOTH",
"836 0 OFFCURVE",
"855 8 OFFCURVE",
"864 76 CURVE SMOOTH",
"874 144 OFFCURVE",
"884 213 OFFCURVE",
"893 281 CURVE SMOOTH",
"914 428 OFFCURVE",
"858 460 OFFCURVE",
"676 460 CURVE SMOOTH",
"635 460 OFFCURVE",
"550 455 OFFCURVE",
"500 394 CURVE",
"470 471 OFFCURVE",
"361 460 OFFCURVE",
"302 460 CURVE SMOOTH",
"263 460 OFFCURVE",
"117 450 OFFCURVE",
"53 433 CURVE"
);
}
);
width = 911;
},
{
layerId = "9C644782-EE44-4C4B-9808-39A279382CB0";
paths = (
{
closed = 1;
nodes = (
"48 290 OFFCURVE",
"29 153 OFFCURVE",
"9 16 CURVE SMOOTH",
"7 2 OFFCURVE",
"12 0 OFFCURVE",
"23 0 CURVE SMOOTH",
"32 0 LINE",
"51 134 OFFCURVE",
"70 269 OFFCURVE",
"89 403 CURVE",
"98 433 OFFCURVE",
"169 448 OFFCURVE",
"234 448 CURVE SMOOTH",
"299 448 OFFCURVE",
"350 415 OFFCURVE",
"346 388 CURVE",
"328 259 OFFCURVE",
"308 129 OFFCURVE",
"290 0 CURVE",
"300 0 OFFCURVE",
"308 0 OFFCURVE",
"318 0 CURVE",
"336 129 OFFCURVE",
"354 258 OFFCURVE",
"372 387 CURVE",
"377 425 OFFCURVE",
"465 448 OFFCURVE",
"519 448 CURVE SMOOTH",
"598 448 OFFCURVE",
"635 420 OFFCURVE",
"625 347 CURVE SMOOTH",
"609 231 OFFCURVE",
"592 116 OFFCURVE",
"576 0 CURVE",
"578 0 OFFCURVE",
"580 0 OFFCURVE",
"583 0 CURVE SMOOTH",
"591 0 OFFCURVE",
"601 2 OFFCURVE",
"604 16 CURVE SMOOTH",
"619 126 OFFCURVE",
"634 236 OFFCURVE",
"650 347 CURVE SMOOTH",
"661 429 OFFCURVE",
"633 467 OFFCURVE",
"522 467 CURVE SMOOTH",
"467 467 OFFCURVE",
"398 446 OFFCURVE",
"366 421 CURVE",
"345 447 OFFCURVE",
"296 466 OFFCURVE",
"238 466 CURVE SMOOTH",
"124 466 OFFCURVE",
"80 433 OFFCURVE",
"67 426 CURVE"
);
}
);
width = 674;
}
);
leftKerningGroup = E;
note = M.1;
},
{
color = 7;
glyphname = N.ss01;
lastChange = "2021-09-24 03:41:24 +0000";
layers = (
{
background = {
paths = (
{
closed = 1;
nodes = (
"285 108 OFFCURVE",
"300 215 OFFCURVE",
"315 323 CURVE",
"332 331 OFFCURVE",
"351 337 OFFCURVE",
"368 337 CURVE SMOOTH",
"395 337 OFFCURVE",
"416 323 OFFCURVE",
"410 281 CURVE SMOOTH",
"398 194 OFFCURVE",
"386 108 OFFCURVE",
"374 21 CURVE",
"373 14 OFFCURVE",
"372 7 OFFCURVE",
"371 0 CURVE",
"373 0 OFFCURVE",
"511 -1 OFFCURVE",
"519 -1 CURVE SMOOTH",
"602 -1 OFFCURVE",
"610 17 OFFCURVE",
"620 86 CURVE SMOOTH",
"626 132 OFFCURVE",
"632 177 OFFCURVE",
"639 223 CURVE SMOOTH",
"665 411 OFFCURVE",
"657 462 OFFCURVE",
"383 462 CURVE SMOOTH",
"260 462 OFFCURVE",
"143 448 OFFCURVE",
"93 435 CURVE",
"76 318 OFFCURVE",
"60 201 OFFCURVE",
"43 84 CURVE SMOOTH",
"36 29 OFFCURVE",
"36 -1 OFFCURVE",
"88 -1 CURVE SMOOTH",
"100 -1 OFFCURVE",
"265 0 OFFCURVE",
"270 0 CURVE"
);
}
);
};
layerId = "C7668D88-AC50-4107-9C4B-DB5D26A8FA6C";
paths = (
{
closed = 1;
nodes = (
"285 108 OFFCURVE",
"300 215 OFFCURVE",
"315 323 CURVE",
"332 331 OFFCURVE",
"351 337 OFFCURVE",
"368 337 CURVE SMOOTH",
"395 337 OFFCURVE",
"416 323 OFFCURVE",
"410 281 CURVE SMOOTH",
"398 194 OFFCURVE",
"386 108 OFFCURVE",
"374 21 CURVE",
"373 14 OFFCURVE",
"372 7 OFFCURVE",
"371 0 CURVE",
"373 0 OFFCURVE",
"511 -1 OFFCURVE",
"519 -1 CURVE SMOOTH",
"602 -1 OFFCURVE",
"610 17 OFFCURVE",
"620 86 CURVE SMOOTH",
"626 132 OFFCURVE",
"632 177 OFFCURVE",
"639 223 CURVE SMOOTH",
"665 411 OFFCURVE",
"657 462 OFFCURVE",
"383 462 CURVE SMOOTH",
"260 462 OFFCURVE",
"143 448 OFFCURVE",
"93 435 CURVE",
"76 318 OFFCURVE",
"60 201 OFFCURVE",
"43 84 CURVE SMOOTH",
"36 29 OFFCURVE",
"36 -1 OFFCURVE",
"88 -1 CURVE SMOOTH",
"100 -1 OFFCURVE",
"265 0 OFFCURVE",
"270 0 CURVE"
);
}
);
width = 698;
},
{
layerId = "9C644782-EE44-4C4B-9808-39A279382CB0";
paths = (
{
closed = 1;
nodes = (
"55 131 OFFCURVE",
"73 262 OFFCURVE",
"91 393 CURVE",
"101 422 OFFCURVE",
"180 436 OFFCURVE",
"262 436 CURVE SMOOTH",
"359 436 OFFCURVE",
"404 405 OFFCURVE",
"394 333 CURVE SMOOTH",
"380 234 OFFCURVE",
"366 136 OFFCURVE",
"352 38 CURVE SMOOTH",
"352 34 OFFCURVE",
"349 11 OFFCURVE",
"347 0 CURVE",
"348 0 OFFCURVE",
"352 0 OFFCURVE",
"355 0 CURVE SMOOTH",
"363 0 OFFCURVE",
"373 4 OFFCURVE",
"374 16 CURVE SMOOTH",
"389 121 OFFCURVE",
"404 227 OFFCURVE",
"419 332 CURVE SMOOTH",
"430 413 OFFCURVE",
"405 454 OFFCURVE",
"267 454 CURVE SMOOTH",
"121 454 OFFCURVE",
"82 422 OFFCURVE",
"69 414 CURVE",
"51 282 OFFCURVE",
"32 149 OFFCURVE",
"13 16 CURVE SMOOTH",
"11 2 OFFCURVE",
"16 0 OFFCURVE",
"26 0 CURVE SMOOTH",
"29 0 OFFCURVE",
"34 0 OFFCURVE",
"36 0 CURVE"
);
}
);
width = 465;
}
);
leftKerningGroup = E;
note = N.1;
},
{
color = 7;
glyphname = S.ss01;
lastChange = "2021-09-24 03:41:24 +0000";
layers = (
{
background = {
hints = (
{
horizontal = 1;
place = "{-1, 150}";
type = Stem;
},
{
horizontal = 1;
place = "{150, 152}";
type = Stem;
},
{
horizontal = 1;
place = "{308, 152}";
type = Stem;
},
{
place = "{23, 226}";
type = Stem;
},
{
place = "{420, 229}";
type = Stem;
}
);
paths = (
{
closed = 1;
nodes = (
"11 -26 OFFCURVE",
"104 -5 OFFCURVE",
"309 -5 CURVE SMOOTH",
"506 -5 OFFCURVE",
"619 2 OFFCURVE",
"641 159 CURVE SMOOTH",
"658 278 OFFCURVE",
"590 294 OFFCURVE",
"487 294 CURVE SMOOTH",
"482 294 OFFCURVE",
"402 294 OFFCURVE",
"299 294 CURVE SMOOTH",
"272 294 OFFCURVE",
"274 309 OFFCURVE",
"276 319 CURVE SMOOTH",
"277 330 OFFCURVE",
"277 343 OFFCURVE",
"347 343 CURVE SMOOTH",
"364 343 OFFCURVE",
"378 343 OFFCURVE",
"403 343 CURVE SMOOTH",
"436 343 OFFCURVE",
"444 333 OFFCURVE",
"442 322 CURVE SMOOTH",
"442 322 OFFCURVE",
"441 316 OFFCURVE",
"441 316 CURVE",
"480 316 OFFCURVE",
"632 316 OFFCURVE",
"652 316 CURVE",
"653 325 OFFCURVE",
"658 356 OFFCURVE",
"660 374 CURVE",
"663 395 OFFCURVE",
"642 426 OFFCURVE",
"634 431 CURVE SMOOTH",
"582 464 OFFCURVE",
"518 464 OFFCURVE",
"390 464 CURVE SMOOTH",
"186 464 OFFCURVE",
"88 452 OFFCURVE",
"67 301 CURVE SMOOTH",
"49 173 OFFCURVE",
"116 170 OFFCURVE",
"236 170 CURVE SMOOTH",
"338 170 OFFCURVE",
"360 170 OFFCURVE",
"379 170 CURVE SMOOTH",
"405 170 OFFCURVE",
"415 162 OFFCURVE",
"413 148 CURVE SMOOTH",
"410 130 OFFCURVE",
"396 119 OFFCURVE",
"324 119 CURVE SMOOTH",
"250 119 OFFCURVE",
"238 128 OFFCURVE",
"240 147 CURVE",
"172 147 OFFCURVE",
"103 145 OFFCURVE",
"35 145 CURVE"
);
}
);
};
layerId = "C7668D88-AC50-4107-9C4B-DB5D26A8FA6C";
paths = (
{
closed = 1;
nodes = (
"11 -26 OFFCURVE",
"104 -5 OFFCURVE",
"309 -5 CURVE SMOOTH",
"506 -5 OFFCURVE",
"619 2 OFFCURVE",
"641 159 CURVE SMOOTH",
"658 278 OFFCURVE",
"590 294 OFFCURVE",
"487 294 CURVE SMOOTH",
"482 294 OFFCURVE",
"402 294 OFFCURVE",
"299 294 CURVE SMOOTH",
"272 294 OFFCURVE",
"274 309 OFFCURVE",
"276 319 CURVE SMOOTH",
"277 330 OFFCURVE",
"277 343 OFFCURVE",
"347 343 CURVE SMOOTH",
"364 343 OFFCURVE",
"378 343 OFFCURVE",
"403 343 CURVE SMOOTH",
"436 343 OFFCURVE",
"444 333 OFFCURVE",
"442 322 CURVE SMOOTH",
"442 322 OFFCURVE",
"441 316 OFFCURVE",
"441 316 CURVE",
"480 316 OFFCURVE",
"632 316 OFFCURVE",
"652 316 CURVE",
"653 325 OFFCURVE",
"658 356 OFFCURVE",
"660 374 CURVE",
"663 395 OFFCURVE",
"642 426 OFFCURVE",
"634 431 CURVE SMOOTH",
"582 464 OFFCURVE",
"518 464 OFFCURVE",
"390 464 CURVE SMOOTH",
"186 464 OFFCURVE",
"88 452 OFFCURVE",
"67 301 CURVE SMOOTH",
"49 173 OFFCURVE",
"116 170 OFFCURVE",
"236 170 CURVE SMOOTH",
"338 170 OFFCURVE",
"360 170 OFFCURVE",
"379 170 CURVE SMOOTH",
"405 170 OFFCURVE",
"415 162 OFFCURVE",
"413 148 CURVE SMOOTH",
"410 130 OFFCURVE",
"396 119 OFFCURVE",
"324 119 CURVE SMOOTH",
"250 119 OFFCURVE",
"238 128 OFFCURVE",
"240 147 CURVE",
"172 147 OFFCURVE",
"103 145 OFFCURVE",
"35 145 CURVE"
);
}
);
width = 688;
},
{
layerId = "9C644782-EE44-4C4B-9808-39A279382CB0";
paths = (
{
closed = 1;
nodes = (
"26 12 OFFCURVE",
"78 -4 OFFCURVE",
"211 -5 CURVE SMOOTH",
"362 -6 OFFCURVE",
"425 27 OFFCURVE",
"439 133 CURVE SMOOTH",
"454 237 OFFCURVE",
"394 247 OFFCURVE",
"313 247 CURVE SMOOTH",
"279 247 OFFCURVE",
"248 247 OFFCURVE",
"213 247 CURVE SMOOTH",
"137 247 OFFCURVE",
"84 254 OFFCURVE",
"96 334 CURVE SMOOTH",
"110 435 OFFCURVE",
"214 447 OFFCURVE",
"287 447 CURVE SMOOTH",
"342 447 OFFCURVE",
"378 441 OFFCURVE",
"400 430 CURVE SMOOTH",
"435 413 OFFCURVE",
"439 384 OFFCURVE",
"435 345 CURVE SMOOTH",
"435 340 OFFCURVE",
"434 333 OFFCURVE",
"433 326 CURVE",
"440 326 OFFCURVE",
"449 326 OFFCURVE",
"457 326 CURVE",
"458 333 OFFCURVE",
"459 341 OFFCURVE",
"459 346 CURVE SMOOTH",
"467 399 OFFCURVE",
"453 425 OFFCURVE",
"424 444 CURVE SMOOTH",
"408 453 OFFCURVE",
"368 464 OFFCURVE",
"294 464 CURVE SMOOTH",
"195 464 OFFCURVE",
"90 455 OFFCURVE",
"73 333 CURVE SMOOTH",
"58 230 OFFCURVE",
"139 227 OFFCURVE",
"211 227 CURVE SMOOTH",
"247 227 OFFCURVE",
"280 227 OFFCURVE",
"314 227 CURVE SMOOTH",
"387 227 OFFCURVE",
"427 214 OFFCURVE",
"416 135 CURVE SMOOTH",
"402 39 OFFCURVE",
"329 14 OFFCURVE",
"223 14 CURVE SMOOTH",
"124 14 OFFCURVE",
"51 22 OFFCURVE",
"66 133 CURVE",
"57 133 OFFCURVE",
"50 133 OFFCURVE",
"42 133 CURVE"
);
}
);
width = 497;
}
);
note = S.1;
},
{
color = 7;
glyphname = A.ss02;
lastChange = "2021-09-24 03:41:24 +0000";
layers = (
{
background = {
hints = (
{
horizontal = 1;
place = "{64, 151}";
type = Stem;
},
{
horizontal = 1;
place = "{460, -20}";
target = down;
type = TopGhost;
},
{
place = "{26, 685}";
type = Stem;
},
{
horizontal = 1;
place = "{0, 215}";
type = Stem;
}
);
paths = (
{
closed = 1;
nodes = (
"268 169 OFFCURVE",
"246 136 OFFCURVE",
"239 87 CURVE",
"376 86 LINE",
"407 0 LINE",
"654 0 LINE",
"530 374 LINE SMOOTH",
"510 434 OFFCURVE",
"460 464 OFFCURVE",
"378 464 CURVE SMOOTH",
"283 464 OFFCURVE",
"238 430 OFFCURVE",
"203 374 CURVE SMOOTH",
"-29 0 LINE",
"146 0 LINE",
"307 265 LINE SMOOTH",
"307 265 OFFCURVE",
"311 268 OFFCURVE",
"312 274 CURVE",
"311 268 OFFCURVE",
"326 228 OFFCURVE",
"336 201 CURVE SMOOTH",
"346 169 LINE",
"346 169 OFFCURVE",
"315 169 OFFCURVE",
"306 169 CURVE SMOOTH"
);
}
);
};
layerId = "C7668D88-AC50-4107-9C4B-DB5D26A8FA6C";
paths = (
{
closed = 1;
nodes = (
"268 169 OFFCURVE",
"246 136 OFFCURVE",
"239 87 CURVE",
"376 86 LINE",
"407 0 LINE",
"654 0 LINE",
"530 374 LINE SMOOTH",
"510 434 OFFCURVE",
"460 464 OFFCURVE",
"378 464 CURVE SMOOTH",
"283 464 OFFCURVE",
"238 430 OFFCURVE",
"203 374 CURVE SMOOTH",
"-29 0 LINE",
"146 0 LINE",
"307 265 LINE SMOOTH",
"307 265 OFFCURVE",
"311 268 OFFCURVE",
"312 274 CURVE",
"311 268 OFFCURVE",
"326 228 OFFCURVE",
"336 201 CURVE SMOOTH",
"346 169 LINE",
"346 169 OFFCURVE",
"315 169 OFFCURVE",
"306 169 CURVE SMOOTH"
);
}
);
width = 692;
},
{
layerId = "9C644782-EE44-4C4B-9808-39A279382CB0";
paths = (
{
closed = 1;
nodes = (
"113 159 OFFCURVE",
"109 155 OFFCURVE",
"107 141 CURVE",
"329 141 LINE",
"352 0 LINE",
"377 0 LINE",
"312 400 LINE SMOOTH",
"303 446 OFFCURVE",
"294 465 OFFCURVE",
"238 465 CURVE SMOOTH",
"182 465 OFFCURVE",
"163 442 OFFCURVE",
"145 400 CURVE SMOOTH",
"-29 0 LINE",
"-9 0 LINE",
"164 398 LINE SMOOTH",
"174 422 OFFCURVE",
"186 446 OFFCURVE",
"235 446 CURVE SMOOTH",
"278 446 OFFCURVE",
"283 422 OFFCURVE",
"288 397 CURVE SMOOTH",
"326 159 LINE",
"326 159 OFFCURVE",
"136 159 OFFCURVE",
"131 159 CURVE SMOOTH"
);
}
);
width = 423;
}
);
leftKerningGroup = A;
note = A.2;
rightKerningGroup = A;
},
{
color = 7;
export = 0;
glyphname = A.ss01;
lastChange = "2021-09-24 03:41:24 +0000";
layers = (
{
background = {
hints = (
{
horizontal = 1;
place = "{1, 123}";
type = Stem;
},
{
horizontal = 1;
place = "{184, 94}";
type = Stem;
},
{
horizontal = 1;
place = "{332, 130}";
type = Stem;
},
{
place = "{64, 601}";
type = Stem;
},
{
place = "{64, 238}";
type = Stem;
},
{
place = "{428, 237}";
type = Stem;
}
);
paths = (
{
closed = 1;
nodes = (
"241 -9 OFFCURVE",
"565 -5 OFFCURVE",
"595 23 CURVE",
"595 23 OFFCURVE",
"602 66 OFFCURVE",
"627 248 CURVE SMOOTH",
"649 403 OFFCURVE",
"608 450 OFFCURVE",
"495 461 CURVE SMOOTH",
"416 469 OFFCURVE",
"212 471 OFFCURVE",
"143 458 CURVE SMOOTH",
"103 451 OFFCURVE",
"84 427 OFFCURVE",
"78 379 CURVE SMOOTH",
"72 335 LINE",
"153 335 OFFCURVE",
"234 335 OFFCURVE",
"315 335 CURVE SMOOTH",
"396 335 OFFCURVE",
"405 313 OFFCURVE",
"398 257 CURVE",
"395 237 OFFCURVE",
"387 192 OFFCURVE",
"378 127 CURVE",
"361 125 OFFCURVE",
"290 124 OFFCURVE",
"280 124 CURVE SMOOTH",
"263 124 OFFCURVE",
"255 137 OFFCURVE",
"257 154 CURVE SMOOTH",
"261 181 OFFCURVE",
"281 185 OFFCURVE",
"298 185 CURVE SMOOTH",
"306 185 OFFCURVE",
"327 185 OFFCURVE",
"348 185 CURVE",
"358 250 OFFCURVE",
"362 278 OFFCURVE",
"285 278 CURVE SMOOTH",
"257 278 OFFCURVE",
"184 278 OFFCURVE",
"158 278 CURVE SMOOTH",
"64 278 OFFCURVE",
"32 245 OFFCURVE",
"16 129 CURVE SMOOTH",
"2 32 OFFCURVE",
"40 6 OFFCURVE",
"108 1 CURVE SMOOTH"
);
}
);
};
layerId = "C7668D88-AC50-4107-9C4B-DB5D26A8FA6C";
paths = (
{
closed = 1;
nodes = (
"241 -9 OFFCURVE",
"565 -5 OFFCURVE",
"595 23 CURVE",
"595 23 OFFCURVE",
"602 66 OFFCURVE",
"627 248 CURVE SMOOTH",
"649 403 OFFCURVE",
"608 450 OFFCURVE",
"495 461 CURVE SMOOTH",
"416 469 OFFCURVE",
"212 471 OFFCURVE",
"143 458 CURVE SMOOTH",
"103 451 OFFCURVE",
"84 427 OFFCURVE",
"78 379 CURVE SMOOTH",
"72 335 LINE",
"153 335 OFFCURVE",
"234 335 OFFCURVE",
"315 335 CURVE SMOOTH",
"396 335 OFFCURVE",
"405 313 OFFCURVE",
"398 257 CURVE",
"395 237 OFFCURVE",
"387 192 OFFCURVE",
"378 127 CURVE",
"361 125 OFFCURVE",
"290 124 OFFCURVE",
"280 124 CURVE SMOOTH",
"263 124 OFFCURVE",
"255 137 OFFCURVE",
"257 154 CURVE SMOOTH",
"261 181 OFFCURVE",
"281 185 OFFCURVE",
"298 185 CURVE SMOOTH",
"306 185 OFFCURVE",
"327 185 OFFCURVE",
"348 185 CURVE",
"358 250 OFFCURVE",
"362 278 OFFCURVE",
"285 278 CURVE SMOOTH",
"257 278 OFFCURVE",
"184 278 OFFCURVE",
"158 278 CURVE SMOOTH",
"64 278 OFFCURVE",
"32 245 OFFCURVE",
"16 129 CURVE SMOOTH",
"2 32 OFFCURVE",
"40 6 OFFCURVE",
"108 1 CURVE SMOOTH"
);
}
);
width = 655;
},
{
layerId = "9C644782-EE44-4C4B-9808-39A279382CB0";
paths = (
{
closed = 1;
nodes = (
"301 -9 OFFCURVE",
"395 -6 OFFCURVE",
"402 42 CURVE",
"408 79 OFFCURVE",
"414 132 OFFCURVE",
"436 286 CURVE SMOOTH",
"459 455 OFFCURVE",
"386 469 OFFCURVE",
"265 469 CURVE SMOOTH",
"218 469 OFFCURVE",
"162 464 OFFCURVE",
"134 457 CURVE SMOOTH",
"116 452 OFFCURVE",
"88 446 OFFCURVE",
"84 420 CURVE SMOOTH",
"83 411 LINE",
"108 440 OFFCURVE",
"211 450 OFFCURVE",
"263 450 CURVE SMOOTH",
"400 450 OFFCURVE",
"430 415 OFFCURVE",
"404 245 CURVE SMOOTH",
"403 235 OFFCURVE",
"382 85 OFFCURVE",
"377 50 CURVE",
"374 29 OFFCURVE",
"328 12 OFFCURVE",
"196 12 CURVE SMOOTH",
"51 12 OFFCURVE",
"38 52 OFFCURVE",
"49 138 CURVE SMOOTH",
"66 257 OFFCURVE",
"114 262 OFFCURVE",
"216 262 CURVE SMOOTH",
"276 262 OFFCURVE",
"346 258 OFFCURVE",
"372 251 CURVE",
"374 258 OFFCURVE",
"378 272 OFFCURVE",
"362 275 CURVE",
"324 281 OFFCURVE",
"259 284 OFFCURVE",
"205 284 CURVE SMOOTH",
"83 284 OFFCURVE",
"42 256 OFFCURVE",
"25 137 CURVE SMOOTH",
"10 32 OFFCURVE",
"35 -9 OFFCURVE",
"191 -9 CURVE SMOOTH"
);
}
);
width = 473;
}
);
note = A.1;
},
{
color = 7;
glyphname = a;
lastChange = "2021-09-28 15:54:02 +0000";
layers = (
{
anchors = (
{
name = bottom;
position = "{260, 0}";
},
{
name = ogonek;
position = "{494, 10}";
},
{
name = top;
position = "{316, 399}";
}
);
background = {
anchors = (
{
name = bottom;
position = "{260, 0}";
},
{
name = ogonek;
position = "{494, 10}";
},
{
name = top;
position = "{316, 399}";
}
);
paths = (
{
closed = 1;
nodes = (
"522 20 OFFCURVE",
"528 57 OFFCURVE",
"550 214 CURVE SMOOTH",
"569 348 OFFCURVE",
"532 388 OFFCURVE",
"434 398 CURVE SMOOTH",
"365 405 OFFCURVE",
"185 406 OFFCURVE",
"124 395 CURVE SMOOTH",
"90 389 OFFCURVE",
"74 368 OFFCURVE",
"68 327 CURVE SMOOTH",
"63 289 LINE",
"134 289 OFFCURVE",
"205 289 OFFCURVE",
"276 289 CURVE SMOOTH",
"347 289 OFFCURVE",
"364 279 OFFCURVE",
"352 230 CURVE",
"328 239 OFFCURVE",
"197 238 OFFCURVE",
"128 238 CURVE SMOOTH",
"46 238 OFFCURVE",
"27 204 OFFCURVE",
"14 111 CURVE SMOOTH",
"3 28 OFFCURVE",
"36 5 OFFCURVE",
"94 1 CURVE SMOOTH",
"212 -8 OFFCURVE",
"495 -4 OFFCURVE",
"522 20 CURVE"
);
},
{
closed = 1;
nodes = (
"223 79 OFFCURVE",
"216 84 OFFCURVE",
"222 129 CURVE SMOOTH",
"228 174 OFFCURVE",
"236 175 OFFCURVE",
"251 175 CURVE SMOOTH",
"262 175 OFFCURVE",
"332 174 OFFCURVE",
"338 170 CURVE",
"337 166 OFFCURVE",
"329 106 OFFCURVE",
"325 84 CURVE",
"318 80 OFFCURVE",
"247 79 OFFCURVE",
"238 79 CURVE SMOOTH"
);
},
{
closed = 1;
nodes = (
"522 20 OFFCURVE",
"528 57 OFFCURVE",
"550 214 CURVE SMOOTH",
"569 348 OFFCURVE",
"532 388 OFFCURVE",
"434 398 CURVE SMOOTH",
"365 405 OFFCURVE",
"185 406 OFFCURVE",
"124 395 CURVE SMOOTH",
"90 389 OFFCURVE",
"74 368 OFFCURVE",
"68 327 CURVE SMOOTH",
"63 289 LINE",
"134 289 OFFCURVE",
"205 289 OFFCURVE",
"276 289 CURVE SMOOTH",
"347 289 OFFCURVE",
"364 279 OFFCURVE",
"352 230 CURVE",
"328 239 OFFCURVE",
"197 238 OFFCURVE",
"128 238 CURVE SMOOTH",
"46 238 OFFCURVE",
"27 204 OFFCURVE",
"14 111 CURVE SMOOTH",
"3 28 OFFCURVE",
"36 5 OFFCURVE",
"94 1 CURVE SMOOTH",
"212 -8 OFFCURVE",
"495 -4 OFFCURVE",
"522 20 CURVE"
);
},
{
closed = 1;
nodes = (
"223 79 OFFCURVE",
"216 84 OFFCURVE",
"222 129 CURVE SMOOTH",
"228 174 OFFCURVE",
"236 175 OFFCURVE",
"251 175 CURVE SMOOTH",
"262 175 OFFCURVE",
"332 174 OFFCURVE",
"338 170 CURVE",
"337 166 OFFCURVE",
"329 106 OFFCURVE",
"325 84 CURVE",
"318 80 OFFCURVE",
"247 79 OFFCURVE",
"238 79 CURVE SMOOTH"
);
}
);
};
layerId = "C7668D88-AC50-4107-9C4B-DB5D26A8FA6C";
paths = (
{
closed = 1;
nodes = (
"379 -3 OFFCURVE",
"488 4 OFFCURVE",
"522 20 CURVE",
"550 214 LINE SMOOTH",
"574 375 OFFCURVE",
"531 402 OFFCURVE",
"318 403 CURVE SMOOTH",
"234 404 OFFCURVE",
"159 401 OFFCURVE",
"124 395 CURVE SMOOTH",
"90 389 OFFCURVE",
"74 368 OFFCURVE",
"68 327 CURVE SMOOTH",
"62 289 LINE",
"133 291 OFFCURVE",
"205 293 OFFCURVE",
"276 293 CURVE SMOOTH",
"347 293 OFFCURVE",
"361 282 OFFCURVE",
"352 230 CURVE",
"328 239 OFFCURVE",
"197 238 OFFCURVE",
"128 238 CURVE SMOOTH",
"58 238 OFFCURVE",
"28 216 OFFCURVE",
"15 115 CURVE SMOOTH",
"1 7 OFFCURVE",
"32 -4 OFFCURVE",
"241 -3 CURVE SMOOTH"
);
},
{
closed = 1;
nodes = (
"230 79 OFFCURVE",
"223 88 OFFCURVE",
"229 129 CURVE SMOOTH",
"234 167 OFFCURVE",
"244 175 OFFCURVE",
"265 175 CURVE SMOOTH",
"276 175 OFFCURVE",
"322 174 OFFCURVE",
"344 170 CURVE",
"332 84 LINE",
"311 80 OFFCURVE",
"277 79 OFFCURVE",
"252 79 CURVE SMOOTH"
);
}
);
width = 571;
},
{
anchors = (
{
name = bottom;
position = "{191, 0}";
},
{
name = ogonek;
position = "{348, 10}";
},
{
name = top;
position = "{247, 399}";
}
);
layerId = "9C644782-EE44-4C4B-9808-39A279382CB0";
paths = (
{
closed = 1;
nodes = (
"321 -8 OFFCURVE",
"365 5 OFFCURVE",
"369 36 CURVE SMOOTH",
"398 247 LINE",
"418 393 OFFCURVE",
"354 405 OFFCURVE",
"246 405 CURVE SMOOTH",
"205 405 OFFCURVE",
"157 400 OFFCURVE",
"133 394 CURVE SMOOTH",
"117 390 OFFCURVE",
"93 385 OFFCURVE",
"90 362 CURVE SMOOTH",
"88 355 LINE",
"110 378 OFFCURVE",
"184 387 OFFCURVE",
"251 387 CURVE SMOOTH",
"340 387 OFFCURVE",
"396 376 OFFCURVE",
"373 229 CURVE",
"358 235 OFFCURVE",
"269 243 OFFCURVE",
"202 243 CURVE SMOOTH",
"89 243 OFFCURVE",
"51 219 OFFCURVE",
"37 118 CURVE SMOOTH",
"24 28 OFFCURVE",
"48 -8 OFFCURVE",
"187 -8 CURVE SMOOTH"
);
},
{
closed = 1;
nodes = (
"61 9 OFFCURVE",
"49 45 OFFCURVE",
"60 119 CURVE SMOOTH",
"73 221 OFFCURVE",
"116 227 OFFCURVE",
"224 227 CURVE SMOOTH",
"271 227 OFFCURVE",
"356 217 OFFCURVE",
"370 210 CURVE",
"348 40 LINE SMOOTH",
"344 19 OFFCURVE",
"304 9 OFFCURVE",
"189 9 CURVE SMOOTH"
);
}
);
width = 453;
}
);
leftKerningGroup = a;
note = a;
rightKerningGroup = n;
rightMetricsKey = "=n-3";
unicode = 0061;
},
{
color = 7;
glyphname = b;
lastChange = "2021-09-24 03:41:24 +0000";
layers = (
{
background = {
paths = (
{
closed = 1;
nodes = (
"32 193 LINE SMOOTH",
"12 47 OFFCURVE",
"25 -5 OFFCURVE",
"255 -5 CURVE SMOOTH",
"453 -5 OFFCURVE",
"522 3 OFFCURVE",
"547 181 CURVE SMOOTH",
"550 197 OFFCURVE",
"552 212 OFFCURVE",
"554 228 CURVE SMOOTH",
"574 371 OFFCURVE",
"527 401 OFFCURVE",
"353 401 CURVE SMOOTH",
"321 401 OFFCURVE",
"291 399 OFFCURVE",
"268 398 CURVE",
"273 434 OFFCURVE",
"278 469 OFFCURVE",
"283 505 CURVE",
"75 505 LINE"
);
},
{
closed = 1;
nodes = (
"236 102 OFFCURVE",
"227 111 OFFCURVE",
"235 165 CURVE SMOOTH",
"253 291 LINE",
"266 291 OFFCURVE",
"279 291 OFFCURVE",
"292 291 CURVE SMOOTH",
"333 291 OFFCURVE",
"341 281 OFFCURVE",
"337 237 CURVE SMOOTH",
"335 211 OFFCURVE",
"331 184 OFFCURVE",
"327 158 CURVE SMOOTH",
"319 115 OFFCURVE",
"309 102 OFFCURVE",
"276 102 CURVE SMOOTH"
);
},
{
closed = 1;
nodes = (
"32 193 LINE SMOOTH",
"12 47 OFFCURVE",
"25 -5 OFFCURVE",
"255 -5 CURVE SMOOTH",
"453 -5 OFFCURVE",
"522 3 OFFCURVE",
"547 181 CURVE SMOOTH",
"550 197 OFFCURVE",
"552 212 OFFCURVE",
"554 228 CURVE SMOOTH",
"574 371 OFFCURVE",
"527 401 OFFCURVE",
"353 401 CURVE SMOOTH",
"321 401 OFFCURVE",
"291 399 OFFCURVE",
"268 398 CURVE",
"273 434 OFFCURVE",
"278 469 OFFCURVE",
"283 505 CURVE",
"75 505 LINE"
);
},
{
closed = 1;
nodes = (
"236 102 OFFCURVE",
"227 111 OFFCURVE",
"235 165 CURVE SMOOTH",
"253 291 LINE",
"266 291 OFFCURVE",
"279 291 OFFCURVE",
"292 291 CURVE SMOOTH",
"333 291 OFFCURVE",
"341 281 OFFCURVE",
"337 237 CURVE SMOOTH",
"335 211 OFFCURVE",
"331 184 OFFCURVE",
"327 158 CURVE SMOOTH",
"319 115 OFFCURVE",
"309 102 OFFCURVE",
"276 102 CURVE SMOOTH"
);
},
{
closed = 1;
nodes = (
"475 -5 OFFCURVE",
"522 18 OFFCURVE",
"546 181 CURVE SMOOTH",
"553 228 LINE SMOOTH",
"574 372 OFFCURVE",
"522 400 OFFCURVE",
"370 400 CURVE SMOOTH",
"320 400 OFFCURVE",
"285 398 OFFCURVE",
"267 398 CURVE",
"272 434 OFFCURVE",
"277 469 OFFCURVE",
"282 505 CURVE",
"74 505 LINE",
"31 193 LINE SMOOTH",
"8 23 OFFCURVE",
"48 -5 OFFCURVE",
"267 -5 CURVE SMOOTH"
);
},
{
closed = 1;
nodes = (
"236 102 OFFCURVE",
"226 110 OFFCURVE",
"234 165 CURVE SMOOTH",
"252 291 LINE",
"265 291 OFFCURVE",
"278 291 OFFCURVE",
"291 291 CURVE SMOOTH",
"332 291 OFFCURVE",
"342 281 OFFCURVE",
"336 237 CURVE SMOOTH",
"326 158 LINE SMOOTH",
"321 115 OFFCURVE",
"308 102 OFFCURVE",
"273 102 CURVE SMOOTH"
);
}
);
};
layerId = "C7668D88-AC50-4107-9C4B-DB5D26A8FA6C";
paths = (
{
closed = 1;
nodes = (
"443 -5 OFFCURVE",
"519 20 OFFCURVE",
"543 193 CURVE SMOOTH",
"565 350 OFFCURVE",
"531 400 OFFCURVE",
"370 400 CURVE SMOOTH",
"320 400 OFFCURVE",
"285 398 OFFCURVE",
"267 398 CURVE",
"282 505 LINE",
"77 505 LINE",
"34 193 LINE SMOOTH",
"11 23 OFFCURVE",
"50 -5 OFFCURVE",
"256 -5 CURVE SMOOTH"
);
},
{
closed = 1;
nodes = (
"236 102 OFFCURVE",
"226 110 OFFCURVE",
"234 165 CURVE SMOOTH",
"252 291 LINE",
"265 291 OFFCURVE",
"278 291 OFFCURVE",
"291 291 CURVE SMOOTH",
"339 291 OFFCURVE",
"345 278 OFFCURVE",
"336 203 CURVE SMOOTH",
"323 110 OFFCURVE",
"320 102 OFFCURVE",
"273 102 CURVE SMOOTH"
);
}
);
width = 568;
},
{
layerId = "9C644782-EE44-4C4B-9808-39A279382CB0";
paths = (
{
closed = 1;
nodes = (
"301 -2 OFFCURVE",
"381 -2 OFFCURVE",
"410 203 CURVE SMOOTH",
"428 347 OFFCURVE",
"395 400 OFFCURVE",
"262 400 CURVE SMOOTH",
"229 400 OFFCURVE",
"122 395 OFFCURVE",
"115 394 CURVE",
"131 505 LINE",
"109 505 LINE",
"66 193 LINE SMOOTH",
"41 17 OFFCURVE",
"62 -2 OFFCURVE",
"196 -2 CURVE SMOOTH"
);
},
{
closed = 1;
nodes = (
"74 16 OFFCURVE",
"66 40 OFFCURVE",
"88 192 CURVE SMOOTH",
"114 377 LINE",
"121 378 OFFCURVE",
"225 382 OFFCURVE",
"267 382 CURVE SMOOTH",
"367 382 OFFCURVE",
"406 332 OFFCURVE",
"388 203 CURVE SMOOTH",
"364 42 OFFCURVE",
"322 16 OFFCURVE",
"200 16 CURVE SMOOTH"
);
}
);
width = 461;
}
);
leftKerningGroup = b;
leftMetricsKey = l;
note = b;
rightKerningGroup = o;
rightMetricsKey = o;
unicode = 0062;
},
{
color = 7;
glyphname = c;
lastChange = "2021-09-24 03:41:24 +0000";
layers = (
{
anchors = (
{
name = bottom;
position = "{242, 0}";
},
{
name = top;
position = "{299, 399}";
}
);
background = {
anchors = (
{
name = bottom;
position = "{242, 0}";
},
{
name = top;
position = "{299, 399}";
}
);
hints = (
{
horizontal = 1;
place = "{-4, 104}";
type = Stem;
},
{
horizontal = 1;
place = "{301, 99}";
type = Stem;
},
{
place = "{30, 201}";
type = Stem;
}
);
paths = (
{
closed = 1;
nodes = (
"-2 29 OFFCURVE",
"67 -7 OFFCURVE",
"263 -7 CURVE SMOOTH",
"380 -7 OFFCURVE",
"466 -7 OFFCURVE",
"476 59 CURVE SMOOTH",
"484 112 LINE",
"461 105 OFFCURVE",
"395 100 OFFCURVE",
"355 100 CURVE SMOOTH",
"242 100 OFFCURVE",
"211 125 OFFCURVE",
"221 202 CURVE SMOOTH",
"232 279 OFFCURVE",
"271 304 OFFCURVE",
"384 304 CURVE SMOOTH",
"424 304 OFFCURVE",
"488 299 OFFCURVE",
"509 292 CURVE",
"521 375 OFFCURVE",
"498 390 OFFCURVE",
"458 395 CURVE SMOOTH",
"405 402 OFFCURVE",
"376 405 OFFCURVE",
"321 405 CURVE SMOOTH",
"125 405 OFFCURVE",
"46 367 OFFCURVE",
"22 200 CURVE SMOOTH"
);
},
{
closed = 1;
nodes = (
"-2 29 OFFCURVE",
"67 -7 OFFCURVE",
"263 -7 CURVE SMOOTH",
"380 -7 OFFCURVE",
"466 -7 OFFCURVE",
"476 59 CURVE SMOOTH",
"484 112 LINE",
"461 105 OFFCURVE",
"395 100 OFFCURVE",
"355 100 CURVE SMOOTH",
"242 100 OFFCURVE",
"211 125 OFFCURVE",
"221 202 CURVE SMOOTH",
"232 279 OFFCURVE",
"271 304 OFFCURVE",
"384 304 CURVE SMOOTH",
"424 304 OFFCURVE",
"488 299 OFFCURVE",
"509 292 CURVE",
"521 375 OFFCURVE",
"498 390 OFFCURVE",
"458 395 CURVE SMOOTH",
"405 402 OFFCURVE",
"376 405 OFFCURVE",
"321 405 CURVE SMOOTH",
"125 405 OFFCURVE",
"46 367 OFFCURVE",
"22 200 CURVE SMOOTH"
);
},
{
closed = 1;
nodes = (
"362 -7 OFFCURVE",
"449 -7 OFFCURVE",
"458 59 CURVE SMOOTH",
"466 112 LINE",
"443 105 OFFCURVE",
"377 100 OFFCURVE",
"337 100 CURVE SMOOTH",
"240 100 OFFCURVE",
"214 125 OFFCURVE",
"224 202 CURVE SMOOTH",
"235 279 OFFCURVE",
"269 304 OFFCURVE",
"366 304 CURVE SMOOTH",
"406 304 OFFCURVE",
"470 299 OFFCURVE",
"491 292 CURVE",
"503 375 OFFCURVE",
"480 390 OFFCURVE",
"440 395 CURVE SMOOTH",
"387 402 OFFCURVE",
"358 405 OFFCURVE",
"323 405 CURVE SMOOTH",
"127 405 OFFCURVE",
"48 367 OFFCURVE",
"22 187 CURVE SMOOTH",
"0 29 OFFCURVE",
"69 -7 OFFCURVE",
"265 -7 CURVE SMOOTH"
);
}
);
};
layerId = "C7668D88-AC50-4107-9C4B-DB5D26A8FA6C";
paths = (
{
closed = 1;
nodes = (
"362 -7 OFFCURVE",
"449 -7 OFFCURVE",
"458 59 CURVE SMOOTH",
"466 112 LINE",
"443 105 OFFCURVE",
"377 100 OFFCURVE",
"337 100 CURVE SMOOTH",
"248 100 OFFCURVE",
"224 125 OFFCURVE",
"234 202 CURVE SMOOTH",
"245 279 OFFCURVE",
"277 304 OFFCURVE",
"366 304 CURVE SMOOTH",
"406 304 OFFCURVE",
"470 299 OFFCURVE",
"491 292 CURVE",
"503 375 OFFCURVE",
"480 390 OFFCURVE",
"440 395 CURVE SMOOTH",
"387 402 OFFCURVE",
"358 405 OFFCURVE",
"323 405 CURVE SMOOTH",
"112 405 OFFCURVE",
"49 372 OFFCURVE",
"22 187 CURVE SMOOTH",
"2 41 OFFCURVE",
"73 -7 OFFCURVE",
"265 -7 CURVE SMOOTH"
);
}
);
width = 500;
},
{
anchors = (
{
name = bottom;
position = "{219, 0}";
},
{
name = top;
position = "{270, 399}";
}
);
layerId = "9C644782-EE44-4C4B-9808-39A279382CB0";
paths = (
{
closed = 1;
nodes = (
"301 -5 OFFCURVE",
"353 9 OFFCURVE",
"355 25 CURVE SMOOTH",
"357 36 LINE",
"330 24 OFFCURVE",
"284 14 OFFCURVE",
"222 14 CURVE SMOOTH",
"88 14 OFFCURVE",
"56 59 OFFCURVE",
"75 200 CURVE SMOOTH",
"95 340 OFFCURVE",
"143 386 OFFCURVE",
"274 386 CURVE SMOOTH",
"315 386 OFFCURVE",
"380 377 OFFCURVE",
"403 365 CURVE",
"406 384 OFFCURVE",
"399 391 OFFCURVE",
"371 396 CURVE SMOOTH",
"338 402 OFFCURVE",
"312 405 OFFCURVE",
"278 405 CURVE SMOOTH",
"135 405 OFFCURVE",
"74 367 OFFCURVE",
"51 200 CURVE SMOOTH",
"28 35 OFFCURVE",
"77 -5 OFFCURVE",
"220 -5 CURVE SMOOTH"
);
}
);
width = 412;
}
);
leftKerningGroup = o;
leftMetricsKey = o;
note = c;
rightKerningGroup = c;
unicode = 0063;
},
{
color = 7;
glyphname = d;
lastChange = "2021-09-24 03:41:24 +0000";
layers = (
{
anchors = (
{
name = bottom;
position = "{260, 0}";
},
{
name = topright;
position = "{618, 505}";
}
);
background = {
anchors = (
{
name = bottom;
position = "{260, 0}";
},
{
name = center;
position = "{288, 200}";
},
{
name = top;
position = "{395, 960}";
},
{
name = topright;
position = "{618, 505}";
}
);
paths = (
{
closed = 1;
nodes = (
"-607 0 OFFCURVE",
"-528 -2 OFFCURVE",
"-355 -2 CURVE SMOOTH",
"-172 -2 OFFCURVE",
"-86 18 OFFCURVE",
"-60 201 CURVE SMOOTH",
"-17 505 LINE",
"-225 505 LINE",
"-241 394 LINE",
"-251 398 OFFCURVE",
"-288 400 OFFCURVE",
"-307 400 CURVE SMOOTH",
"-470 400 OFFCURVE",
"-556 366 OFFCURVE",
"-580 198 CURVE SMOOTH"
);
},
{
closed = 1;
nodes = (
"-362 102 OFFCURVE",
"-377 118 OFFCURVE",
"-363 215 CURVE SMOOTH",
"-354 277 OFFCURVE",
"-343 290 OFFCURVE",
"-280 290 CURVE SMOOTH",
"-268 290 OFFCURVE",
"-263 290 OFFCURVE",
"-258 290 CURVE",
"-271 178 LINE SMOOTH",
"-277 124 OFFCURVE",
"-295 102 OFFCURVE",
"-333 102 CURVE SMOOTH"
);
},
{
closed = 1;
nodes = (
"-607 0 OFFCURVE",
"-528 -2 OFFCURVE",
"-355 -2 CURVE SMOOTH",
"-172 -2 OFFCURVE",
"-86 18 OFFCURVE",
"-60 201 CURVE SMOOTH",
"-17 505 LINE",
"-225 505 LINE",
"-241 394 LINE",
"-251 398 OFFCURVE",
"-288 400 OFFCURVE",
"-307 400 CURVE SMOOTH",
"-470 400 OFFCURVE",
"-556 366 OFFCURVE",
"-580 198 CURVE SMOOTH"
);
},
{
closed = 1;
nodes = (
"-362 102 OFFCURVE",
"-377 118 OFFCURVE",
"-363 215 CURVE SMOOTH",
"-354 277 OFFCURVE",
"-343 290 OFFCURVE",
"-280 290 CURVE SMOOTH",
"-268 290 OFFCURVE",
"-263 290 OFFCURVE",
"-258 290 CURVE",
"-271 178 LINE SMOOTH",
"-277 124 OFFCURVE",
"-295 102 OFFCURVE",
"-333 102 CURVE SMOOTH"
);
},
{
closed = 1;
nodes = (
"-600 36 OFFCURVE",
"-562 -2 OFFCURVE",
"-362 -2 CURVE SMOOTH",
"-170 -2 OFFCURVE",
"-84 18 OFFCURVE",
"-58 201 CURVE SMOOTH",
"-15 505 LINE",
"-223 505 LINE",
"-239 394 LINE",
"-249 398 OFFCURVE",
"-286 400 OFFCURVE",
"-305 400 CURVE SMOOTH",
"-468 400 OFFCURVE",
"-554 366 OFFCURVE",
"-578 198 CURVE SMOOTH"
);
},
{
closed = 1;
nodes = (
"-360 102 OFFCURVE",
"-375 118 OFFCURVE",
"-364 198 CURVE SMOOTH",
"-352 277 OFFCURVE",
"-341 290 OFFCURVE",
"-278 290 CURVE SMOOTH",
"-266 290 OFFCURVE",
"-261 290 OFFCURVE",
"-256 290 CURVE",
"-269 178 LINE SMOOTH",
"-275 124 OFFCURVE",
"-293 102 OFFCURVE",
"-331 102 CURVE SMOOTH"
);
},
{
closed = 1;
nodes = (
"2 39 OFFCURVE",
"51 -2 OFFCURVE",
"234 -2 CURVE SMOOTH",
"434 -2 OFFCURVE",
"509 18 OFFCURVE",
"535 201 CURVE SMOOTH",
"578 505 LINE",
"373 505 LINE",
"351 349 LINE",
"400 367 LINE",
"378 391 OFFCURVE",
"319 405 OFFCURVE",
"260 405 CURVE SMOOTH",
"135 405 OFFCURVE",
"48 362 OFFCURVE",
"24 198 CURVE SMOOTH"
);
},
{
closed = 1;
nodes = (
"236 102 OFFCURVE",
"221 118 OFFCURVE",
"232 198 CURVE SMOOTH",
"244 277 OFFCURVE",
"255 290 OFFCURVE",
"318 290 CURVE SMOOTH",
"330 290 OFFCURVE",
"335 290 OFFCURVE",
"340 290 CURVE",
"327 178 LINE SMOOTH",
"320 124 OFFCURVE",
"303 102 OFFCURVE",
"265 102 CURVE SMOOTH"
);
}
);
};
layerId = "C7668D88-AC50-4107-9C4B-DB5D26A8FA6C";
paths = (
{
closed = 1;
nodes = (
"434 -2 OFFCURVE",
"509 18 OFFCURVE",
"535 201 CURVE SMOOTH",
"578 505 LINE",
"373 505 LINE",
"351 349 LINE",
"400 367 LINE",
"378 391 OFFCURVE",
"319 405 OFFCURVE",
"260 405 CURVE SMOOTH",
"124 405 OFFCURVE",
"47 358 OFFCURVE",
"24 198 CURVE SMOOTH",
"4 51 OFFCURVE",
"57 -2 OFFCURVE",
"234 -2 CURVE SMOOTH"
);
},
{
closed = 1;
nodes = (
"236 102 OFFCURVE",
"221 118 OFFCURVE",
"232 198 CURVE SMOOTH",
"244 277 OFFCURVE",
"255 290 OFFCURVE",
"318 290 CURVE SMOOTH",
"330 290 OFFCURVE",
"335 290 OFFCURVE",
"340 290 CURVE",
"327 178 LINE SMOOTH",
"320 124 OFFCURVE",
"303 102 OFFCURVE",
"265 102 CURVE SMOOTH"
);
}
);
width = 561;
},
{
anchors = (
{
name = bottom;
position = "{199, 0}";
},
{
name = topright;
position = "{489, 505}";
}
);
layerId = "9C644782-EE44-4C4B-9808-39A279382CB0";
paths = (
{
closed = 1;
nodes = (
"341 -2 OFFCURVE",
"367 17 OFFCURVE",
"394 201 CURVE SMOOTH",
"438 505 LINE",
"417 505 LINE",
"400 384 LINE",
"412 391 LINE",
"399 394 OFFCURVE",
"296 400 OFFCURVE",
"255 400 CURVE SMOOTH",
"140 400 OFFCURVE",
"74 364 OFFCURVE",
"51 203 CURVE SMOOTH",
"27 28 OFFCURVE",
"66 -2 OFFCURVE",
"199 -2 CURVE SMOOTH"
);
},
{
closed = 1;
nodes = (
"80 16 OFFCURVE",
"52 48 OFFCURVE",
"73 199 CURVE SMOOTH",
"93 346 OFFCURVE",
"145 382 OFFCURVE",
"254 382 CURVE SMOOTH",
"297 382 OFFCURVE",
"370 377 OFFCURVE",
"399 375 CURVE",
"373 196 LINE SMOOTH",
"351 37 OFFCURVE",
"332 16 OFFCURVE",
"195 16 CURVE SMOOTH"
);
}
);
width = 459;
}
);
leftKerningGroup = o;
leftMetricsKey = o;
note = d;
rightKerningGroup = d;
rightMetricsKey = n;
unicode = 0064;
},
{
color = 7;
glyphname = eth;
lastChange = "2021-09-24 03:41:24 +0000";
layers = (
{
background = {
components = (
{
name = partialdiff;
}
);
hints = (
{
horizontal = 1;
place = "{-2, 104}";
type = Stem;
},
{
horizontal = 1;
place = "{290, 89}";
type = Stem;
},
{
place = "{35, 202}";
type = Stem;
},
{
place = "{341, 206}";
type = Stem;
}
);
paths = (
{
closed = 1;
nodes = (
"162 405 LINE",
"379 644 LINE",
"336 683 LINE",
"122 444 LINE"
);
}
);
};
components = (
{
name = partialdiff;
}
);
layerId = "C7668D88-AC50-4107-9C4B-DB5D26A8FA6C";
paths = (
{
closed = 1;
nodes = (
"162 405 LINE",
"379 644 LINE",
"336 683 LINE",
"122 444 LINE"
);
}
);
width = 593;
},
{
components = (
{
alignment = -1;
name = partialdiff;
}
);
layerId = "9C644782-EE44-4C4B-9808-39A279382CB0";
paths = (
{
closed = 1;
nodes = (
"104 471 LINE",
"266 584 LINE",
"256 600 LINE",
"93 486 LINE"
);
}
);
width = 428;
}
);
note = eth;
unicode = 00F0;
},
{
color = 7;
glyphname = dcroat;
lastChange = "2021-09-28 21:39:39 +0000";
layers = (
{
background = {
paths = (
{
closed = 1;
nodes = (
"315 469 LINE",
"373 469 LINE",
"363 394 LINE",
"329 398 OFFCURVE",
"342 400 OFFCURVE",
"296 400 CURVE SMOOTH",
"133 400 OFFCURVE",
"48 366 OFFCURVE",
"24 198 CURVE SMOOTH",
"-4 0 OFFCURVE",
"76 -2 OFFCURVE",
"249 -2 CURVE SMOOTH",
"432 -2 OFFCURVE",
"517 18 OFFCURVE",
"543 201 CURVE SMOOTH",
"581 469 LINE",
"637 469 LINE",
"647 542 LINE",
"591 542 LINE",
"603 626 LINE",
"395 626 LINE",
"383 542 LINE",
"325 542 LINE"
);
},
{
closed = 1;
nodes = (
"220 102 OFFCURVE",
"222 134 OFFCURVE",
"233 215 CURVE SMOOTH",
"243 285 OFFCURVE",
"270 290 OFFCURVE",
"341 290 CURVE SMOOTH",
"343 290 OFFCURVE",
"346 290 OFFCURVE",
"348 290 CURVE",
"332 178 LINE SMOOTH",
"321 102 OFFCURVE",
"285 102 OFFCURVE",
"270 102 CURVE SMOOTH"
);
}
);
};
layerId = "C7668D88-AC50-4107-9C4B-DB5D26A8FA6C";
paths = (
{
closed = 1;
nodes = (
"315 469 LINE",
"373 469 LINE",
"363 394 LINE",
"354 393 OFFCURVE",
"322 400 OFFCURVE",
"271 400 CURVE SMOOTH",
"133 400 OFFCURVE",
"48 366 OFFCURVE",
"24 198 CURVE SMOOTH",
"0 31 OFFCURVE",
"41 -2 OFFCURVE",
"249 -2 CURVE SMOOTH",
"462 -2 OFFCURVE",
"521 46 OFFCURVE",
"543 201 CURVE SMOOTH",
"581 469 LINE",
"637 469 LINE",
"647 542 LINE",
"591 542 LINE",
"603 626 LINE",
"395 626 LINE",
"383 542 LINE",
"325 542 LINE"
);
},
{
closed = 1;
nodes = (
"220 102 OFFCURVE",
"222 134 OFFCURVE",
"233 215 CURVE SMOOTH",
"243 285 OFFCURVE",
"270 290 OFFCURVE",
"341 290 CURVE SMOOTH",
"343 290 OFFCURVE",
"346 290 OFFCURVE",
"348 290 CURVE",
"332 178 LINE SMOOTH",
"321 102 OFFCURVE",
"285 102 OFFCURVE",
"270 102 CURVE SMOOTH"
);
}
);
width = 589;
},
{
layerId = "9C644782-EE44-4C4B-9808-39A279382CB0";
paths = (
{
closed = 1;
nodes = (
"328 504 LINE",
"417 504 LINE",
"401 394 LINE",
"394 395 OFFCURVE",
"289 400 OFFCURVE",
"255 400 CURVE SMOOTH",
"139 400 OFFCURVE",
"74 364 OFFCURVE",
"51 203 CURVE SMOOTH",
"22 -7 OFFCURVE",
"89 -2 OFFCURVE",
"206 -2 CURVE SMOOTH",
"340 -2 OFFCURVE",
"368 17 OFFCURVE",
"394 201 CURVE SMOOTH",
"438 504 LINE",
"527 504 LINE",
"529 519 LINE",
"440 519 LINE",
"450 591 LINE",
"429 591 LINE",
"419 519 LINE",
"330 519 LINE"
);
},
{
closed = 1;
nodes = (
"77 14 OFFCURVE",
"50 39 OFFCURVE",
"73 199 CURVE SMOOTH",
"90 325 OFFCURVE",
"125 383 OFFCURVE",
"254 383 CURVE SMOOTH",
"296 383 OFFCURVE",
"391 377 OFFCURVE",
"398 376 CURVE",
"373 196 LINE SMOOTH",
"348 21 OFFCURVE",
"322 14 OFFCURVE",
"184 14 CURVE SMOOTH"
);
}
);
width = 477;
}
);
leftKerningGroup = o;
leftMetricsKey = d;
note = dcroat;
rightKerningGroup = l;
unicode = 0111;
},
{
color = 7;
glyphname = e;
lastChange = "2021-09-24 03:41:24 +0000";
layers = (
{
anchors = (
{
name = bottom;
position = "{262, 0}";
},
{
name = ogonek;
position = "{331, 10}";
},
{
name = top;
position = "{326, 399}";
}
);
background = {
anchors = (
{
name = bottom;
position = "{262, 0}";
},
{
name = ogonek;
position = "{331, 10}";
},
{
name = top;
position = "{326, 399}";
}
);
paths = (
{
closed = 1;
nodes = (
"343 161 OFFCURVE",
"440 161 OFFCURVE",
"538 161 CURVE",
"543 198 OFFCURVE",
"548 236 OFFCURVE",
"554 273 CURVE SMOOTH",
"571 398 OFFCURVE",
"416 400 OFFCURVE",
"331 400 CURVE SMOOTH",
"164 400 OFFCURVE",
"50 380 OFFCURVE",
"22 185 CURVE SMOOTH",
"-4 1 OFFCURVE",
"73 -5 OFFCURVE",
"262 -5 CURVE SMOOTH",
"401 -5 OFFCURVE",
"476 -2 OFFCURVE",
"499 22 CURVE SMOOTH",
"514 36 OFFCURVE",
"523 68 OFFCURVE",
"527 91 CURVE SMOOTH",
"528 101 OFFCURVE",
"530 109 OFFCURVE",
"530 114 CURVE",
"519 113 OFFCURVE",
"367 110 OFFCURVE",
"344 110 CURVE SMOOTH",
"244 110 OFFCURVE",
"220 106 OFFCURVE",
"232 189 CURVE SMOOTH",
"244 274 OFFCURVE",
"255 290 OFFCURVE",
"315 290 CURVE SMOOTH",
"371 290 OFFCURVE",
"369 265 OFFCURVE",
"364 226 CURVE",
"346 226 OFFCURVE",
"329 226 OFFCURVE",
"311 226 CURVE SMOOTH",
"256 226 OFFCURVE",
"249 188 OFFCURVE",
"245 161 CURVE"
);
},
{
closed = 1;
nodes = (
"343 161 OFFCURVE",
"440 161 OFFCURVE",
"538 161 CURVE",
"543 198 OFFCURVE",
"548 236 OFFCURVE",
"554 273 CURVE SMOOTH",
"571 398 OFFCURVE",
"416 400 OFFCURVE",
"331 400 CURVE SMOOTH",
"164 400 OFFCURVE",
"50 380 OFFCURVE",
"22 185 CURVE SMOOTH",
"-4 1 OFFCURVE",
"73 -5 OFFCURVE",
"262 -5 CURVE SMOOTH",
"401 -5 OFFCURVE",
"476 -2 OFFCURVE",
"499 22 CURVE SMOOTH",
"514 36 OFFCURVE",
"523 68 OFFCURVE",
"527 91 CURVE SMOOTH",
"528 101 OFFCURVE",
"530 109 OFFCURVE",
"530 114 CURVE",
"519 113 OFFCURVE",
"367 110 OFFCURVE",
"344 110 CURVE SMOOTH",
"244 110 OFFCURVE",
"220 106 OFFCURVE",
"232 189 CURVE SMOOTH",
"244 274 OFFCURVE",
"255 290 OFFCURVE",
"315 290 CURVE SMOOTH",
"371 290 OFFCURVE",
"369 265 OFFCURVE",
"364 226 CURVE",
"346 226 OFFCURVE",
"329 226 OFFCURVE",
"311 226 CURVE SMOOTH",
"256 226 OFFCURVE",
"249 188 OFFCURVE",
"245 161 CURVE"
);
},
{
closed = 1;
nodes = (
"401 -5 OFFCURVE",
"476 -2 OFFCURVE",
"499 22 CURVE SMOOTH",
"514 36 OFFCURVE",
"523 68 OFFCURVE",
"527 91 CURVE SMOOTH",
"528 101 OFFCURVE",
"530 109 OFFCURVE",
"530 114 CURVE",
"519 113 OFFCURVE",
"367 110 OFFCURVE",
"324 110 CURVE SMOOTH",
"234 110 OFFCURVE",
"222 119 OFFCURVE",
"232 189 CURVE SMOOTH",
"244 274 OFFCURVE",
"255 290 OFFCURVE",
"315 290 CURVE SMOOTH",
"371 290 OFFCURVE",
"369 265 OFFCURVE",
"364 226 CURVE",
"311 226 LINE SMOOTH",
"268 226 OFFCURVE",
"252 198 OFFCURVE",
"247 161 CURVE",
"538 161 LINE",
"543 198 OFFCURVE",
"548 236 OFFCURVE",
"554 273 CURVE SMOOTH",
"565 355 OFFCURVE",
"511 400 OFFCURVE",
"331 400 CURVE SMOOTH",
"114 400 OFFCURVE",
"45 348 OFFCURVE",
"22 185 CURVE SMOOTH",
"0 24 OFFCURVE",
"36 -5 OFFCURVE",
"251 -5 CURVE SMOOTH"
);
}
);
};
layerId = "C7668D88-AC50-4107-9C4B-DB5D26A8FA6C";
paths = (
{
closed = 1;
nodes = (
"394 -5 OFFCURVE",
"465 -2 OFFCURVE",
"488 22 CURVE SMOOTH",
"503 36 OFFCURVE",
"512 68 OFFCURVE",
"516 91 CURVE SMOOTH",
"519 114 LINE",
"508 113 OFFCURVE",
"356 110 OFFCURVE",
"313 110 CURVE SMOOTH",
"232 110 OFFCURVE",
"221 119 OFFCURVE",
"231 189 CURVE SMOOTH",
"244 280 OFFCURVE",
"255 297 OFFCURVE",
"307 297 CURVE SMOOTH",
"351 297 OFFCURVE",
"354 276 OFFCURVE",
"351 242 CURVE SMOOTH",
"349 226 LINE",
"315 226 LINE SMOOTH",
"271 226 OFFCURVE",
"254 198 OFFCURVE",
"249 161 CURVE",
"524 161 LINE",
"537 253 LINE SMOOTH",
"551 355 OFFCURVE",
"499 400 OFFCURVE",
"330 400 CURVE SMOOTH",
"114 400 OFFCURVE",
"45 348 OFFCURVE",
"22 185 CURVE SMOOTH",
"0 28 OFFCURVE",
"43 -5 OFFCURVE",
"250 -5 CURVE SMOOTH"
);
}
);
width = 549;
},
{
anchors = (
{
name = bottom;
position = "{207, 0}";
},
{
name = ogonek;
position = "{270, 3}";
},
{
name = top;
position = "{265, 399}";
}
);
layerId = "9C644782-EE44-4C4B-9808-39A279382CB0";
paths = (
{
closed = 1;
nodes = (
"252 -7 OFFCURVE",
"296 -3 OFFCURVE",
"331 4 CURVE SMOOTH",
"357 10 OFFCURVE",
"363 17 OFFCURVE",
"365 26 CURVE SMOOTH",
"366 34 LINE",
"340 21 OFFCURVE",
"264 12 OFFCURVE",
"212 12 CURVE SMOOTH",
"92 12 OFFCURVE",
"54 49 OFFCURVE",
"74 200 CURVE SMOOTH",
"95 345 OFFCURVE",
"144 386 OFFCURVE",
"265 386 CURVE SMOOTH",
"359 386 OFFCURVE",
"393 340 OFFCURVE",
"382 246 CURVE SMOOTH",
"378 213 LINE",
"132 213 LINE SMOOTH",
"118 213 OFFCURVE",
"113 205 OFFCURVE",
"112 196 CURVE",
"397 196 LINE",
"403 241 LINE SMOOTH",
"419 352 OFFCURVE",
"378 405 OFFCURVE",
"267 405 CURVE SMOOTH",
"119 405 OFFCURVE",
"73 350 OFFCURVE",
"51 200 CURVE SMOOTH",
"28 34 OFFCURVE",
"74 -7 OFFCURVE",
"210 -7 CURVE SMOOTH"
);
}
);
width = 436;
}
);
leftKerningGroup = o;
leftMetricsKey = o;
note = e;
rightKerningGroup = e;
unicode = 0065;
},
{
color = 7;
glyphname = f;
lastChange = "2021-09-24 03:41:24 +0000";
layers = (
{
background = {
paths = (
{
closed = 1;
nodes = (
"27 246 LINE",
"65 246 LINE",
"39 59 LINE SMOOTH",
"33 18 OFFCURVE",
"41 0 OFFCURVE",
"93 0 CURVE SMOOTH",
"238 0 LINE",
"273 246 LINE",
"460 246 LINE",
"475 352 LINE",
"288 352 LINE",
"290 365 LINE SMOOTH",
"292 383 OFFCURVE",
"300 399 OFFCURVE",
"329 399 CURVE SMOOTH",
"351 399 OFFCURVE",
"456 398 OFFCURVE",
"480 391 CURVE",
"495 497 LINE",
"429 503 OFFCURVE",
"298 510 OFFCURVE",
"212 505 CURVE SMOOTH",
"126 500 OFFCURVE",
"93 447 OFFCURVE",
"83 376 CURVE SMOOTH",
"80 352 LINE",
"42 352 LINE"
);
},
{
closed = 1;
nodes = (
"27 246 LINE",
"65 246 LINE",
"39 59 LINE SMOOTH",
"33 18 OFFCURVE",
"41 0 OFFCURVE",
"93 0 CURVE SMOOTH",
"238 0 LINE",
"273 246 LINE",
"460 246 LINE",
"475 352 LINE",
"288 352 LINE",
"290 365 LINE SMOOTH",
"293 383 OFFCURVE",
"300 399 OFFCURVE",
"329 399 CURVE SMOOTH",
"351 399 OFFCURVE",
"456 398 OFFCURVE",
"480 391 CURVE",
"495 497 LINE",
"429 503 OFFCURVE",
"298 510 OFFCURVE",
"212 505 CURVE SMOOTH",
"126 500 OFFCURVE",
"92 447 OFFCURVE",
"83 376 CURVE SMOOTH",
"80 352 LINE",
"42 352 LINE"
);
}
);
};
layerId = "C7668D88-AC50-4107-9C4B-DB5D26A8FA6C";
paths = (
{
closed = 1;
nodes = (
"28 246 LINE",
"66 246 LINE",
"40 59 LINE SMOOTH",
"34 18 OFFCURVE",
"42 0 OFFCURVE",
"94 0 CURVE SMOOTH",
"239 0 LINE",
"274 246 LINE",
"441 246 LINE",
"456 352 LINE",
"289 352 LINE",
"291 365 LINE SMOOTH",
"293 383 OFFCURVE",
"301 399 OFFCURVE",
"330 399 CURVE SMOOTH",
"373 399 OFFCURVE",
"457 398 OFFCURVE",
"481 391 CURVE",
"496 497 LINE",
"430 503 OFFCURVE",
"324 507 OFFCURVE",
"239 507 CURVE SMOOTH",
"137 507 OFFCURVE",
"96 460 OFFCURVE",
"84 376 CURVE SMOOTH",
"81 352 LINE",
"43 352 LINE"
);
}
);
width = 472;
},
{
layerId = "9C644782-EE44-4C4B-9808-39A279382CB0";
paths = (
{
closed = 1;
nodes = (
"62 336 LINE",
"93 336 LINE",
"49 16 LINE SMOOTH",
"47 2 OFFCURVE",
"50 0 OFFCURVE",
"59 0 CURVE SMOOTH",
"68 0 LINE",
"114 336 LINE",
"211 336 LINE",
"213 352 LINE",
"117 352 LINE",
"126 417 LINE SMOOTH",
"133 472 OFFCURVE",
"147 488 OFFCURVE",
"197 488 CURVE SMOOTH",
"225 488 OFFCURVE",
"239 484 OFFCURVE",
"251 480 CURVE",
"254 498 LINE",
"241 500 OFFCURVE",
"224 505 OFFCURVE",
"188 505 CURVE SMOOTH",
"131 505 OFFCURVE",
"114 478 OFFCURVE",
"106 423 CURVE SMOOTH",
"96 352 LINE",
"65 352 LINE"
);
}
);
width = 222;
}
);
leftKerningGroup = f;
note = f;
rightKerningGroup = f;
unicode = 0066;
},
{
color = 7;
glyphname = g;
lastChange = "2021-09-24 03:41:24 +0000";
layers = (
{
anchors = (
{
name = bottom;
position = "{207, -164}";
},
{
name = top;
position = "{318, 399}";
}
);
background = {
anchors = (
{
name = bottom;
position = "{194, -350}";
},
{
name = top;
position = "{318, 399}";
}
);
paths = (
{
closed = 1;
nodes = (
"15 -16 OFFCURVE",
"10 -47 OFFCURVE",
"9 -56 CURVE SMOOTH",
"-1 -129 OFFCURVE",
"135 -118 OFFCURVE",
"216 -118 CURVE SMOOTH",
"407 -118 OFFCURVE",
"502 -86 OFFCURVE",
"521 61 CURVE SMOOTH",
"534 166 OFFCURVE",
"547 246 OFFCURVE",
"558 326 CURVE SMOOTH",
"562 355 OFFCURVE",
"566 382 OFFCURVE",
"569 387 CURVE",
"546 389 OFFCURVE",
"397 401 OFFCURVE",
"345 401 CURVE SMOOTH",
"141 401 OFFCURVE",
"39 378 OFFCURVE",
"19 228 CURVE SMOOTH",
"-5 45 OFFCURVE",
"55 24 OFFCURVE",
"196 24 CURVE SMOOTH",
"269 24 OFFCURVE",
"306 41 OFFCURVE",
"317 69 CURVE",
"300 -26 OFFCURVE",
"277 -30 OFFCURVE",
"180 -30 CURVE SMOOTH",
"121 -30 OFFCURVE",
"31 -16 OFFCURVE",
"16 -9 CURVE"
);
},
{
closed = 1;
nodes = (
"335 212 LINE",
"327 152 OFFCURVE",
"289 117 OFFCURVE",
"271 117 CURVE SMOOTH",
"237 117 OFFCURVE",
"219 119 OFFCURVE",
"232 230 CURVE SMOOTH",
"238 282 OFFCURVE",
"254 294 OFFCURVE",
"292 294 CURVE SMOOTH",
"322 294 OFFCURVE",
"339 293 OFFCURVE",
"347 293 CURVE"
);
},
{
closed = 1;
nodes = (
"15 -16 OFFCURVE",
"10 -47 OFFCURVE",
"9 -56 CURVE SMOOTH",
"-1 -129 OFFCURVE",
"135 -118 OFFCURVE",
"216 -118 CURVE SMOOTH",
"407 -118 OFFCURVE",
"502 -86 OFFCURVE",
"521 61 CURVE SMOOTH",
"534 166 OFFCURVE",
"547 246 OFFCURVE",
"558 326 CURVE SMOOTH",
"562 355 OFFCURVE",
"566 382 OFFCURVE",
"569 387 CURVE",
"546 389 OFFCURVE",
"397 401 OFFCURVE",
"345 401 CURVE SMOOTH",
"141 401 OFFCURVE",
"39 378 OFFCURVE",
"19 228 CURVE SMOOTH",
"-5 45 OFFCURVE",
"55 24 OFFCURVE",
"196 24 CURVE SMOOTH",
"269 24 OFFCURVE",
"306 41 OFFCURVE",
"317 69 CURVE",
"300 -26 OFFCURVE",
"277 -30 OFFCURVE",
"180 -30 CURVE SMOOTH",
"121 -30 OFFCURVE",
"31 -16 OFFCURVE",
"16 -9 CURVE"
);
},
{
closed = 1;
nodes = (
"335 212 LINE",
"327 152 OFFCURVE",
"289 117 OFFCURVE",
"271 117 CURVE SMOOTH",
"237 117 OFFCURVE",
"219 119 OFFCURVE",
"232 230 CURVE SMOOTH",
"238 282 OFFCURVE",
"254 294 OFFCURVE",
"292 294 CURVE SMOOTH",
"322 294 OFFCURVE",
"339 293 OFFCURVE",
"347 293 CURVE"
);
},
{
closed = 1;
nodes = (
"406 -124 OFFCURVE",
"502 -92 OFFCURVE",
"525 86 CURVE SMOOTH",
"558 326 LINE SMOOTH",
"562 355 OFFCURVE",
"566 382 OFFCURVE",
"569 387 CURVE",
"546 389 OFFCURVE",
"397 401 OFFCURVE",
"337 401 CURVE SMOOTH",
"105 401 OFFCURVE",
"37 360 OFFCURVE",
"16 207 CURVE SMOOTH",
"-4 65 OFFCURVE",
"40 22 OFFCURVE",
"179 22 CURVE SMOOTH",
"285 22 OFFCURVE",
"304 42 OFFCURVE",
"335 98 CURVE",
"317 101 LINE",
"313 14 OFFCURVE",
"292 -36 OFFCURVE",
"179 -36 CURVE SMOOTH",
"120 -36 OFFCURVE",
"29 -22 OFFCURVE",
"14 -15 CURVE",
"13 -22 OFFCURVE",
"9 -53 OFFCURVE",
"8 -62 CURVE SMOOTH",
"-2 -135 OFFCURVE",
"134 -124 OFFCURVE",
"215 -124 CURVE SMOOTH"
);
},
{
closed = 1;
nodes = (
"232 134 OFFCURVE",
"220 148 OFFCURVE",
"229 212 CURVE SMOOTH",
"239 281 OFFCURVE",
"253 294 OFFCURVE",
"292 294 CURVE SMOOTH",
"322 294 OFFCURVE",
"339 293 OFFCURVE",
"347 293 CURVE",
"335 212 LINE SMOOTH",
"326 144 OFFCURVE",
"289 134 OFFCURVE",
"271 134 CURVE SMOOTH"
);
}
);
};
guideLines = (
{
position = "{604, -109}";
}
);
layerId = "C7668D88-AC50-4107-9C4B-DB5D26A8FA6C";
paths = (
{
closed = 1;
nodes = (
"402 -124 OFFCURVE",
"495 -92 OFFCURVE",
"520 86 CURVE SMOOTH",
"553 326 LINE SMOOTH",
"557 355 OFFCURVE",
"561 382 OFFCURVE",
"564 387 CURVE",
"541 389 OFFCURVE",
"393 401 OFFCURVE",
"334 401 CURVE SMOOTH",
"111 401 OFFCURVE",
"46 360 OFFCURVE",
"24 199 CURVE SMOOTH",
"5 65 OFFCURVE",
"46 22 OFFCURVE",
"176 22 CURVE SMOOTH",
"282 22 OFFCURVE",
"301 42 OFFCURVE",
"332 98 CURVE",
"314 101 LINE",
"312 7 OFFCURVE",
"288 -36 OFFCURVE",
"175 -36 CURVE SMOOTH",
"120 -36 OFFCURVE",
"38 -22 OFFCURVE",
"23 -15 CURVE",
"22 -22 OFFCURVE",
"19 -44 OFFCURVE",
"18 -53 CURVE SMOOTH",
"10 -114 OFFCURVE",
"52 -124 OFFCURVE",
"203 -124 CURVE SMOOTH"
);
},
{
closed = 1;
nodes = (
"239 134 OFFCURVE",
"224 148 OFFCURVE",
"233 212 CURVE SMOOTH",
"243 281 OFFCURVE",
"255 294 OFFCURVE",
"289 294 CURVE SMOOTH",
"309 294 OFFCURVE",
"336 293 OFFCURVE",
"344 293 CURVE",
"332 212 LINE SMOOTH",
"323 144 OFFCURVE",
"291 134 OFFCURVE",
"268 134 CURVE SMOOTH"
);
}
);
width = 564;
},
{
anchors = (
{
name = bottom;
position = "{142, -346}";
},
{
name = top;
position = "{269, 402}";
}
);
layerId = "9C644782-EE44-4C4B-9808-39A279382CB0";
paths = (
{
closed = 1;
nodes = (
"304 -111 OFFCURVE",
"356 -61 OFFCURVE",
"375 66 CURVE SMOOTH",
"409 302 LINE SMOOTH",
"413 334 OFFCURVE",
"420 382 OFFCURVE",
"424 390 CURVE",
"406 394 OFFCURVE",
"323 402 OFFCURVE",
"267 402 CURVE SMOOTH",
"136 402 OFFCURVE",
"76 379 OFFCURVE",
"51 203 CURVE SMOOTH",
"28 42 OFFCURVE",
"81 12 OFFCURVE",
"192 12 CURVE SMOOTH",
"256 12 OFFCURVE",
"341 28 OFFCURVE",
"371 99 CURVE",
"357 98 LINE",
"342 -45 OFFCURVE",
"298 -94 OFFCURVE",
"180 -94 CURVE SMOOTH",
"140 -94 OFFCURVE",
"66 -85 OFFCURVE",
"38 -67 CURVE",
"38 -70 OFFCURVE",
"37 -75 OFFCURVE",
"36 -78 CURVE SMOOTH",
"33 -105 OFFCURVE",
"153 -111 OFFCURVE",
"180 -111 CURVE SMOOTH"
);
},
{
closed = 1;
nodes = (
"86 30 OFFCURVE",
"57 69 OFFCURVE",
"76 209 CURVE SMOOTH",
"96 349 OFFCURVE",
"141 384 OFFCURVE",
"262 384 CURVE SMOOTH",
"330 384 OFFCURVE",
"382 376 OFFCURVE",
"396 372 CURVE",
"361 123 LINE SMOOTH",
"348 57 OFFCURVE",
"279 30 OFFCURVE",
"189 30 CURVE SMOOTH"
);
}
);
width = 461;
}
);
leftKerningGroup = g;
leftMetricsKey = o;
note = g;
rightKerningGroup = g;
rightMetricsKey = n;
unicode = 0067;
},
{
color = 7;
glyphname = h;
lastChange = "2021-09-24 03:41:24 +0000";
layers = (
{
anchors = (
{
name = bottom;
position = "{274, 0}";
},
{
name = center;
position = "{183, 447}";
},
{
name = top;
position = "{185, 505}";
}
);
background = {
anchors = (
{
name = bottom;
position = "{274, 0}";
},
{
name = center;
position = "{341, 480}";
},
{
name = top;
position = "{185, 505}";
}
);
paths = (
{
closed = 1;
nodes = (
"214 0 LINE",
"227 99 OFFCURVE",
"242 199 OFFCURVE",
"255 298 CURVE",
"257 302 OFFCURVE",
"292 306 OFFCURVE",
"301 306 CURVE SMOOTH",
"367 306 OFFCURVE",
"363 281 OFFCURVE",
"355 225 CURVE SMOOTH",
"345 150 OFFCURVE",
"334 75 OFFCURVE",
"324 0 CURVE",
"399 -1 LINE SMOOTH",
"516 -2 OFFCURVE",
"527 11 OFFCURVE",
"537 80 CURVE SMOOTH",
"553 198 LINE SMOOTH",
"575 350 OFFCURVE",
"567 398 OFFCURVE",
"341 398 CURVE SMOOTH",
"326 398 OFFCURVE",
"290 398 OFFCURVE",
"269 396 CURVE",
"274 432 OFFCURVE",
"279 469 OFFCURVE",
"285 505 CURVE",
"216 505 OFFCURVE",
"147 505 OFFCURVE",
"78 505 CURVE",
"57 356 OFFCURVE",
"36 206 OFFCURVE",
"15 57 CURVE SMOOTH",
"7 7 OFFCURVE",
"20 -1 OFFCURVE",
"100 -1 CURVE SMOOTH"
);
},
{
closed = 1;
nodes = (
"214 0 LINE",
"227 99 OFFCURVE",
"242 199 OFFCURVE",
"255 298 CURVE",
"257 302 OFFCURVE",
"292 306 OFFCURVE",
"301 306 CURVE SMOOTH",
"367 306 OFFCURVE",
"363 281 OFFCURVE",
"355 225 CURVE SMOOTH",
"345 150 OFFCURVE",
"334 75 OFFCURVE",
"324 0 CURVE",
"399 -1 LINE SMOOTH",
"516 -3 OFFCURVE",
"528 11 OFFCURVE",
"537 80 CURVE SMOOTH",
"553 198 LINE SMOOTH",
"574 350 OFFCURVE",
"567 398 OFFCURVE",
"341 398 CURVE SMOOTH",
"326 398 OFFCURVE",
"290 398 OFFCURVE",
"269 396 CURVE",
"274 432 OFFCURVE",
"279 469 OFFCURVE",
"285 505 CURVE",
"216 505 OFFCURVE",
"147 505 OFFCURVE",
"78 505 CURVE",
"57 356 OFFCURVE",
"36 206 OFFCURVE",
"15 57 CURVE SMOOTH",
"7 7 OFFCURVE",
"20 -2 OFFCURVE",
"100 -1 CURVE SMOOTH"
);
}
);
};
layerId = "C7668D88-AC50-4107-9C4B-DB5D26A8FA6C";
paths = (
{
closed = 1;
nodes = (
"214 0 LINE",
"255 298 LINE",
"266 302 OFFCURVE",
"285 306 OFFCURVE",
"301 306 CURVE SMOOTH",
"354 306 OFFCURVE",
"364 294 OFFCURVE",
"356 234 CURVE SMOOTH",
"324 0 LINE",
"438 0 LINE SMOOTH",
"509 0 OFFCURVE",
"528 12 OFFCURVE",
"537 80 CURVE SMOOTH",
"555 211 LINE SMOOTH",
"575 357 OFFCURVE",
"550 398 OFFCURVE",
"353 398 CURVE SMOOTH",
"325 398 OFFCURVE",
"290 395 OFFCURVE",
"269 392 CURVE",
"284 505 LINE",
"77 505 LINE",
"15 57 LINE SMOOTH",
"9 14 OFFCURVE",
"17 0 OFFCURVE",
"78 0 CURVE SMOOTH"
);
}
);
width = 580;
},
{
anchors = (
{
name = bottom;
position = "{208, 0}";
},
{
name = center;
position = "{149, 463}";
},
{
name = top;
position = "{120, 468}";
}
);
layerId = "9C644782-EE44-4C4B-9808-39A279382CB0";
paths = (
{
closed = 1;
nodes = (
"65 0 LINE",
"116 365 LINE",
"145 376 OFFCURVE",
"215 381 OFFCURVE",
"252 381 CURVE SMOOTH",
"337 381 OFFCURVE",
"387 359 OFFCURVE",
"372 250 CURVE SMOOTH",
"337 0 LINE",
"344 0 LINE SMOOTH",
"357 0 OFFCURVE",
"359 3 OFFCURVE",
"362 25 CURVE SMOOTH",
"392 236 LINE SMOOTH",
"405 331 OFFCURVE",
"404 399 OFFCURVE",
"255 399 CURVE SMOOTH",
"211 399 OFFCURVE",
"144 392 OFFCURVE",
"118 383 CURVE",
"135 505 LINE",
"113 505 LINE",
"46 22 LINE SMOOTH",
"43 2 OFFCURVE",
"44 0 OFFCURVE",
"57 0 CURVE SMOOTH"
);
}
);
width = 451;
}
);
leftKerningGroup = h;
leftMetricsKey = n;
note = h;
rightKerningGroup = n;
rightMetricsKey = n;
unicode = 0068;
},
{
color = 7;
glyphname = i;
lastChange = "2021-09-28 15:54:02 +0000";
layers = (
{
anchors = (
{
name = bottom;
position = "{153, 0}";
}
);
background = {
anchors = (
{
name = bottom;
position = "{153, 0}";
}
);
paths = (
{
closed = 1;
nodes = (
"196 399 OFFCURVE",
"127 399 OFFCURVE",
"58 399 CURVE",
"52 360 OFFCURVE",
"30 207 OFFCURVE",
"19 132 CURVE SMOOTH",
"11 69 OFFCURVE",
"-34 -5 OFFCURVE",
"181 -5 CURVE SMOOTH",
"245 -5 OFFCURVE",
"271 5 OFFCURVE",
"282 7 CURVE",
"292 79 LINE",
"289 77 OFFCURVE",
"281 73 OFFCURVE",
"270 73 CURVE SMOOTH",
"220 73 OFFCURVE",
"223 99 OFFCURVE",
"230 152 CURVE SMOOTH",
"242 234 OFFCURVE",
"253 317 OFFCURVE",
"265 399 CURVE"
);
},
{
closed = 1;
nodes = (
"88 442 OFFCURVE",
"123 440 OFFCURVE",
"174 440 CURVE SMOOTH",
"224 440 OFFCURVE",
"259 442 OFFCURVE",
"266 494 CURVE SMOOTH",
"273 541 OFFCURVE",
"242 547 OFFCURVE",
"192 548 CURVE SMOOTH",
"142 548 OFFCURVE",
"102 543 OFFCURVE",
"95 494 CURVE SMOOTH"
);
},
{
closed = 1;
nodes = (
"196 399 OFFCURVE",
"127 399 OFFCURVE",
"58 399 CURVE",
"52 360 OFFCURVE",
"30 207 OFFCURVE",
"19 132 CURVE SMOOTH",
"11 69 OFFCURVE",
"-34 -5 OFFCURVE",
"181 -5 CURVE SMOOTH",
"245 -5 OFFCURVE",
"271 5 OFFCURVE",
"282 7 CURVE",
"292 79 LINE",
"289 77 OFFCURVE",
"281 73 OFFCURVE",
"270 73 CURVE SMOOTH",
"220 73 OFFCURVE",
"223 99 OFFCURVE",
"230 152 CURVE SMOOTH",
"242 234 OFFCURVE",
"253 317 OFFCURVE",
"265 399 CURVE"
);
},
{
closed = 1;
nodes = (
"88 442 OFFCURVE",
"123 440 OFFCURVE",
"174 440 CURVE SMOOTH",
"224 440 OFFCURVE",
"259 442 OFFCURVE",
"266 494 CURVE SMOOTH",
"273 541 OFFCURVE",
"242 547 OFFCURVE",
"192 548 CURVE SMOOTH",
"142 548 OFFCURVE",
"102 543 OFFCURVE",
"95 494 CURVE SMOOTH"
);
},
{
closed = 1;
nodes = (
"245 -5 OFFCURVE",
"271 5 OFFCURVE",
"282 7 CURVE",
"292 79 LINE",
"289 77 OFFCURVE",
"281 73 OFFCURVE",
"259 73 CURVE SMOOTH",
"231 73 OFFCURVE",
"221 90 OFFCURVE",
"226 124 CURVE SMOOTH",
"265 399 LINE",
"58 399 LINE",
"17 116 LINE SMOOTH",
"4 26 OFFCURVE",
"37 -5 OFFCURVE",
"147 -5 CURVE SMOOTH"
);
},
{
closed = 1;
nodes = (
"219 440 OFFCURVE",
"254 442 OFFCURVE",
"261 494 CURVE SMOOTH",
"268 541 OFFCURVE",
"237 547 OFFCURVE",
"187 548 CURVE SMOOTH",
"137 548 OFFCURVE",
"97 543 OFFCURVE",
"90 494 CURVE SMOOTH",
"83 442 OFFCURVE",
"118 440 OFFCURVE",
"169 440 CURVE SMOOTH"
);
}
);
};
layerId = "C7668D88-AC50-4107-9C4B-DB5D26A8FA6C";
paths = (
{
closed = 1;
nodes = (
"245 -5 OFFCURVE",
"271 5 OFFCURVE",
"282 7 CURVE",
"292 79 LINE",
"289 77 OFFCURVE",
"281 73 OFFCURVE",
"259 73 CURVE SMOOTH",
"231 73 OFFCURVE",
"221 90 OFFCURVE",
"226 124 CURVE SMOOTH",
"265 399 LINE",
"58 399 LINE",
"17 116 LINE SMOOTH",
"4 26 OFFCURVE",
"37 -5 OFFCURVE",
"147 -5 CURVE SMOOTH"
);
},
{
closed = 1;
nodes = (
"236 440 OFFCURVE",
"255 452 OFFCURVE",
"261 494 CURVE SMOOTH",
"267 533 OFFCURVE",
"248 547 OFFCURVE",
"187 548 CURVE SMOOTH",
"122 548 OFFCURVE",
"96 534 OFFCURVE",
"90 494 CURVE SMOOTH",
"84 452 OFFCURVE",
"103 440 OFFCURVE",
"169 440 CURVE SMOOTH"
);
}
);
width = 317;
},
{
anchors = (
{
name = bottom;
position = "{101, 0}";
}
);
layerId = "9C644782-EE44-4C4B-9808-39A279382CB0";
paths = (
{
closed = 1;
nodes = (
"118 -3 OFFCURVE",
"137 0 OFFCURVE",
"145 2 CURVE",
"147 19 LINE",
"142 16 OFFCURVE",
"117 14 OFFCURVE",
"110 14 CURVE SMOOTH",
"78 14 OFFCURVE",
"70 28 OFFCURVE",
"79 89 CURVE SMOOTH",
"123 399 LINE",
"101 399 LINE",
"56 86 LINE SMOOTH",
"49 31 OFFCURVE",
"53 -3 OFFCURVE",
"99 -3 CURVE SMOOTH"
);
},
{
closed = 1;
nodes = (
"129 463 OFFCURVE",
"139 465 OFFCURVE",
"142 479 CURVE SMOOTH",
"144 495 OFFCURVE",
"134 496 OFFCURVE",
"124 496 CURVE SMOOTH",
"114 496 OFFCURVE",
"106 494 OFFCURVE",
"104 479 CURVE SMOOTH",
"102 465 OFFCURVE",
"113 463 OFFCURVE",
"121 463 CURVE SMOOTH"
);
}
);
width = 181;
}
);
leftKerningGroup = i;
leftMetricsKey = "=n-5";
note = i;
rightKerningGroup = i;
unicode = 0069;
},
{
color = 7;
glyphname = idotless;
lastChange = "2021-09-24 03:41:24 +0000";
layers = (
{
anchors = (
{
name = bottom;
position = "{159, 0}";
},
{
name = ogonek;
position = "{250, 10}";
},
{
name = top;
position = "{193, 399}";
}
);
background = {
anchors = (
{
name = bottom;
position = "{159, 0}";
},
{
name = ogonek;
position = "{250, 10}";
},
{
name = top;
position = "{193, 399}";
}
);
paths = (
{
closed = 1;
nodes = (
"228 399 OFFCURVE",
"159 399 OFFCURVE",
"90 399 CURVE",
"85 360 OFFCURVE",
"62 207 OFFCURVE",
"52 132 CURVE SMOOTH",
"43 69 OFFCURVE",
"-1 -5 OFFCURVE",
"214 -5 CURVE SMOOTH",
"278 -5 OFFCURVE",
"303 5 OFFCURVE",
"314 7 CURVE",
"324 79 LINE",
"321 77 OFFCURVE",
"314 73 OFFCURVE",
"303 73 CURVE SMOOTH",
"253 73 OFFCURVE",
"255 99 OFFCURVE",
"263 152 CURVE SMOOTH",
"274 234 OFFCURVE",
"286 317 OFFCURVE",
"297 399 CURVE"
);
}
);
};
layerId = "C7668D88-AC50-4107-9C4B-DB5D26A8FA6C";
paths = (
{
closed = 1;
nodes = (
"228 399 OFFCURVE",
"159 399 OFFCURVE",
"90 399 CURVE",
"85 360 OFFCURVE",
"62 207 OFFCURVE",
"52 132 CURVE SMOOTH",
"43 69 OFFCURVE",
"-1 -5 OFFCURVE",
"214 -5 CURVE SMOOTH",
"278 -5 OFFCURVE",
"303 5 OFFCURVE",
"314 7 CURVE",
"324 79 LINE",
"321 77 OFFCURVE",
"314 73 OFFCURVE",
"303 73 CURVE SMOOTH",
"253 73 OFFCURVE",
"255 99 OFFCURVE",
"263 152 CURVE SMOOTH",
"274 234 OFFCURVE",
"286 317 OFFCURVE",
"297 399 CURVE"
);
}
);
width = 362;
},
{
anchors = (
{
name = bottom;
position = "{72, 0}";
},
{
name = ogonek;
position = "{109, 6}";
},
{
name = top;
position = "{99, 399}";
}
);
layerId = "9C644782-EE44-4C4B-9808-39A279382CB0";
paths = (
{
closed = 1;
nodes = (
"103 399 OFFCURVE",
"95 399 OFFCURVE",
"88 399 CURVE",
"74 300 OFFCURVE",
"60 198 OFFCURVE",
"46 99 CURVE SMOOTH",
"38 43 OFFCURVE",
"32 -3 OFFCURVE",
"84 -3 CURVE SMOOTH",
"93 -3 OFFCURVE",
"125 0 OFFCURVE",
"132 2 CURVE",
"134 17 LINE",
"129 14 OFFCURVE",
"105 12 OFFCURVE",
"98 12 CURVE SMOOTH",
"63 12 OFFCURVE",
"59 36 OFFCURVE",
"67 89 CURVE SMOOTH",
"81 193 OFFCURVE",
"96 295 OFFCURVE",
"110 399 CURVE"
);
}
);
width = 199;
}
);
leftKerningGroup = bracketleft;
note = dotlessi;
rightKerningGroup = i;
unicode = 0131;
},
{
color = 7;
glyphname = j;
lastChange = "2021-09-24 03:41:24 +0000";
layers = (
{
background = {
paths = (
{
closed = 1;
nodes = (
"-99 -46 OFFCURVE",
"-102 -70 OFFCURVE",
"-105 -94 CURVE",
"-95 -96 OFFCURVE",
"-45 -106 OFFCURVE",
"19 -106 CURVE SMOOTH",
"234 -106 OFFCURVE",
"215 -3 OFFCURVE",
"223 60 CURVE SMOOTH",
"234 135 OFFCURVE",
"265 360 OFFCURVE",
"270 399 CURVE",
"225 399 OFFCURVE",
"179 399 OFFCURVE",
"134 399 CURVE SMOOTH",
"72 399 OFFCURVE",
"61 387 OFFCURVE",
"53 329 CURVE SMOOTH",
"40 236 OFFCURVE",
"27 144 OFFCURVE",
"14 51 CURVE SMOOTH",
"7 -2 OFFCURVE",
"2 -28 OFFCURVE",
"-48 -28 CURVE SMOOTH",
"-59 -28 OFFCURVE",
"-87 -25 OFFCURVE",
"-95 -22 CURVE"
);
},
{
closed = 1;
nodes = (
"89 442 OFFCURVE",
"124 440 OFFCURVE",
"175 440 CURVE SMOOTH",
"225 440 OFFCURVE",
"260 442 OFFCURVE",
"267 494 CURVE SMOOTH",
"274 541 OFFCURVE",
"243 547 OFFCURVE",
"193 548 CURVE SMOOTH",
"143 548 OFFCURVE",
"103 543 OFFCURVE",
"96 494 CURVE SMOOTH"
);
},
{
closed = 1;
nodes = (
"-99 -46 OFFCURVE",
"-102 -70 OFFCURVE",
"-105 -94 CURVE",
"-95 -96 OFFCURVE",
"-45 -106 OFFCURVE",
"19 -106 CURVE SMOOTH",
"234 -106 OFFCURVE",
"215 -3 OFFCURVE",
"223 60 CURVE SMOOTH",
"234 135 OFFCURVE",
"265 360 OFFCURVE",
"270 399 CURVE",
"225 399 OFFCURVE",
"179 399 OFFCURVE",
"134 399 CURVE SMOOTH",
"72 399 OFFCURVE",
"61 387 OFFCURVE",
"53 329 CURVE SMOOTH",
"40 236 OFFCURVE",
"27 144 OFFCURVE",
"14 51 CURVE SMOOTH",
"7 -2 OFFCURVE",
"2 -28 OFFCURVE",
"-48 -28 CURVE SMOOTH",
"-59 -28 OFFCURVE",
"-87 -25 OFFCURVE",
"-95 -22 CURVE"
);
},
{
closed = 1;
nodes = (
"89 442 OFFCURVE",
"124 440 OFFCURVE",
"175 440 CURVE SMOOTH",
"225 440 OFFCURVE",
"260 442 OFFCURVE",
"267 494 CURVE SMOOTH",
"274 541 OFFCURVE",
"243 547 OFFCURVE",
"193 548 CURVE SMOOTH",
"143 548 OFFCURVE",
"103 543 OFFCURVE",
"96 494 CURVE SMOOTH"
);
}
);
};
layerId = "C7668D88-AC50-4107-9C4B-DB5D26A8FA6C";
paths = (
{
closed = 1;
nodes = (
"169 -106 OFFCURVE",
"206 -66 OFFCURVE",
"219 29 CURVE SMOOTH",
"270 399 LINE",
"134 399 LINE SMOOTH",
"72 399 OFFCURVE",
"61 387 OFFCURVE",
"53 329 CURVE SMOOTH",
"14 51 LINE SMOOTH",
"7 -2 OFFCURVE",
"2 -28 OFFCURVE",
"-48 -28 CURVE SMOOTH",
"-59 -28 OFFCURVE",
"-87 -25 OFFCURVE",
"-95 -22 CURVE",
"-105 -94 LINE",
"-95 -96 OFFCURVE",
"-45 -106 OFFCURVE",
"19 -106 CURVE SMOOTH"
);
},
{
closed = 1;
nodes = (
"242 440 OFFCURVE",
"261 452 OFFCURVE",
"267 494 CURVE SMOOTH",
"273 533 OFFCURVE",
"254 547 OFFCURVE",
"193 548 CURVE SMOOTH",
"128 548 OFFCURVE",
"102 534 OFFCURVE",
"96 494 CURVE SMOOTH",
"90 452 OFFCURVE",
"109 440 OFFCURVE",
"175 440 CURVE SMOOTH"
);
}
);
width = 271;
},
{
layerId = "9C644782-EE44-4C4B-9808-39A279382CB0";
paths = (
{
closed = 1;
nodes = (
"49 -85 OFFCURVE",
"62 -64 OFFCURVE",
"71 1 CURVE SMOOTH",
"127 399 LINE",
"118 399 LINE SMOOTH",
"106 399 OFFCURVE",
"105 394 OFFCURVE",
"103 384 CURVE SMOOTH",
"49 -2 LINE SMOOTH",
"41 -56 OFFCURVE",
"33 -68 OFFCURVE",
"-3 -68 CURVE SMOOTH",
"-17 -68 OFFCURVE",
"-39 -66 OFFCURVE",
"-46 -65 CURVE",
"-48 -82 LINE",
"-40 -83 OFFCURVE",
"-22 -85 OFFCURVE",
"-2 -85 CURVE SMOOTH"
);
},
{
closed = 1;
nodes = (
"134 463 OFFCURVE",
"145 465 OFFCURVE",
"148 479 CURVE SMOOTH",
"150 495 OFFCURVE",
"140 496 OFFCURVE",
"130 496 CURVE SMOOTH",
"120 496 OFFCURVE",
"111 494 OFFCURVE",
"110 479 CURVE SMOOTH",
"108 465 OFFCURVE",
"118 463 OFFCURVE",
"126 463 CURVE SMOOTH"
);
}
);
width = 168;
}
);
leftKerningGroup = j;
note = j;
rightKerningGroup = d;
unicode = 006A;
},
{
color = 9;
glyphname = jdotless;
lastChange = "2021-09-24 03:41:24 +0000";
layers = (
{
anchors = (
{
name = bottom;
position = "{95, -350}";
},
{
name = top;
position = "{237, 399}";
}
);
background = {
anchors = (
{
name = bottom;
position = "{95, -350}";
},
{
name = top;
position = "{237, 399}";
}
);
paths = (
{
closed = 1;
nodes = (
"-38 -46 OFFCURVE",
"-41 -70 OFFCURVE",
"-44 -94 CURVE",
"-34 -96 OFFCURVE",
"16 -106 OFFCURVE",
"80 -106 CURVE SMOOTH",
"295 -106 OFFCURVE",
"276 -3 OFFCURVE",
"284 60 CURVE SMOOTH",
"295 135 OFFCURVE",
"326 360 OFFCURVE",
"331 399 CURVE",
"286 399 OFFCURVE",
"240 399 OFFCURVE",
"195 399 CURVE SMOOTH",
"133 399 OFFCURVE",
"122 387 OFFCURVE",
"114 329 CURVE SMOOTH",
"101 236 OFFCURVE",
"88 144 OFFCURVE",
"75 51 CURVE SMOOTH",
"68 -2 OFFCURVE",
"63 -28 OFFCURVE",
"13 -28 CURVE SMOOTH",
"2 -28 OFFCURVE",
"-26 -25 OFFCURVE",
"-34 -22 CURVE"
);
}
);
};
layerId = "C7668D88-AC50-4107-9C4B-DB5D26A8FA6C";
paths = (
{
closed = 1;
nodes = (
"-38 -46 OFFCURVE",
"-41 -70 OFFCURVE",
"-44 -94 CURVE",
"-34 -96 OFFCURVE",
"16 -106 OFFCURVE",
"80 -106 CURVE SMOOTH",
"295 -106 OFFCURVE",
"276 -3 OFFCURVE",
"284 60 CURVE SMOOTH",
"295 135 OFFCURVE",
"326 360 OFFCURVE",
"331 399 CURVE",
"286 399 OFFCURVE",
"240 399 OFFCURVE",
"195 399 CURVE SMOOTH",
"133 399 OFFCURVE",
"122 387 OFFCURVE",
"114 329 CURVE SMOOTH",
"101 236 OFFCURVE",
"88 144 OFFCURVE",
"75 51 CURVE SMOOTH",
"68 -2 OFFCURVE",
"63 -28 OFFCURVE",
"13 -28 CURVE SMOOTH",
"2 -28 OFFCURVE",
"-26 -25 OFFCURVE",
"-34 -22 CURVE"
);
}
);
width = 344;
},
{
anchors = (
{
name = bottom;
position = "{22, -350}";
},
{
name = top;
position = "{146, 399}";
}
);
layerId = "9C644782-EE44-4C4B-9808-39A279382CB0";
paths = (
{
closed = 1;
nodes = (
"-19 -72 OFFCURVE",
"-20 -77 OFFCURVE",
"-21 -82 CURVE",
"-12 -83 OFFCURVE",
"9 -85 OFFCURVE",
"29 -85 CURVE SMOOTH",
"87 -85 OFFCURVE",
"92 -49 OFFCURVE",
"103 28 CURVE SMOOTH",
"120 151 OFFCURVE",
"138 277 OFFCURVE",
"155 399 CURVE",
"152 399 OFFCURVE",
"149 399 OFFCURVE",
"146 399 CURVE SMOOTH",
"134 399 OFFCURVE",
"133 394 OFFCURVE",
"131 384 CURVE SMOOTH",
"114 259 OFFCURVE",
"96 132 OFFCURVE",
"78 7 CURVE SMOOTH",
"71 -46 OFFCURVE",
"65 -70 OFFCURVE",
"25 -70 CURVE SMOOTH",
"11 -70 OFFCURVE",
"-12 -68 OFFCURVE",
"-18 -67 CURVE"
);
}
);
width = 196;
}
);
leftKerningGroup = bracketleft;
note = jcircumflex;
rightKerningGroup = one;
unicode = 0237;
},
{
color = 7;
glyphname = k;
lastChange = "2021-09-24 03:41:24 +0000";
layers = (
{
background = {
paths = (
{
closed = 1;
nodes = (
"76 0 OFFCURVE",
"145 0 OFFCURVE",
"214 0 CURVE",
"219 39 OFFCURVE",
"224 77 OFFCURVE",
"230 116 CURVE",
"230 116 LINE SMOOTH",
"326 0 OFFCURVE",
"346 0 OFFCURVE",
"384 0 CURVE SMOOTH",
"466 0 OFFCURVE",
"550 -3 OFFCURVE",
"631 0 CURVE",
"628 2 OFFCURVE",
"603 23 OFFCURVE",
"612 15 CURVE",
"603 23 OFFCURVE",
"596 29 OFFCURVE",
"566 62 CURVE",
"476 164 OFFCURVE",
"443 210 OFFCURVE",
"409 249 CURVE",
"428 263 OFFCURVE",
"512 319 OFFCURVE",
"519 323 CURVE SMOOTH",
"572 358 OFFCURVE",
"633 394 OFFCURVE",
"639 399 CURVE",
"541 399 OFFCURVE",
"440 418 OFFCURVE",
"386 377 CURVE",
"386 383 OFFCURVE",
"252 272 OFFCURVE",
"252 276 CURVE",
"252 276 OFFCURVE",
"286 498 OFFCURVE",
"289 505 CURVE",
"240 505 OFFCURVE",
"190 505 OFFCURVE",
"147 505 CURVE SMOOTH",
"80 505 OFFCURVE",
"73 479 OFFCURVE",
"67 436 CURVE SMOOTH",
"62 401 OFFCURVE",
"10 22 OFFCURVE",
"7 0 CURVE"
);
},
{
closed = 1;
nodes = (
"76 0 OFFCURVE",
"145 0 OFFCURVE",
"214 0 CURVE",
"219 39 OFFCURVE",
"224 77 OFFCURVE",
"230 116 CURVE",
"230 116 LINE SMOOTH",
"326 0 OFFCURVE",
"346 0 OFFCURVE",
"384 0 CURVE SMOOTH",
"466 0 OFFCURVE",
"550 -3 OFFCURVE",
"631 0 CURVE",
"628 2 OFFCURVE",
"603 23 OFFCURVE",
"612 15 CURVE",
"603 23 OFFCURVE",
"596 29 OFFCURVE",
"566 62 CURVE",
"476 164 OFFCURVE",
"443 210 OFFCURVE",
"409 249 CURVE",
"428 263 OFFCURVE",
"512 319 OFFCURVE",
"519 323 CURVE SMOOTH",
"572 358 OFFCURVE",
"633 394 OFFCURVE",
"639 399 CURVE",
"541 399 OFFCURVE",
"440 418 OFFCURVE",
"386 377 CURVE",
"386 383 OFFCURVE",
"252 272 OFFCURVE",
"252 276 CURVE",
"252 276 OFFCURVE",
"286 498 OFFCURVE",
"289 505 CURVE",
"240 505 OFFCURVE",
"190 505 OFFCURVE",
"147 505 CURVE SMOOTH",
"80 505 OFFCURVE",
"73 479 OFFCURVE",
"67 436 CURVE SMOOTH",
"62 401 OFFCURVE",
"10 22 OFFCURVE",
"7 0 CURVE"
);
}
);
};
layerId = "C7668D88-AC50-4107-9C4B-DB5D26A8FA6C";
paths = (
{
closed = 1;
nodes = (
"215 0 LINE",
"231 116 LINE",
"245 100 LINE",
"298 40 LINE SMOOTH",
"323 12 OFFCURVE",
"343 -1 OFFCURVE",
"407 -1 CURVE SMOOTH",
"468 -1 OFFCURVE",
"550 -1 OFFCURVE",
"631 0 CURVE",
"610 16 OFFCURVE",
"587 38 OFFCURVE",
"566 62 CURVE SMOOTH",
"409 249 LINE",
"542 338 LINE SMOOTH",
"572 358 OFFCURVE",
"625 390 OFFCURVE",
"639 399 CURVE",
"601 400 OFFCURVE",
"556 403 OFFCURVE",
"502 403 CURVE SMOOTH",
"430 403 OFFCURVE",
"403 392 OFFCURVE",
"366 363 CURVE SMOOTH",
"253 276 LINE",
"286 505 LINE",
"147 505 LINE SMOOTH",
"87 505 OFFCURVE",
"74 489 OFFCURVE",
"67 436 CURVE SMOOTH",
"7 0 LINE"
);
}
);
width = 627;
},
{
layerId = "9C644782-EE44-4C4B-9808-39A279382CB0";
paths = (
{
closed = 1;
nodes = (
"64 0 LINE",
"81 126 LINE",
"168 207 LINE",
"308 13 LINE SMOOTH",
"315 2 OFFCURVE",
"320 -1 OFFCURVE",
"329 -1 CURVE SMOOTH",
"335 -1 OFFCURVE",
"341 -1 OFFCURVE",
"347 0 CURVE",
"340 9 OFFCURVE",
"333 17 OFFCURVE",
"326 28 CURVE SMOOTH",
"186 224 LINE",
"341 369 LINE SMOOTH",
"353 381 OFFCURVE",
"369 395 OFFCURVE",
"376 399 CURVE",
"371 400 OFFCURVE",
"365 400 OFFCURVE",
"358 400 CURVE SMOOTH",
"349 399 OFFCURVE",
"340 395 OFFCURVE",
"333 387 CURVE SMOOTH",
"85 152 LINE",
"135 505 LINE",
"124 505 LINE SMOOTH",
"116 505 OFFCURVE",
"112 502 OFFCURVE",
"111 491 CURVE SMOOTH",
"42 0 LINE"
);
}
);
width = 372;
}
);
leftKerningGroup = h;
leftMetricsKey = n;
note = k;
rightKerningGroup = k;
unicode = 006B;
},
{
color = 9;
glyphname = kgreenlandic;
lastChange = "2021-09-24 03:41:24 +0000";
layers = (
{
background = {
hints = (
{
horizontal = 1;
place = "{0, 96}";
type = Stem;
},
{
horizontal = 1;
place = "{180, 97}";
type = Stem;
},
{
horizontal = 1;
place = "{364, 96}";
type = Stem;
},
{
place = "{208, 11}";
type = Stem;
}
);
paths = (
{
closed = 1;
nodes = (
"81 0 OFFCURVE",
"275 0 OFFCURVE",
"281 0 CURVE",
"287 42 OFFCURVE",
"291 65 OFFCURVE",
"297 107 CURVE",
"298 117 LINE",
"306 105 OFFCURVE",
"338 61 OFFCURVE",
"351 41 CURVE SMOOTH",
"378 2 OFFCURVE",
"412 -1 OFFCURVE",
"473 -1 CURVE SMOOTH",
"553 -1 OFFCURVE",
"694 5 OFFCURVE",
"699 0 CURVE",
"699 0 OFFCURVE",
"679 20 OFFCURVE",
"675 24 CURVE SMOOTH",
"649 55 OFFCURVE",
"528 189 OFFCURVE",
"477 250 CURVE",
"477 250 OFFCURVE",
"544 298 OFFCURVE",
"642 370 CURVE SMOOTH",
"655 380 OFFCURVE",
"667 389 OFFCURVE",
"689 399 CURVE",
"681 399 OFFCURVE",
"492 399 OFFCURVE",
"484 399 CURVE",
"465 385 OFFCURVE",
"332 286 OFFCURVE",
"320 275 CURVE",
"344 442 OFFCURVE",
"328 334 OFFCURVE",
"330 342 CURVE SMOOTH",
"342 428 OFFCURVE",
"148 433 OFFCURVE",
"33 406 CURVE",
"32 404 OFFCURVE",
"23 335 OFFCURVE",
"22 334 CURVE",
"41 338 OFFCURVE",
"123 353 OFFCURVE",
"117 305 CURVE SMOOTH",
"111 264 OFFCURVE",
"87 89 OFFCURVE",
"75 0 CURVE"
);
}
);
};
layerId = "C7668D88-AC50-4107-9C4B-DB5D26A8FA6C";
paths = (
{
closed = 1;
nodes = (
"81 0 OFFCURVE",
"275 0 OFFCURVE",
"281 0 CURVE",
"287 42 OFFCURVE",
"291 65 OFFCURVE",
"297 107 CURVE",
"298 117 LINE",
"306 105 OFFCURVE",
"338 61 OFFCURVE",
"351 41 CURVE SMOOTH",
"378 2 OFFCURVE",
"412 -1 OFFCURVE",
"473 -1 CURVE SMOOTH",
"553 -1 OFFCURVE",
"694 5 OFFCURVE",
"699 0 CURVE",
"699 0 OFFCURVE",
"679 20 OFFCURVE",
"675 24 CURVE SMOOTH",
"649 55 OFFCURVE",
"528 189 OFFCURVE",
"477 250 CURVE",
"477 250 OFFCURVE",
"544 298 OFFCURVE",
"642 370 CURVE SMOOTH",
"655 380 OFFCURVE",
"667 389 OFFCURVE",
"689 399 CURVE",
"681 399 OFFCURVE",
"492 399 OFFCURVE",
"484 399 CURVE",
"465 385 OFFCURVE",
"332 286 OFFCURVE",
"320 275 CURVE",
"344 442 OFFCURVE",
"328 334 OFFCURVE",
"330 342 CURVE SMOOTH",
"342 428 OFFCURVE",
"148 433 OFFCURVE",
"33 406 CURVE",
"32 404 OFFCURVE",
"23 335 OFFCURVE",
"22 334 CURVE",
"41 338 OFFCURVE",
"123 353 OFFCURVE",
"117 305 CURVE SMOOTH",
"111 264 OFFCURVE",
"87 89 OFFCURVE",
"75 0 CURVE"
);
}
);
width = 733;
},
{
layerId = "9C644782-EE44-4C4B-9808-39A279382CB0";
paths = (
{
closed = 1;
nodes = (
"65 0 OFFCURVE",
"76 0 OFFCURVE",
"82 0 CURVE",
"88 42 OFFCURVE",
"94 84 OFFCURVE",
"100 126 CURVE",
"185 207 LINE",
"233 142 OFFCURVE",
"279 78 OFFCURVE",
"327 13 CURVE SMOOTH",
"334 2 OFFCURVE",
"339 -1 OFFCURVE",
"348 -1 CURVE SMOOTH",
"354 -1 OFFCURVE",
"365 0 OFFCURVE",
"365 0 CURVE",
"365 0 OFFCURVE",
"363 3 OFFCURVE",
"360 7 CURVE SMOOTH",
"336 40 OFFCURVE",
"238 176 OFFCURVE",
"204 224 CURVE",
"255 272 OFFCURVE",
"307 321 OFFCURVE",
"360 370 CURVE SMOOTH",
"371 381 OFFCURVE",
"387 395 OFFCURVE",
"393 399 CURVE",
"385 399 OFFCURVE",
"374 399 OFFCURVE",
"366 399 CURVE",
"236 274 OFFCURVE",
"131 175 OFFCURVE",
"103 149 CURVE",
"120 270 OFFCURVE",
"113 219 OFFCURVE",
"132 358 CURVE SMOOTH",
"141 421 OFFCURVE",
"48 398 OFFCURVE",
"43 397 CURVE",
"42 395 OFFCURVE",
"41 382 OFFCURVE",
"41 381 CURVE",
"59 385 OFFCURVE",
"114 398 OFFCURVE",
"107 350 CURVE SMOOTH",
"101 309 OFFCURVE",
"71 89 OFFCURVE",
"59 0 CURVE"
);
}
);
width = 408;
}
);
note = kgreenlandic;
unicode = 0138;
},
{
color = 7;
glyphname = l;
lastChange = "2021-09-24 03:41:24 +0000";
layers = (
{
anchors = (
{
name = bottom;
position = "{151, 0}";
},
{
name = center;
position = "{218, 480}";
},
{
name = top;
position = "{199, 505}";
},
{
name = topright;
position = "{304, 505}";
}
);
background = {
anchors = (
{
name = bottom;
position = "{151, 0}";
},
{
name = center;
position = "{218, 480}";
},
{
name = top;
position = "{199, 505}";
},
{
name = topright;
position = "{304, 505}";
}
);
paths = (
{
closed = 1;
nodes = (
"25 132 LINE SMOOTH",
"16 69 OFFCURVE",
"-8 -5 OFFCURVE",
"186 -5 CURVE SMOOTH",
"250 -5 OFFCURVE",
"276 5 OFFCURVE",
"287 7 CURVE",
"297 79 LINE",
"294 77 OFFCURVE",
"280 73 OFFCURVE",
"270 73 CURVE SMOOTH",
"223 73 OFFCURVE",
"227 99 OFFCURVE",
"235 152 CURVE SMOOTH",
"274 426 LINE",
"274 426 OFFCURVE",
"286 498 OFFCURVE",
"289 505 CURVE",
"152 505 LINE SMOOTH",
"89 505 OFFCURVE",
"77 498 OFFCURVE",
"68 436 CURVE SMOOTH"
);
},
{
closed = 1;
nodes = (
"25 132 LINE SMOOTH",
"16 69 OFFCURVE",
"-8 -5 OFFCURVE",
"186 -5 CURVE SMOOTH",
"250 -5 OFFCURVE",
"276 5 OFFCURVE",
"287 7 CURVE",
"297 79 LINE",
"294 77 OFFCURVE",
"280 73 OFFCURVE",
"270 73 CURVE SMOOTH",
"223 73 OFFCURVE",
"227 99 OFFCURVE",
"235 152 CURVE SMOOTH",
"274 426 LINE",
"274 426 OFFCURVE",
"286 498 OFFCURVE",
"289 505 CURVE",
"152 505 LINE SMOOTH",
"89 505 OFFCURVE",
"77 498 OFFCURVE",
"68 436 CURVE SMOOTH"
);
}
);
};
layerId = "C7668D88-AC50-4107-9C4B-DB5D26A8FA6C";
paths = (
{
closed = 1;
nodes = (
"249 -5 OFFCURVE",
"275 5 OFFCURVE",
"286 7 CURVE",
"296 79 LINE",
"293 77 OFFCURVE",
"279 73 OFFCURVE",
"265 73 CURVE SMOOTH",
"233 73 OFFCURVE",
"225 89 OFFCURVE",
"232 134 CURVE SMOOTH",
"273 426 LINE SMOOTH",
"278 460 OFFCURVE",
"286 498 OFFCURVE",
"289 505 CURVE",
"151 505 LINE SMOOTH",
"89 505 OFFCURVE",
"75 495 OFFCURVE",
"67 436 CURVE SMOOTH",
"22 112 LINE SMOOTH",
"9 25 OFFCURVE",
"53 -5 OFFCURVE",
"171 -5 CURVE SMOOTH"
);
}
);
width = 315;
},
{
anchors = (
{
name = bottom;
position = "{85, 0}";
},
{
name = center;
position = "{152, 480}";
},
{
name = top;
position = "{124, 505}";
},
{
name = topright;
position = "{186, 505}";
}
);
layerId = "9C644782-EE44-4C4B-9808-39A279382CB0";
paths = (
{
closed = 1;
nodes = (
"118 -3 OFFCURVE",
"131 0 OFFCURVE",
"138 2 CURVE",
"140 19 LINE",
"135 16 OFFCURVE",
"112 14 OFFCURVE",
"104 14 CURVE SMOOTH",
"70 14 OFFCURVE",
"65 37 OFFCURVE",
"72 89 CURVE SMOOTH",
"127 475 LINE SMOOTH",
"129 495 OFFCURVE",
"132 505 OFFCURVE",
"132 505 CURVE",
"123 505 LINE SMOOTH",
"111 505 OFFCURVE",
"107 496 OFFCURVE",
"106 484 CURVE SMOOTH",
"49 82 LINE SMOOTH",
"40 18 OFFCURVE",
"53 -3 OFFCURVE",
"95 -3 CURVE SMOOTH"
);
}
);
width = 178;
}
);
leftKerningGroup = l;
note = l;
rightKerningGroup = i;
unicode = 006C;
},
{
color = 9;
glyphname = lslash;
lastChange = "2021-09-24 03:41:24 +0000";
layers = (
{
background = {
components = (
{
name = l;
transform = "{1, 0, 0, 1, 46, 0}";
}
);
hints = (
{
horizontal = 1;
place = "{-5, 78}";
type = Stem;
},
{
horizontal = 1;
place = "{426, 79}";
type = Stem;
},
{
place = "{73, 207}";
type = Stem;
}
);
paths = (
{
closed = 1;
nodes = (
"13 216 LINE",
"26 160 LINE",
"355 239 LINE",
"342 295 LINE"
);
}
);
};
components = (
{
name = l;
transform = "{1, 0, 0, 1, 46, 0}";
}
);
layerId = "C7668D88-AC50-4107-9C4B-DB5D26A8FA6C";
paths = (
{
closed = 1;
nodes = (
"13 216 LINE",
"26 160 LINE",
"355 239 LINE",
"342 295 LINE"
);
}
);
width = 359;
},
{
components = (
{
alignment = -1;
name = l;
transform = "{1, 0, 0, 1, 1, 0}";
}
);
layerId = "9C644782-EE44-4C4B-9808-39A279382CB0";
paths = (
{
closed = 1;
nodes = (
"0 139 LINE",
"5 124 LINE",
"188 190 LINE",
"183 204 LINE"
);
}
);
width = 199;
}
);
note = lslash;
unicode = 0142;
},
{
color = 7;
glyphname = m;
lastChange = "2021-09-24 03:41:24 +0000";
layers = (
{
background = {
paths = (
{
closed = 1;
nodes = (
"45 276 OFFCURVE",
"30 174 OFFCURVE",
"16 73 CURVE SMOOTH",
"9 22 OFFCURVE",
"6 0 OFFCURVE",
"79 0 CURVE SMOOTH",
"124 0 OFFCURVE",
"168 0 OFFCURVE",
"213 0 CURVE",
"226 96 OFFCURVE",
"240 193 OFFCURVE",
"253 289 CURVE SMOOTH",
"255 301 OFFCURVE",
"266 303 OFFCURVE",
"280 303 CURVE SMOOTH",
"306 303 OFFCURVE",
"319 300 OFFCURVE",
"312 252 CURVE SMOOTH",
"302 178 OFFCURVE",
"291 103 OFFCURVE",
"281 29 CURVE SMOOTH",
"280 19 OFFCURVE",
"278 10 OFFCURVE",
"277 0 CURVE",
"346 0 OFFCURVE",
"416 0 OFFCURVE",
"485 0 CURVE",
"486 9 OFFCURVE",
"487 18 OFFCURVE",
"489 27 CURVE SMOOTH",
"501 115 OFFCURVE",
"513 203 OFFCURVE",
"526 291 CURVE SMOOTH",
"527 303 OFFCURVE",
"540 305 OFFCURVE",
"553 305 CURVE SMOOTH",
"578 305 OFFCURVE",
"590 300 OFFCURVE",
"584 252 CURVE SMOOTH",
"572 168 OFFCURVE",
"561 84 OFFCURVE",
"549 0 CURVE",
"594 0 OFFCURVE",
"638 0 OFFCURVE",
"683 0 CURVE SMOOTH",
"740 0 OFFCURVE",
"757 7 OFFCURVE",
"765 66 CURVE SMOOTH",
"774 126 OFFCURVE",
"782 185 OFFCURVE",
"790 245 CURVE SMOOTH",
"808 373 OFFCURVE",
"759 400 OFFCURVE",
"601 400 CURVE SMOOTH",
"565 400 OFFCURVE",
"491 396 OFFCURVE",
"447 343 CURVE",
"421 410 OFFCURVE",
"326 400 OFFCURVE",
"275 400 CURVE SMOOTH",
"241 400 OFFCURVE",
"114 392 OFFCURVE",
"59 377 CURVE"
);
},
{
closed = 1;
nodes = (
"45 276 OFFCURVE",
"30 174 OFFCURVE",
"16 73 CURVE SMOOTH",
"9 22 OFFCURVE",
"6 0 OFFCURVE",
"79 0 CURVE SMOOTH",
"124 0 OFFCURVE",
"168 0 OFFCURVE",
"213 0 CURVE",
"226 96 OFFCURVE",
"240 193 OFFCURVE",
"253 289 CURVE SMOOTH",
"255 301 OFFCURVE",
"266 303 OFFCURVE",
"280 303 CURVE SMOOTH",
"306 303 OFFCURVE",
"319 300 OFFCURVE",
"312 252 CURVE SMOOTH",
"302 178 OFFCURVE",
"291 103 OFFCURVE",
"281 29 CURVE SMOOTH",
"280 19 OFFCURVE",
"278 10 OFFCURVE",
"277 0 CURVE",
"346 0 OFFCURVE",
"416 0 OFFCURVE",
"485 0 CURVE",
"486 9 OFFCURVE",
"487 18 OFFCURVE",
"489 27 CURVE SMOOTH",
"501 115 OFFCURVE",
"513 203 OFFCURVE",
"526 291 CURVE SMOOTH",
"527 303 OFFCURVE",
"540 305 OFFCURVE",
"553 305 CURVE SMOOTH",
"578 305 OFFCURVE",
"590 300 OFFCURVE",
"584 252 CURVE SMOOTH",
"572 168 OFFCURVE",
"561 84 OFFCURVE",
"549 0 CURVE",
"594 0 OFFCURVE",
"638 0 OFFCURVE",
"683 0 CURVE SMOOTH",
"740 0 OFFCURVE",
"757 7 OFFCURVE",
"765 66 CURVE SMOOTH",
"774 126 OFFCURVE",
"782 185 OFFCURVE",
"790 245 CURVE SMOOTH",
"808 373 OFFCURVE",
"759 400 OFFCURVE",
"601 400 CURVE SMOOTH",
"565 400 OFFCURVE",
"491 396 OFFCURVE",
"447 343 CURVE",
"421 410 OFFCURVE",
"326 400 OFFCURVE",
"275 400 CURVE SMOOTH",
"241 400 OFFCURVE",
"114 392 OFFCURVE",
"59 377 CURVE"
);
},
{
closed = 1;
nodes = (
"45 276 OFFCURVE",
"30 174 OFFCURVE",
"16 73 CURVE SMOOTH",
"9 22 OFFCURVE",
"6 0 OFFCURVE",
"79 0 CURVE SMOOTH",
"124 0 OFFCURVE",
"168 0 OFFCURVE",
"213 0 CURVE",
"226 96 OFFCURVE",
"240 193 OFFCURVE",
"253 289 CURVE SMOOTH",
"255 301 OFFCURVE",
"266 303 OFFCURVE",
"280 303 CURVE SMOOTH",
"306 303 OFFCURVE",
"319 300 OFFCURVE",
"312 252 CURVE SMOOTH",
"302 178 OFFCURVE",
"291 103 OFFCURVE",
"281 29 CURVE SMOOTH",
"280 19 OFFCURVE",
"278 10 OFFCURVE",
"277 0 CURVE",
"346 0 OFFCURVE",
"416 0 OFFCURVE",
"485 0 CURVE",
"486 9 OFFCURVE",
"487 18 OFFCURVE",
"489 27 CURVE SMOOTH",
"501 115 OFFCURVE",
"513 203 OFFCURVE",
"526 291 CURVE SMOOTH",
"527 303 OFFCURVE",
"540 305 OFFCURVE",
"553 305 CURVE SMOOTH",
"578 305 OFFCURVE",
"590 300 OFFCURVE",
"584 252 CURVE SMOOTH",
"572 168 OFFCURVE",
"561 84 OFFCURVE",
"549 0 CURVE",
"594 0 OFFCURVE",
"638 0 OFFCURVE",
"683 0 CURVE SMOOTH",
"740 0 OFFCURVE",
"757 7 OFFCURVE",
"765 66 CURVE SMOOTH",
"774 126 OFFCURVE",
"782 185 OFFCURVE",
"790 245 CURVE SMOOTH",
"808 373 OFFCURVE",
"759 400 OFFCURVE",
"601 400 CURVE SMOOTH",
"565 400 OFFCURVE",
"491 396 OFFCURVE",
"447 343 CURVE",
"421 410 OFFCURVE",
"326 400 OFFCURVE",
"275 400 CURVE SMOOTH",
"241 400 OFFCURVE",
"114 392 OFFCURVE",
"59 377 CURVE"
);
}
);
};
layerId = "C7668D88-AC50-4107-9C4B-DB5D26A8FA6C";
paths = (
{
closed = 1;
nodes = (
"213 0 LINE",
"253 285 LINE SMOOTH",
"255 298 OFFCURVE",
"260 303 OFFCURVE",
"280 303 CURVE SMOOTH",
"309 303 OFFCURVE",
"318 295 OFFCURVE",
"312 252 CURVE SMOOTH",
"277 0 LINE",
"485 0 LINE",
"525 282 LINE SMOOTH",
"526 296 OFFCURVE",
"535 305 OFFCURVE",
"553 305 CURVE SMOOTH",
"578 305 OFFCURVE",
"590 300 OFFCURVE",
"584 252 CURVE SMOOTH",
"573 168 OFFCURVE",
"561 84 OFFCURVE",
"549 0 CURVE",
"683 0 LINE SMOOTH",
"740 0 OFFCURVE",
"757 7 OFFCURVE",
"765 66 CURVE SMOOTH",
"790 245 LINE SMOOTH",
"808 373 OFFCURVE",
"759 400 OFFCURVE",
"601 400 CURVE SMOOTH",
"558 400 OFFCURVE",
"465 394 OFFCURVE",
"430 309 CURVE",
"457 308 LINE",
"436 389 OFFCURVE",
"388 400 OFFCURVE",
"301 400 CURVE SMOOTH",
"241 400 OFFCURVE",
"114 392 OFFCURVE",
"59 377 CURVE",
"16 73 LINE SMOOTH",
"8 12 OFFCURVE",
"19 0 OFFCURVE",
"79 0 CURVE SMOOTH"
);
}
);
width = 810;
},
{
layerId = "9C644782-EE44-4C4B-9808-39A279382CB0";
paths = (
{
closed = 1;
nodes = (
"64 0 LINE",
"113 349 LINE",
"121 373 OFFCURVE",
"182 384 OFFCURVE",
"238 384 CURVE SMOOTH",
"294 384 OFFCURVE",
"338 358 OFFCURVE",
"335 334 CURVE SMOOTH",
"288 0 LINE",
"310 0 LINE",
"357 334 LINE SMOOTH",
"361 366 OFFCURVE",
"437 385 OFFCURVE",
"484 385 CURVE SMOOTH",
"553 385 OFFCURVE",
"584 362 OFFCURVE",
"575 299 CURVE SMOOTH",
"561 199 OFFCURVE",
"547 100 OFFCURVE",
"533 0 CURVE",
"542 0 LINE SMOOTH",
"551 0 OFFCURVE",
"556 4 OFFCURVE",
"557 14 CURVE SMOOTH",
"597 299 LINE SMOOTH",
"607 370 OFFCURVE",
"582 403 OFFCURVE",
"486 403 CURVE SMOOTH",
"429 403 OFFCURVE",
"369 384 OFFCURVE",
"344 351 CURVE",
"353 351 LINE",
"338 385 OFFCURVE",
"302 402 OFFCURVE",
"242 402 CURVE SMOOTH",
"147 402 OFFCURVE",
"112 379 OFFCURVE",
"93 367 CURVE",
"44 14 LINE SMOOTH",
"43 3 OFFCURVE",
"45 0 OFFCURVE",
"56 0 CURVE SMOOTH"
);
}
);
width = 647;
}
);
leftKerningGroup = n;
leftMetricsKey = n;
note = m;
rightKerningGroup = n;
rightMetricsKey = n;
unicode = 006D;
},
{
color = 7;
glyphname = n;
lastChange = "2021-09-24 03:41:24 +0000";
layers = (
{
anchors = (
{
name = bottom;
position = "{257, 0}";
},
{
name = top;
position = "{313, 399}";
}
);
background = {
anchors = (
{
name = bottom;
position = "{257, 0}";
},
{
name = top;
position = "{313, 399}";
}
);
paths = (
{
closed = 1;
nodes = (
"45 277 OFFCURVE",
"30 175 OFFCURVE",
"13 51 CURVE SMOOTH",
"8 17 OFFCURVE",
"22 0 OFFCURVE",
"55 0 CURVE",
"212 0 LINE",
"225 94 OFFCURVE",
"238 186 OFFCURVE",
"251 280 CURVE",
"262 287 OFFCURVE",
"282 292 OFFCURVE",
"296 292 CURVE SMOOTH",
"316 292 OFFCURVE",
"340 281 OFFCURVE",
"335 244 CURVE SMOOTH",
"325 170 OFFCURVE",
"315 98 OFFCURVE",
"304 24 CURVE SMOOTH",
"303 16 OFFCURVE",
"302 8 OFFCURVE",
"301 0 CURVE",
"430 -1 LINE",
"502 -1 OFFCURVE",
"509 15 OFFCURVE",
"517 75 CURVE SMOOTH",
"523 115 OFFCURVE",
"528 154 OFFCURVE",
"534 194 CURVE SMOOTH",
"557 358 OFFCURVE",
"549 402 OFFCURVE",
"310 402 CURVE SMOOTH",
"203 402 OFFCURVE",
"102 390 OFFCURVE",
"59 379 CURVE"
);
}
);
};
guideLines = (
{
angle = 82;
position = "{26, 135}";
}
);
layerId = "C7668D88-AC50-4107-9C4B-DB5D26A8FA6C";
paths = (
{
closed = 1;
nodes = (
"212 0 LINE",
"251 280 LINE",
"262 287 OFFCURVE",
"282 292 OFFCURVE",
"296 292 CURVE SMOOTH",
"316 292 OFFCURVE",
"340 281 OFFCURVE",
"335 244 CURVE SMOOTH",
"301 0 LINE",
"430 -1 LINE SMOOTH",
"502 -1 OFFCURVE",
"509 15 OFFCURVE",
"517 75 CURVE SMOOTH",
"534 194 LINE SMOOTH",
"557 358 OFFCURVE",
"549 402 OFFCURVE",
"310 402 CURVE SMOOTH",
"203 402 OFFCURVE",
"102 390 OFFCURVE",
"59 379 CURVE",
"13 51 LINE SMOOTH",
"8 17 OFFCURVE",
"22 0 OFFCURVE",
"55 0 CURVE SMOOTH"
);
}
);
width = 561;
},
{
anchors = (
{
name = bottom;
position = "{204, 0}";
},
{
name = top;
position = "{260, 399}";
}
);
layerId = "9C644782-EE44-4C4B-9808-39A279382CB0";
paths = (
{
closed = 1;
nodes = (
"64 0 LINE",
"114 353 LINE",
"138 374 OFFCURVE",
"191 384 OFFCURVE",
"264 384 CURVE SMOOTH",
"360 384 OFFCURVE",
"390 355 OFFCURVE",
"381 295 CURVE SMOOTH",
"340 0 LINE",
"347 0 LINE SMOOTH",
"357 0 OFFCURVE",
"362 5 OFFCURVE",
"364 14 CURVE SMOOTH",
"403 294 LINE SMOOTH",
"413 366 OFFCURVE",
"390 402 OFFCURVE",
"269 402 CURVE SMOOTH",
"156 402 OFFCURVE",
"122 383 OFFCURVE",
"93 367 CURVE",
"44 14 LINE SMOOTH",
"42 3 OFFCURVE",
"45 0 OFFCURVE",
"56 0 CURVE SMOOTH"
);
}
);
width = 454;
}
);
leftKerningGroup = n;
note = n;
rightKerningGroup = h;
unicode = 006E;
},
{
color = 9;
glyphname = eng;
lastChange = "2021-09-24 03:41:24 +0000";
layers = (
{
background = {
paths = (
{
closed = 1;
nodes = (
"21 73 LINE SMOOTH",
"15 25 OFFCURVE",
"15 -1 OFFCURVE",
"60 -1 CURVE SMOOTH",
"71 -1 OFFCURVE",
"213 0 OFFCURVE",
"218 0 CURVE",
"258 281 LINE",
"272 287 OFFCURVE",
"287 293 OFFCURVE",
"301 293 CURVE SMOOTH",
"324 293 OFFCURVE",
"343 283 OFFCURVE",
"340 249 CURVE",
"329 166 OFFCURVE",
"317 83 OFFCURVE",
"305 0 CURVE SMOOTH",
"299 -38 OFFCURVE",
"270 -61 OFFCURVE",
"200 -51 CURVE",
"199 -61 OFFCURVE",
"191 -107 OFFCURVE",
"190 -115 CURVE",
"207 -126 OFFCURVE",
"259 -135 OFFCURVE",
"313 -135 CURVE SMOOTH",
"528 -135 OFFCURVE",
"509 -32 OFFCURVE",
"518 31 CURVE SMOOTH",
"525 81 OFFCURVE",
"526 100 OFFCURVE",
"529 119 CURVE SMOOTH",
"540 194 LINE SMOOTH",
"563 358 OFFCURVE",
"555 402 OFFCURVE",
"316 402 CURVE SMOOTH",
"209 402 OFFCURVE",
"107 390 OFFCURVE",
"65 379 CURVE"
);
}
);
};
layerId = "C7668D88-AC50-4107-9C4B-DB5D26A8FA6C";
paths = (
{
closed = 1;
nodes = (
"21 73 LINE SMOOTH",
"15 25 OFFCURVE",
"15 -1 OFFCURVE",
"60 -1 CURVE SMOOTH",
"71 -1 OFFCURVE",
"213 0 OFFCURVE",
"218 0 CURVE",
"258 281 LINE",
"272 287 OFFCURVE",
"287 293 OFFCURVE",
"301 293 CURVE SMOOTH",
"324 293 OFFCURVE",
"343 283 OFFCURVE",
"340 249 CURVE",
"329 166 OFFCURVE",
"317 83 OFFCURVE",
"305 0 CURVE SMOOTH",
"299 -38 OFFCURVE",
"270 -61 OFFCURVE",
"200 -51 CURVE",
"199 -61 OFFCURVE",
"191 -107 OFFCURVE",
"190 -115 CURVE",
"207 -126 OFFCURVE",
"259 -135 OFFCURVE",
"313 -135 CURVE SMOOTH",
"528 -135 OFFCURVE",
"509 -32 OFFCURVE",
"518 31 CURVE SMOOTH",
"525 81 OFFCURVE",
"526 100 OFFCURVE",
"529 119 CURVE SMOOTH",
"540 194 LINE SMOOTH",
"563 358 OFFCURVE",
"555 402 OFFCURVE",
"316 402 CURVE SMOOTH",
"209 402 OFFCURVE",
"107 390 OFFCURVE",
"65 379 CURVE"
);
}
);
width = 562;
},
{
layerId = "9C644782-EE44-4C4B-9808-39A279382CB0";
paths = (
{
closed = 1;
nodes = (
"22 14 LINE SMOOTH",
"21 2 OFFCURVE",
"26 0 OFFCURVE",
"35 0 CURVE SMOOTH",
"37 0 OFFCURVE",
"41 0 OFFCURVE",
"43 0 CURVE",
"92 348 LINE",
"100 373 OFFCURVE",
"170 386 OFFCURVE",
"242 386 CURVE SMOOTH",
"328 386 OFFCURVE",
"368 358 OFFCURVE",
"360 295 CURVE SMOOTH",
"346 194 OFFCURVE",
"332 94 OFFCURVE",
"318 -7 CURVE SMOOTH",
"309 -71 OFFCURVE",
"299 -91 OFFCURVE",
"221 -80 CURVE",
"221 -85 OFFCURVE",
"219 -90 OFFCURVE",
"218 -95 CURVE",
"227 -97 OFFCURVE",
"249 -99 OFFCURVE",
"269 -99 CURVE SMOOTH",
"324 -99 OFFCURVE",
"333 -64 OFFCURVE",
"342 6 CURVE SMOOTH",
"343 10 OFFCURVE",
"346 40 OFFCURVE",
"352 85 CURVE SMOOTH",
"381 294 LINE SMOOTH",
"392 366 OFFCURVE",
"369 402 OFFCURVE",
"247 402 CURVE SMOOTH",
"118 402 OFFCURVE",
"84 373 OFFCURVE",
"72 367 CURVE"
);
}
);
width = 423;
}
);
note = eng;
rightKerningGroup = h;
unicode = 014B;
},
{
color = 7;
glyphname = o;
lastChange = "2021-09-24 03:41:24 +0000";
layers = (
{
anchors = (
{
name = bottom;
position = "{259, 0}";
},
{
name = center;
position = "{287, 200}";
},
{
name = ogonek;
position = "{321, 10}";
},
{
name = top;
position = "{315, 399}";
},
{
name = topright;
position = "{418, 399}";
}
);
background = {
anchors = (
{
name = bottom;
position = "{259, 0}";
},
{
name = center;
position = "{287, 200}";
},
{
name = ogonek;
position = "{321, 10}";
},
{
name = top;
position = "{315, 399}";
},
{
name = topright;
position = "{418, 399}";
}
);
paths = (
{
closed = 1;
nodes = (
"-210 -7 OFFCURVE",
"-82 7 OFFCURVE",
"-55 199 CURVE SMOOTH",
"-29 387 OFFCURVE",
"-140 405 OFFCURVE",
"-283 405 CURVE SMOOTH",
"-424 405 OFFCURVE",
"-553 391 OFFCURVE",
"-580 199 CURVE SMOOTH",
"-606 12 OFFCURVE",
"-497 -7 OFFCURVE",
"-353 -7 CURVE SMOOTH"
);
},
{
closed = 1;
nodes = (
"-358 92 OFFCURVE",
"-379 104 OFFCURVE",
"-366 198 CURVE SMOOTH",
"-353 292 OFFCURVE",
"-332 306 OFFCURVE",
"-299 306 CURVE SMOOTH",
"-275 306 OFFCURVE",
"-256 293 OFFCURVE",
"-269 199 CURVE SMOOTH",
"-282 105 OFFCURVE",
"-299 92 OFFCURVE",
"-329 92 CURVE SMOOTH"
);
},
{
closed = 1;
nodes = (
"-210 -7 OFFCURVE",
"-82 7 OFFCURVE",
"-55 199 CURVE SMOOTH",
"-29 387 OFFCURVE",
"-140 405 OFFCURVE",
"-283 405 CURVE SMOOTH",
"-424 405 OFFCURVE",
"-553 391 OFFCURVE",
"-580 199 CURVE SMOOTH",
"-606 12 OFFCURVE",
"-497 -7 OFFCURVE",
"-353 -7 CURVE SMOOTH"
);
},
{
closed = 1;
nodes = (
"-358 92 OFFCURVE",
"-379 104 OFFCURVE",
"-366 198 CURVE SMOOTH",
"-353 292 OFFCURVE",
"-332 306 OFFCURVE",
"-299 306 CURVE SMOOTH",
"-275 306 OFFCURVE",
"-256 293 OFFCURVE",
"-269 199 CURVE SMOOTH",
"-282 105 OFFCURVE",
"-299 92 OFFCURVE",
"-329 92 CURVE SMOOTH"
);
},
{
closed = 1;
nodes = (
"-148 -7 OFFCURVE",
"-77 50 OFFCURVE",
"-56 199 CURVE SMOOTH",
"-33 362 OFFCURVE",
"-103 405 OFFCURVE",
"-284 405 CURVE SMOOTH",
"-475 405 OFFCURVE",
"-558 360 OFFCURVE",
"-581 199 CURVE SMOOTH",
"-603 39 OFFCURVE",
"-536 -7 OFFCURVE",
"-354 -7 CURVE SMOOTH"
);
},
{
closed = 1;
nodes = (
"-359 92 OFFCURVE",
"-380 104 OFFCURVE",
"-367 198 CURVE SMOOTH",
"-354 292 OFFCURVE",
"-333 306 OFFCURVE",
"-300 306 CURVE SMOOTH",
"-276 306 OFFCURVE",
"-257 293 OFFCURVE",
"-270 199 CURVE SMOOTH",
"-283 105 OFFCURVE",
"-300 92 OFFCURVE",
"-330 92 CURVE SMOOTH"
);
},
{
closed = 1;
nodes = (
"428 -7 OFFCURVE",
"515 33 OFFCURVE",
"538 199 CURVE SMOOTH",
"561 365 OFFCURVE",
"487 405 OFFCURVE",
"312 405 CURVE SMOOTH",
"134 405 OFFCURVE",
"47 365 OFFCURVE",
"24 199 CURVE SMOOTH",
"1 33 OFFCURVE",
"76 -7 OFFCURVE",
"254 -7 CURVE SMOOTH"
);
},
{
closed = 1;
nodes = (
"233 92 OFFCURVE",
"220 115 OFFCURVE",
"232 199 CURVE SMOOTH",
"244 283 OFFCURVE",
"263 306 OFFCURVE",
"298 306 CURVE SMOOTH",
"333 306 OFFCURVE",
"342 283 OFFCURVE",
"330 199 CURVE SMOOTH",
"318 115 OFFCURVE",
"303 92 OFFCURVE",
"268 92 CURVE SMOOTH"
);
}
);
};
layerId = "C7668D88-AC50-4107-9C4B-DB5D26A8FA6C";
paths = (
{
closed = 1;
nodes = (
"429 -7 OFFCURVE",
"514 29 OFFCURVE",
"538 199 CURVE SMOOTH",
"560 355 OFFCURVE",
"482 405 OFFCURVE",
"307 405 CURVE SMOOTH",
"137 405 OFFCURVE",
"48 369 OFFCURVE",
"24 199 CURVE SMOOTH",
"2 43 OFFCURVE",
"84 -7 OFFCURVE",
"259 -7 CURVE SMOOTH"
);
},
{
closed = 1;
nodes = (
"233 92 OFFCURVE",
"220 115 OFFCURVE",
"232 199 CURVE SMOOTH",
"244 283 OFFCURVE",
"263 306 OFFCURVE",
"298 306 CURVE SMOOTH",
"333 306 OFFCURVE",
"342 283 OFFCURVE",
"330 199 CURVE SMOOTH",
"318 115 OFFCURVE",
"303 92 OFFCURVE",
"268 92 CURVE SMOOTH"
);
}
);
width = 562;
},
{
anchors = (
{
name = bottom;
position = "{202, 0}";
},
{
name = center;
position = "{230, 200}";
},
{
name = ogonek;
position = "{217, 7}";
},
{
name = top;
position = "{258, 399}";
},
{
name = topright;
position = "{318, 399}";
}
);
layerId = "9C644782-EE44-4C4B-9808-39A279382CB0";
paths = (
{
closed = 1;
nodes = (
"303 -5 OFFCURVE",
"383 13 OFFCURVE",
"409 199 CURVE SMOOTH",
"435 383 OFFCURVE",
"361 403 OFFCURVE",
"259 403 CURVE SMOOTH",
"158 403 OFFCURVE",
"77 384 OFFCURVE",
"51 199 CURVE SMOOTH",
"25 15 OFFCURVE",
"100 -5 OFFCURVE",
"201 -5 CURVE SMOOTH"
);
},
{
closed = 1;
nodes = (
"109 13 OFFCURVE",
"53 36 OFFCURVE",
"75 199 CURVE SMOOTH",
"98 362 OFFCURVE",
"160 385 OFFCURVE",
"256 385 CURVE SMOOTH",
"352 385 OFFCURVE",
"408 362 OFFCURVE",
"385 199 CURVE SMOOTH",
"362 36 OFFCURVE",
"300 13 OFFCURVE",
"204 13 CURVE SMOOTH"
);
}
);
width = 460;
}
);
leftKerningGroup = o;
note = o;
rightKerningGroup = o;
unicode = 006F;
},
{
color = 7;
glyphname = oslash;
lastChange = "2021-09-24 03:41:24 +0000";
layers = (
{
anchors = (
{
name = top;
position = "{317, 399}";
}
);
background = {
anchors = (
{
name = top;
position = "{317, 399}";
}
);
paths = (
{
closed = 1;
nodes = (
"3 12 OFFCURVE",
"113 -7 OFFCURVE",
"257 -7 CURVE SMOOTH",
"400 -7 OFFCURVE",
"528 7 OFFCURVE",
"555 199 CURVE SMOOTH",
"581 387 OFFCURVE",
"470 405 OFFCURVE",
"327 405 CURVE SMOOTH",
"186 405 OFFCURVE",
"57 391 OFFCURVE",
"30 199 CURVE SMOOTH"
);
},
{
closed = 1;
nodes = (
"341 103 OFFCURVE",
"315 90 OFFCURVE",
"277 90 CURVE SMOOTH",
"238 90 OFFCURVE",
"215 103 OFFCURVE",
"228 197 CURVE SMOOTH",
"242 291 OFFCURVE",
"268 304 OFFCURVE",
"307 304 CURVE SMOOTH",
"345 304 OFFCURVE",
"368 291 OFFCURVE",
"354 197 CURVE SMOOTH"
);
},
{
closed = 1;
nodes = (
"152 -85 LINE",
"464 431 LINE",
"398 431 LINE",
"87 -85 LINE"
);
}
);
};
layerId = "C7668D88-AC50-4107-9C4B-DB5D26A8FA6C";
paths = (
{
closed = 1;
nodes = (
"3 12 OFFCURVE",
"113 -7 OFFCURVE",
"257 -7 CURVE SMOOTH",
"400 -7 OFFCURVE",
"528 7 OFFCURVE",
"555 199 CURVE SMOOTH",
"581 387 OFFCURVE",
"470 405 OFFCURVE",
"327 405 CURVE SMOOTH",
"186 405 OFFCURVE",
"57 391 OFFCURVE",
"30 199 CURVE SMOOTH"
);
},
{
closed = 1;
nodes = (
"341 103 OFFCURVE",
"315 90 OFFCURVE",
"277 90 CURVE SMOOTH",
"238 90 OFFCURVE",
"215 103 OFFCURVE",
"228 197 CURVE SMOOTH",
"242 291 OFFCURVE",
"268 304 OFFCURVE",
"307 304 CURVE SMOOTH",
"345 304 OFFCURVE",
"368 291 OFFCURVE",
"354 197 CURVE SMOOTH"
);
},
{
closed = 1;
nodes = (
"152 -85 LINE",
"464 431 LINE",
"398 431 LINE",
"87 -85 LINE"
);
}
);
width = 578;
},
{
anchors = (
{
name = top;
position = "{242, 399}";
}
);
layerId = "9C644782-EE44-4C4B-9808-39A279382CB0";
paths = (
{
closed = 1;
nodes = (
"11 14 OFFCURVE",
"86 -5 OFFCURVE",
"183 -5 CURVE SMOOTH",
"280 -5 OFFCURVE",
"368 9 OFFCURVE",
"394 199 CURVE SMOOTH",
"420 384 OFFCURVE",
"347 403 OFFCURVE",
"250 403 CURVE SMOOTH",
"153 403 OFFCURVE",
"64 389 OFFCURVE",
"37 199 CURVE SMOOTH"
);
},
{
closed = 1;
nodes = (
"349 33 OFFCURVE",
"289 11 OFFCURVE",
"189 11 CURVE SMOOTH",
"90 11 OFFCURVE",
"38 33 OFFCURVE",
"61 198 CURVE SMOOTH",
"84 364 OFFCURVE",
"143 387 OFFCURVE",
"241 387 CURVE SMOOTH",
"341 387 OFFCURVE",
"395 364 OFFCURVE",
"372 198 CURVE SMOOTH"
);
},
{
closed = 1;
nodes = (
"77 -85 LINE",
"359 450 LINE",
"340 450 LINE",
"58 -85 LINE"
);
}
);
width = 427;
}
);
leftKerningGroup = e;
note = oslash;
rightKerningGroup = o;
unicode = 00F8;
},
{
color = 7;
glyphname = p;
lastChange = "2021-09-24 03:41:24 +0000";
layers = (
{
background = {
paths = (
{
closed = 1;
nodes = (
"63 384 OFFCURVE",
"60 357 OFFCURVE",
"56 328 CURVE SMOOTH",
"39 204 LINE",
"-7 -107 LINE",
"202 -107 LINE",
"224 42 LINE",
"226 13 OFFCURVE",
"259 -3 OFFCURVE",
"331 -3 CURVE SMOOTH",
"495 -3 OFFCURVE",
"546 46 OFFCURVE",
"566 210 CURVE SMOOTH",
"584 365 OFFCURVE",
"518 403 OFFCURVE",
"319 403 CURVE SMOOTH",
"239 403 OFFCURVE",
"88 394 OFFCURVE",
"62 389 CURVE"
);
},
{
closed = 1;
nodes = (
"261 295 LINE",
"279 295 OFFCURVE",
"295 296 OFFCURVE",
"313 296 CURVE SMOOTH",
"347 296 OFFCURVE",
"355 283 OFFCURVE",
"350 231 CURVE SMOOTH",
"341 133 OFFCURVE",
"329 106 OFFCURVE",
"282 106 CURVE SMOOTH",
"250 106 OFFCURVE",
"234 119 OFFCURVE",
"247 203 CURVE SMOOTH"
);
},
{
closed = 1;
nodes = (
"63 384 OFFCURVE",
"60 357 OFFCURVE",
"56 328 CURVE SMOOTH",
"39 204 LINE",
"-7 -107 LINE",
"202 -107 LINE",
"224 42 LINE",
"226 13 OFFCURVE",
"259 -3 OFFCURVE",
"331 -3 CURVE SMOOTH",
"495 -3 OFFCURVE",
"546 46 OFFCURVE",
"566 210 CURVE SMOOTH",
"584 365 OFFCURVE",
"518 403 OFFCURVE",
"319 403 CURVE SMOOTH",
"239 403 OFFCURVE",
"88 394 OFFCURVE",
"62 389 CURVE"
);
},
{
closed = 1;
nodes = (
"261 295 LINE",
"279 295 OFFCURVE",
"295 296 OFFCURVE",
"313 296 CURVE SMOOTH",
"347 296 OFFCURVE",
"355 283 OFFCURVE",
"350 231 CURVE SMOOTH",
"341 133 OFFCURVE",
"329 106 OFFCURVE",
"282 106 CURVE SMOOTH",
"250 106 OFFCURVE",
"234 119 OFFCURVE",
"247 203 CURVE SMOOTH"
);
},
{
closed = 1;
nodes = (
"200 -107 LINE",
"221 42 LINE",
"223 13 OFFCURVE",
"257 -3 OFFCURVE",
"330 -3 CURVE SMOOTH",
"483 -3 OFFCURVE",
"527 27 OFFCURVE",
"552 186 CURVE SMOOTH",
"577 350 OFFCURVE",
"524 403 OFFCURVE",
"318 403 CURVE SMOOTH",
"238 403 OFFCURVE",
"87 394 OFFCURVE",
"61 389 CURVE",
"62 384 OFFCURVE",
"59 357 OFFCURVE",
"55 328 CURVE SMOOTH",
"-6 -107 LINE"
);
},
{
closed = 1;
nodes = (
"252 106 OFFCURVE",
"239 119 OFFCURVE",
"249 203 CURVE SMOOTH",
"260 293 LINE",
"277 295 OFFCURVE",
"294 296 OFFCURVE",
"312 296 CURVE SMOOTH",
"349 296 OFFCURVE",
"356 275 OFFCURVE",
"343 197 CURVE SMOOTH",
"334 142 OFFCURVE",
"332 106 OFFCURVE",
"281 106 CURVE SMOOTH"
);
},
{
closed = 1;
nodes = (
"203 -107 LINE",
"228 72 LINE",
"199 64 LINE",
"215 29 OFFCURVE",
"251 -3 OFFCURVE",
"333 -3 CURVE SMOOTH",
"481 -3 OFFCURVE",
"530 45 OFFCURVE",
"552 186 CURVE SMOOTH",
"577 347 OFFCURVE",
"516 403 OFFCURVE",
"318 403 CURVE SMOOTH",
"238 403 OFFCURVE",
"87 394 OFFCURVE",
"61 389 CURVE",
"62 384 OFFCURVE",
"59 357 OFFCURVE",
"55 328 CURVE SMOOTH",
"-6 -107 LINE"
);
},
{
closed = 1;
nodes = (
"251 106 OFFCURVE",
"235 119 OFFCURVE",
"245 192 CURVE SMOOTH",
"259 293 LINE",
"277 295 OFFCURVE",
"294 296 OFFCURVE",
"312 296 CURVE SMOOTH",
"349 296 OFFCURVE",
"354 275 OFFCURVE",
"345 212 CURVE SMOOTH",
"335 142 OFFCURVE",
"332 106 OFFCURVE",
"283 106 CURVE SMOOTH"
);
}
);
};
guideLines = (
{
position = "{589, 106}";
}
);
layerId = "C7668D88-AC50-4107-9C4B-DB5D26A8FA6C";
paths = (
{
closed = 1;
nodes = (
"203 -107 LINE",
"228 72 LINE",
"199 64 LINE",
"215 29 OFFCURVE",
"251 -3 OFFCURVE",
"333 -3 CURVE SMOOTH",
"481 -3 OFFCURVE",
"530 45 OFFCURVE",
"552 186 CURVE SMOOTH",
"577 349 OFFCURVE",
"515 403 OFFCURVE",
"318 403 CURVE SMOOTH",
"238 403 OFFCURVE",
"87 394 OFFCURVE",
"61 389 CURVE",
"62 384 OFFCURVE",
"59 357 OFFCURVE",
"55 328 CURVE SMOOTH",
"-6 -107 LINE"
);
},
{
closed = 1;
nodes = (
"248 106 OFFCURVE",
"235 122 OFFCURVE",
"245 192 CURVE SMOOTH",
"259 293 LINE",
"277 295 OFFCURVE",
"294 296 OFFCURVE",
"312 296 CURVE SMOOTH",
"343 296 OFFCURVE",
"355 285 OFFCURVE",
"345 212 CURVE SMOOTH",
"333 129 OFFCURVE",
"323 106 OFFCURVE",
"283 106 CURVE SMOOTH"
);
}
);
width = 578;
},
{
layerId = "9C644782-EE44-4C4B-9808-39A279382CB0";
paths = (
{
closed = 1;
nodes = (
"50 -107 LINE",
"81 108 LINE",
"73 96 LINE",
"68 10 OFFCURVE",
"136 -4 OFFCURVE",
"214 -4 CURVE SMOOTH",
"338 -4 OFFCURVE",
"386 51 OFFCURVE",
"413 192 CURVE SMOOTH",
"440 335 OFFCURVE",
"401 402 OFFCURVE",
"257 402 CURVE SMOOTH",
"201 402 OFFCURVE",
"117 394 OFFCURVE",
"97 390 CURVE",
"97 382 OFFCURVE",
"93 350 OFFCURVE",
"88 311 CURVE SMOOTH",
"28 -107 LINE"
);
},
{
closed = 1;
nodes = (
"125 14 OFFCURVE",
"72 39 OFFCURVE",
"86 141 CURVE SMOOTH",
"119 375 LINE",
"139 378 OFFCURVE",
"217 384 OFFCURVE",
"251 384 CURVE SMOOTH",
"378 384 OFFCURVE",
"415 335 OFFCURVE",
"392 196 CURVE SMOOTH",
"373 60 OFFCURVE",
"312 14 OFFCURVE",
"219 14 CURVE SMOOTH"
);
}
);
width = 466;
}
);
leftKerningGroup = n;
leftMetricsKey = n;
note = p;
rightKerningGroup = o;
rightMetricsKey = o;
unicode = 0070;
},
{
glyphname = thorn;
lastChange = "2021-09-24 03:41:24 +0000";
layers = (
{
background = {
paths = (
{
closed = 1;
nodes = (
"197 -107 LINE",
"215 26 LINE",
"222 26 OFFCURVE",
"230 26 OFFCURVE",
"237 26 CURVE SMOOTH",
"419 26 OFFCURVE",
"532 21 OFFCURVE",
"556 194 CURVE SMOOTH",
"580 362 OFFCURVE",
"448 369 OFFCURVE",
"289 369 CURVE SMOOTH",
"280 369 OFFCURVE",
"272 369 OFFCURVE",
"263 369 CURVE",
"282 507 LINE",
"155 507 LINE SMOOTH",
"104 507 OFFCURVE",
"86 494 OFFCURVE",
"79 441 CURVE SMOOTH",
"2 -107 LINE"
);
},
{
closed = 1;
nodes = (
"347 135 OFFCURVE",
"317 120 OFFCURVE",
"253 115 CURVE SMOOTH",
"244 114 OFFCURVE",
"236 114 OFFCURVE",
"227 113 CURVE",
"251 285 LINE",
"259 285 OFFCURVE",
"266 285 OFFCURVE",
"272 284 CURVE SMOOTH",
"337 282 OFFCURVE",
"365 267 OFFCURVE",
"356 198 CURVE SMOOTH"
);
}
);
};
layerId = "C7668D88-AC50-4107-9C4B-DB5D26A8FA6C";
paths = (
{
closed = 1;
nodes = (
"197 -107 LINE",
"215 26 LINE",
"222 26 OFFCURVE",
"230 26 OFFCURVE",
"237 26 CURVE SMOOTH",
"419 26 OFFCURVE",
"532 21 OFFCURVE",
"556 194 CURVE SMOOTH",
"580 362 OFFCURVE",
"448 369 OFFCURVE",
"289 369 CURVE SMOOTH",
"280 369 OFFCURVE",
"272 369 OFFCURVE",
"263 369 CURVE",
"282 507 LINE",
"155 507 LINE SMOOTH",
"104 507 OFFCURVE",
"86 494 OFFCURVE",
"79 441 CURVE SMOOTH",
"2 -107 LINE"
);
},
{
closed = 1;
nodes = (
"347 135 OFFCURVE",
"317 120 OFFCURVE",
"253 115 CURVE SMOOTH",
"244 114 OFFCURVE",
"236 114 OFFCURVE",
"227 113 CURVE",
"251 285 LINE",
"259 285 OFFCURVE",
"266 285 OFFCURVE",
"272 284 CURVE SMOOTH",
"337 282 OFFCURVE",
"365 267 OFFCURVE",
"356 198 CURVE SMOOTH"
);
}
);
width = 571;
},
{
layerId = "9C644782-EE44-4C4B-9808-39A279382CB0";
paths = (
{
closed = 1;
nodes = (
"22 -108 LINE",
"42 32 LINE",
"74 24 OFFCURVE",
"124 23 OFFCURVE",
"140 23 CURVE SMOOTH",
"275 23 OFFCURVE",
"348 39 OFFCURVE",
"370 198 CURVE SMOOTH",
"393 359 OFFCURVE",
"324 377 OFFCURVE",
"192 377 CURVE SMOOTH",
"178 377 OFFCURVE",
"122 374 OFFCURVE",
"89 366 CURVE",
"108 502 LINE",
"96 502 LINE SMOOTH",
"87 502 OFFCURVE",
"83 499 OFFCURVE",
"81 478 CURVE SMOOTH",
"-2 -108 LINE"
);
},
{
closed = 1;
nodes = (
"327 56 OFFCURVE",
"274 39 OFFCURVE",
"140 39 CURVE SMOOTH",
"104 39 OFFCURVE",
"69 44 OFFCURVE",
"44 49 CURVE",
"87 352 LINE",
"104 358 OFFCURVE",
"149 363 OFFCURVE",
"185 363 CURVE SMOOTH",
"317 363 OFFCURVE",
"367 339 OFFCURVE",
"347 198 CURVE SMOOTH"
);
}
);
width = 419;
}
);
leftKerningGroup = bracketleft;
note = thorn;
unicode = 00FE;
},
{
color = 7;
glyphname = q;
lastChange = "2021-09-24 03:41:24 +0000";
layers = (
{
background = {
paths = (
{
closed = 1;
nodes = (
"89 402 OFFCURVE",
"45 375 OFFCURVE",
"23 216 CURVE SMOOTH",
"20 200 OFFCURVE",
"18 185 OFFCURVE",
"16 169 CURVE SMOOTH",
"-3 31 OFFCURVE",
"44 -3 OFFCURVE",
"196 -3 CURVE SMOOTH",
"249 -3 OFFCURVE",
"256 -4 OFFCURVE",
"302 -1 CURVE",
"297 -37 OFFCURVE",
"292 -72 OFFCURVE",
"287 -108 CURVE",
"495 -108 LINE",
"509 -6 OFFCURVE",
"523 97 OFFCURVE",
"537 199 CURVE SMOOTH",
"540 219 OFFCURVE",
"558 358 OFFCURVE",
"571 401 CURVE",
"551 399 OFFCURVE",
"390 402 OFFCURVE",
"315 402 CURVE SMOOTH"
);
},
{
closed = 1;
nodes = (
"311 295 OFFCURVE",
"327 295 OFFCURVE",
"344 295 CURVE",
"335 232 OFFCURVE",
"326 169 OFFCURVE",
"317 106 CURVE",
"313 106 OFFCURVE",
"309 106 OFFCURVE",
"305 106 CURVE SMOOTH",
"227 106 OFFCURVE",
"222 112 OFFCURVE",
"232 199 CURVE SMOOTH",
"242 282 OFFCURVE",
"258 295 OFFCURVE",
"294 295 CURVE SMOOTH"
);
},
{
closed = 1;
nodes = (
"89 402 OFFCURVE",
"45 375 OFFCURVE",
"23 216 CURVE SMOOTH",
"20 200 OFFCURVE",
"18 185 OFFCURVE",
"16 169 CURVE SMOOTH",
"-3 31 OFFCURVE",
"44 -3 OFFCURVE",
"196 -3 CURVE SMOOTH",
"249 -3 OFFCURVE",
"256 -4 OFFCURVE",
"302 -1 CURVE",
"297 -37 OFFCURVE",
"292 -72 OFFCURVE",
"287 -108 CURVE",
"495 -108 LINE",
"509 -6 OFFCURVE",
"523 97 OFFCURVE",
"537 199 CURVE SMOOTH",
"540 219 OFFCURVE",
"558 358 OFFCURVE",
"571 401 CURVE",
"551 399 OFFCURVE",
"390 402 OFFCURVE",
"315 402 CURVE SMOOTH"
);
},
{
closed = 1;
nodes = (
"311 295 OFFCURVE",
"327 295 OFFCURVE",
"344 295 CURVE",
"335 232 OFFCURVE",
"326 169 OFFCURVE",
"317 106 CURVE",
"313 106 OFFCURVE",
"309 106 OFFCURVE",
"305 106 CURVE SMOOTH",
"227 106 OFFCURVE",
"222 112 OFFCURVE",
"232 199 CURVE SMOOTH",
"242 282 OFFCURVE",
"258 295 OFFCURVE",
"294 295 CURVE SMOOTH"
);
},
{
closed = 1;
nodes = (
"495 -108 LINE",
"556 324 LINE SMOOTH",
"560 353 OFFCURVE",
"562 378 OFFCURVE",
"571 401 CURVE",
"551 399 OFFCURVE",
"390 402 OFFCURVE",
"315 402 CURVE SMOOTH",
"89 402 OFFCURVE",
"45 375 OFFCURVE",
"23 216 CURVE SMOOTH",
"16 169 LINE SMOOTH",
"-3 31 OFFCURVE",
"44 -3 OFFCURVE",
"196 -3 CURVE SMOOTH",
"249 -3 OFFCURVE",
"256 -4 OFFCURVE",
"302 -1 CURVE",
"287 -108 LINE"
);
},
{
closed = 1;
nodes = (
"227 106 OFFCURVE",
"222 112 OFFCURVE",
"232 199 CURVE SMOOTH",
"242 282 OFFCURVE",
"258 295 OFFCURVE",
"294 295 CURVE SMOOTH",
"311 295 OFFCURVE",
"327 295 OFFCURVE",
"344 295 CURVE",
"317 106 LINE",
"308 106 OFFCURVE",
"299 106 OFFCURVE",
"290 106 CURVE SMOOTH"
);
}
);
};
layerId = "C7668D88-AC50-4107-9C4B-DB5D26A8FA6C";
paths = (
{
closed = 1;
nodes = (
"494 -107 LINE",
"555 324 LINE SMOOTH",
"559 353 OFFCURVE",
"561 378 OFFCURVE",
"570 401 CURVE",
"550 399 OFFCURVE",
"389 402 OFFCURVE",
"314 402 CURVE SMOOTH",
"105 402 OFFCURVE",
"47 364 OFFCURVE",
"26 216 CURVE SMOOTH",
"2 41 OFFCURVE",
"48 -3 OFFCURVE",
"195 -3 CURVE SMOOTH",
"248 -3 OFFCURVE",
"255 -4 OFFCURVE",
"301 -1 CURVE",
"286 -107 LINE"
);
},
{
closed = 1;
nodes = (
"226 106 OFFCURVE",
"221 112 OFFCURVE",
"231 199 CURVE SMOOTH",
"241 282 OFFCURVE",
"257 295 OFFCURVE",
"293 295 CURVE SMOOTH",
"310 295 OFFCURVE",
"326 295 OFFCURVE",
"343 295 CURVE",
"316 106 LINE",
"307 106 OFFCURVE",
"298 106 OFFCURVE",
"289 106 CURVE SMOOTH"
);
}
);
width = 565;
},
{
layerId = "9C644782-EE44-4C4B-9808-39A279382CB0";
paths = (
{
closed = 1;
nodes = (
"351 -107 LINE",
"417 356 LINE SMOOTH",
"420 384 OFFCURVE",
"423 397 OFFCURVE",
"426 401 CURVE",
"419 398 OFFCURVE",
"325 400 OFFCURVE",
"257 400 CURVE SMOOTH",
"130 400 OFFCURVE",
"74 371 OFFCURVE",
"51 201 CURVE SMOOTH",
"29 49 OFFCURVE",
"62 -2 OFFCURVE",
"201 -2 CURVE SMOOTH",
"234 -2 OFFCURVE",
"330 3 OFFCURVE",
"345 4 CURVE",
"329 -107 LINE"
);
},
{
closed = 1;
nodes = (
"91 16 OFFCURVE",
"53 55 OFFCURVE",
"71 190 CURVE SMOOTH",
"94 352 OFFCURVE",
"132 382 OFFCURVE",
"261 382 CURVE SMOOTH",
"349 382 OFFCURVE",
"383 380 OFFCURVE",
"398 380 CURVE",
"347 24 LINE",
"340 23 OFFCURVE",
"235 16 OFFCURVE",
"194 16 CURVE SMOOTH"
);
}
);
width = 459;
}
);
leftKerningGroup = o;
leftMetricsKey = o;
note = q;
rightKerningGroup = q;
rightMetricsKey = "=n-3";
unicode = 0071;
},
